%TF.GenerationSoftware,KiCad,Pcbnew,(5.0.0)*%
%TF.CreationDate,2018-12-15T00:11:35+01:00*%
%TF.ProjectId,high-voltage_driver_V1.0,686967682D766F6C746167655F647269,1.0*%
%TF.SameCoordinates,PXfbec30PYfbec30*%
%TF.FileFunction,Legend,Top*%
%TF.FilePolarity,Positive*%
%FSLAX46Y46*%
G04 Gerber Fmt 4.6, Leading zero omitted, Abs format (unit mm)*
G04 Created by KiCad (PCBNEW (5.0.0)) date 12/15/18 00:11:35*
%MOMM*%
%LPD*%
G01*
G04 APERTURE LIST*
%ADD10C,0.300000*%
%ADD11C,0.150000*%
%ADD12C,0.120000*%
%ADD13C,0.010000*%
G04 APERTURE END LIST*
D10*
X3639428Y-12538857D02*
X4353714Y-12038857D01*
X3639428Y-11681714D02*
X5139428Y-11681714D01*
X5139428Y-12253142D01*
X5068000Y-12396000D01*
X4996571Y-12467428D01*
X4853714Y-12538857D01*
X4639428Y-12538857D01*
X4496571Y-12467428D01*
X4425142Y-12396000D01*
X4353714Y-12253142D01*
X4353714Y-11681714D01*
X3710857Y-13753142D02*
X3639428Y-13610285D01*
X3639428Y-13324571D01*
X3710857Y-13181714D01*
X3853714Y-13110285D01*
X4425142Y-13110285D01*
X4568000Y-13181714D01*
X4639428Y-13324571D01*
X4639428Y-13610285D01*
X4568000Y-13753142D01*
X4425142Y-13824571D01*
X4282285Y-13824571D01*
X4139428Y-13110285D01*
X4639428Y-14324571D02*
X3639428Y-14681714D01*
X4639428Y-15038857D01*
X3782285Y-15610285D02*
X3710857Y-15681714D01*
X3639428Y-15610285D01*
X3710857Y-15538857D01*
X3782285Y-15610285D01*
X3639428Y-15610285D01*
X3639428Y-18253142D02*
X3639428Y-17396000D01*
X3639428Y-17824571D02*
X5139428Y-17824571D01*
X4925142Y-17681714D01*
X4782285Y-17538857D01*
X4710857Y-17396000D01*
X3782285Y-18896000D02*
X3710857Y-18967428D01*
X3639428Y-18896000D01*
X3710857Y-18824571D01*
X3782285Y-18896000D01*
X3639428Y-18896000D01*
X5139428Y-19896000D02*
X5139428Y-20038857D01*
X5068000Y-20181714D01*
X4996571Y-20253142D01*
X4853714Y-20324571D01*
X4568000Y-20396000D01*
X4210857Y-20396000D01*
X3925142Y-20324571D01*
X3782285Y-20253142D01*
X3710857Y-20181714D01*
X3639428Y-20038857D01*
X3639428Y-19896000D01*
X3710857Y-19753142D01*
X3782285Y-19681714D01*
X3925142Y-19610285D01*
X4210857Y-19538857D01*
X4568000Y-19538857D01*
X4853714Y-19610285D01*
X4996571Y-19681714D01*
X5068000Y-19753142D01*
X5139428Y-19896000D01*
X3068000Y-22610285D02*
X3139428Y-22538857D01*
X3353714Y-22396000D01*
X3496571Y-22324571D01*
X3710857Y-22253142D01*
X4068000Y-22181714D01*
X4353714Y-22181714D01*
X4710857Y-22253142D01*
X4925142Y-22324571D01*
X5068000Y-22396000D01*
X5282285Y-22538857D01*
X5353714Y-22610285D01*
X4996571Y-23110285D02*
X5068000Y-23181714D01*
X5139428Y-23324571D01*
X5139428Y-23681714D01*
X5068000Y-23824571D01*
X4996571Y-23896000D01*
X4853714Y-23967428D01*
X4710857Y-23967428D01*
X4496571Y-23896000D01*
X3639428Y-23038857D01*
X3639428Y-23967428D01*
X5139428Y-24896000D02*
X5139428Y-25038857D01*
X5068000Y-25181714D01*
X4996571Y-25253142D01*
X4853714Y-25324571D01*
X4568000Y-25396000D01*
X4210857Y-25396000D01*
X3925142Y-25324571D01*
X3782285Y-25253142D01*
X3710857Y-25181714D01*
X3639428Y-25038857D01*
X3639428Y-24896000D01*
X3710857Y-24753142D01*
X3782285Y-24681714D01*
X3925142Y-24610285D01*
X4210857Y-24538857D01*
X4568000Y-24538857D01*
X4853714Y-24610285D01*
X4996571Y-24681714D01*
X5068000Y-24753142D01*
X5139428Y-24896000D01*
X3639428Y-26824571D02*
X3639428Y-25967428D01*
X3639428Y-26396000D02*
X5139428Y-26396000D01*
X4925142Y-26253142D01*
X4782285Y-26110285D01*
X4710857Y-25967428D01*
X4496571Y-27681714D02*
X4568000Y-27538857D01*
X4639428Y-27467428D01*
X4782285Y-27396000D01*
X4853714Y-27396000D01*
X4996571Y-27467428D01*
X5068000Y-27538857D01*
X5139428Y-27681714D01*
X5139428Y-27967428D01*
X5068000Y-28110285D01*
X4996571Y-28181714D01*
X4853714Y-28253142D01*
X4782285Y-28253142D01*
X4639428Y-28181714D01*
X4568000Y-28110285D01*
X4496571Y-27967428D01*
X4496571Y-27681714D01*
X4425142Y-27538857D01*
X4353714Y-27467428D01*
X4210857Y-27396000D01*
X3925142Y-27396000D01*
X3782285Y-27467428D01*
X3710857Y-27538857D01*
X3639428Y-27681714D01*
X3639428Y-27967428D01*
X3710857Y-28110285D01*
X3782285Y-28181714D01*
X3925142Y-28253142D01*
X4210857Y-28253142D01*
X4353714Y-28181714D01*
X4425142Y-28110285D01*
X4496571Y-27967428D01*
X4210857Y-28896000D02*
X4210857Y-30038857D01*
X5139428Y-31038857D02*
X5139428Y-31181714D01*
X5068000Y-31324571D01*
X4996571Y-31396000D01*
X4853714Y-31467428D01*
X4568000Y-31538857D01*
X4210857Y-31538857D01*
X3925142Y-31467428D01*
X3782285Y-31396000D01*
X3710857Y-31324571D01*
X3639428Y-31181714D01*
X3639428Y-31038857D01*
X3710857Y-30896000D01*
X3782285Y-30824571D01*
X3925142Y-30753142D01*
X4210857Y-30681714D01*
X4568000Y-30681714D01*
X4853714Y-30753142D01*
X4996571Y-30824571D01*
X5068000Y-30896000D01*
X5139428Y-31038857D01*
X5139428Y-32038857D02*
X5139428Y-33038857D01*
X3639428Y-32396000D01*
X4210857Y-33610285D02*
X4210857Y-34753142D01*
X5139428Y-35753142D02*
X5139428Y-35896000D01*
X5067999Y-36038857D01*
X4996571Y-36110285D01*
X4853714Y-36181714D01*
X4567999Y-36253142D01*
X4210857Y-36253142D01*
X3925142Y-36181714D01*
X3782285Y-36110285D01*
X3710857Y-36038857D01*
X3639428Y-35896000D01*
X3639428Y-35753142D01*
X3710857Y-35610285D01*
X3782285Y-35538857D01*
X3925142Y-35467428D01*
X4210857Y-35396000D01*
X4567999Y-35396000D01*
X4853714Y-35467428D01*
X4996571Y-35538857D01*
X5067999Y-35610285D01*
X5139428Y-35753142D01*
X3639428Y-37681714D02*
X3639428Y-36824571D01*
X3639428Y-37253142D02*
X5139428Y-37253142D01*
X4925142Y-37110285D01*
X4782285Y-36967428D01*
X4710857Y-36824571D01*
X3067999Y-38181714D02*
X3139428Y-38253142D01*
X3353714Y-38396000D01*
X3496571Y-38467428D01*
X3710857Y-38538857D01*
X4067999Y-38610285D01*
X4353714Y-38610285D01*
X4710857Y-38538857D01*
X4925142Y-38467428D01*
X5067999Y-38396000D01*
X5282285Y-38253142D01*
X5353714Y-38181714D01*
X6179428Y-9788857D02*
X7679428Y-9788857D01*
X7679428Y-10360285D01*
X7608000Y-10503142D01*
X7536571Y-10574571D01*
X7393714Y-10646000D01*
X7179428Y-10646000D01*
X7036571Y-10574571D01*
X6965142Y-10503142D01*
X6893714Y-10360285D01*
X6893714Y-9788857D01*
X6179428Y-11288857D02*
X7179428Y-11288857D01*
X7679428Y-11288857D02*
X7608000Y-11217428D01*
X7536571Y-11288857D01*
X7608000Y-11360285D01*
X7679428Y-11288857D01*
X7536571Y-11288857D01*
X7179428Y-12003142D02*
X6179428Y-12003142D01*
X7036571Y-12003142D02*
X7108000Y-12074571D01*
X7179428Y-12217428D01*
X7179428Y-12431714D01*
X7108000Y-12574571D01*
X6965142Y-12646000D01*
X6179428Y-12646000D01*
X6965142Y-13860285D02*
X6893714Y-14074571D01*
X6822285Y-14145999D01*
X6679428Y-14217428D01*
X6465142Y-14217428D01*
X6322285Y-14145999D01*
X6250857Y-14074571D01*
X6179428Y-13931714D01*
X6179428Y-13360285D01*
X7679428Y-13360285D01*
X7679428Y-13860285D01*
X7608000Y-14003142D01*
X7536571Y-14074571D01*
X7393714Y-14145999D01*
X7250857Y-14145999D01*
X7108000Y-14074571D01*
X7036571Y-14003142D01*
X6965142Y-13860285D01*
X6965142Y-13360285D01*
X7179428Y-15503142D02*
X6179428Y-15503142D01*
X7179428Y-14860285D02*
X6393714Y-14860285D01*
X6250857Y-14931714D01*
X6179428Y-15074571D01*
X6179428Y-15288857D01*
X6250857Y-15431714D01*
X6322285Y-15503142D01*
X6250857Y-16145999D02*
X6179428Y-16288857D01*
X6179428Y-16574571D01*
X6250857Y-16717428D01*
X6393714Y-16788857D01*
X6465142Y-16788857D01*
X6608000Y-16717428D01*
X6679428Y-16574571D01*
X6679428Y-16360285D01*
X6750857Y-16217428D01*
X6893714Y-16145999D01*
X6965142Y-16145999D01*
X7108000Y-16217428D01*
X7179428Y-16360285D01*
X7179428Y-16574571D01*
X7108000Y-16717428D01*
X6179428Y-18574571D02*
X7679428Y-18574571D01*
X6965142Y-18574571D02*
X6965142Y-19431714D01*
X6179428Y-19431714D02*
X7679428Y-19431714D01*
X6179428Y-20146000D02*
X7179428Y-20146000D01*
X7679428Y-20146000D02*
X7608000Y-20074571D01*
X7536571Y-20146000D01*
X7608000Y-20217428D01*
X7679428Y-20146000D01*
X7536571Y-20146000D01*
X7179428Y-21503142D02*
X5965142Y-21503142D01*
X5822285Y-21431714D01*
X5750857Y-21360285D01*
X5679428Y-21217428D01*
X5679428Y-21003142D01*
X5750857Y-20860285D01*
X6250857Y-21503142D02*
X6179428Y-21360285D01*
X6179428Y-21074571D01*
X6250857Y-20931714D01*
X6322285Y-20860285D01*
X6465142Y-20788857D01*
X6893714Y-20788857D01*
X7036571Y-20860285D01*
X7108000Y-20931714D01*
X7179428Y-21074571D01*
X7179428Y-21360285D01*
X7108000Y-21503142D01*
X6179428Y-22217428D02*
X7679428Y-22217428D01*
X6179428Y-22860285D02*
X6965142Y-22860285D01*
X7108000Y-22788857D01*
X7179428Y-22646000D01*
X7179428Y-22431714D01*
X7108000Y-22288857D01*
X7036571Y-22217428D01*
X6750857Y-23574571D02*
X6750857Y-24717428D01*
X7179428Y-25288857D02*
X6179428Y-25645999D01*
X7179428Y-26003142D01*
X6179428Y-26788857D02*
X6250857Y-26646000D01*
X6322285Y-26574571D01*
X6465142Y-26503142D01*
X6893714Y-26503142D01*
X7036571Y-26574571D01*
X7108000Y-26646000D01*
X7179428Y-26788857D01*
X7179428Y-27003142D01*
X7108000Y-27146000D01*
X7036571Y-27217428D01*
X6893714Y-27288857D01*
X6465142Y-27288857D01*
X6322285Y-27217428D01*
X6250857Y-27146000D01*
X6179428Y-27003142D01*
X6179428Y-26788857D01*
X6179428Y-28146000D02*
X6250857Y-28003142D01*
X6393714Y-27931714D01*
X7679428Y-27931714D01*
X7179428Y-28503142D02*
X7179428Y-29074571D01*
X7679428Y-28717428D02*
X6393714Y-28717428D01*
X6250857Y-28788857D01*
X6179428Y-28931714D01*
X6179428Y-29074571D01*
X6179428Y-30217428D02*
X6965142Y-30217428D01*
X7108000Y-30146000D01*
X7179428Y-30003142D01*
X7179428Y-29717428D01*
X7108000Y-29574571D01*
X6250857Y-30217428D02*
X6179428Y-30074571D01*
X6179428Y-29717428D01*
X6250857Y-29574571D01*
X6393714Y-29503142D01*
X6536571Y-29503142D01*
X6679428Y-29574571D01*
X6750857Y-29717428D01*
X6750857Y-30074571D01*
X6822285Y-30217428D01*
X7179428Y-31574571D02*
X5965142Y-31574571D01*
X5822285Y-31503142D01*
X5750857Y-31431714D01*
X5679428Y-31288857D01*
X5679428Y-31074571D01*
X5750857Y-30931714D01*
X6250857Y-31574571D02*
X6179428Y-31431714D01*
X6179428Y-31146000D01*
X6250857Y-31003142D01*
X6322285Y-30931714D01*
X6465142Y-30860285D01*
X6893714Y-30860285D01*
X7036571Y-30931714D01*
X7108000Y-31003142D01*
X7179428Y-31146000D01*
X7179428Y-31431714D01*
X7108000Y-31574571D01*
X6250857Y-32860285D02*
X6179428Y-32717428D01*
X6179428Y-32431714D01*
X6250857Y-32288857D01*
X6393714Y-32217428D01*
X6965142Y-32217428D01*
X7108000Y-32288857D01*
X7179428Y-32431714D01*
X7179428Y-32717428D01*
X7108000Y-32860285D01*
X6965142Y-32931714D01*
X6822285Y-32931714D01*
X6679428Y-32217428D01*
X6179428Y-34717428D02*
X7679428Y-34717428D01*
X7679428Y-35074571D01*
X7608000Y-35288857D01*
X7465142Y-35431714D01*
X7322285Y-35503142D01*
X7036571Y-35574571D01*
X6822285Y-35574571D01*
X6536571Y-35503142D01*
X6393714Y-35431714D01*
X6250857Y-35288857D01*
X6179428Y-35074571D01*
X6179428Y-34717428D01*
X6179428Y-36217428D02*
X7179428Y-36217428D01*
X6893714Y-36217428D02*
X7036571Y-36288857D01*
X7107999Y-36360285D01*
X7179428Y-36503142D01*
X7179428Y-36646000D01*
X6179428Y-37146000D02*
X7179428Y-37146000D01*
X7679428Y-37146000D02*
X7607999Y-37074571D01*
X7536571Y-37146000D01*
X7607999Y-37217428D01*
X7679428Y-37146000D01*
X7536571Y-37146000D01*
X7179428Y-37717428D02*
X6179428Y-38074571D01*
X7179428Y-38431714D01*
X6250857Y-39574571D02*
X6179428Y-39431714D01*
X6179428Y-39146000D01*
X6250857Y-39003142D01*
X6393714Y-38931714D01*
X6965142Y-38931714D01*
X7107999Y-39003142D01*
X7179428Y-39146000D01*
X7179428Y-39431714D01*
X7107999Y-39574571D01*
X6965142Y-39646000D01*
X6822285Y-39646000D01*
X6679428Y-38931714D01*
X6179428Y-40288857D02*
X7179428Y-40288857D01*
X6893714Y-40288857D02*
X7036571Y-40360285D01*
X7107999Y-40431714D01*
X7179428Y-40574571D01*
X7179428Y-40717428D01*
D11*
X75000000Y-50000000D02*
X0Y-50000000D01*
X75000000Y0D02*
X75000000Y-50000000D01*
X0Y0D02*
X0Y-50000000D01*
X0Y0D02*
X75000000Y0D01*
D12*
X44368000Y-35462000D02*
X44368000Y-37182000D01*
X44368000Y-37182000D02*
X48088000Y-37182000D01*
X48088000Y-37182000D02*
X48088000Y-35462000D01*
X48088000Y-35462000D02*
X44368000Y-35462000D01*
X43298000Y-36322000D02*
X44368000Y-36322000D01*
X49158000Y-36322000D02*
X48088000Y-36322000D01*
X70676392Y-10392665D02*
G75*
G03X70519484Y-13625000I1078608J-1672335D01*
G01*
X72833608Y-10392665D02*
G75*
G02X72990516Y-13625000I-1078608J-1672335D01*
G01*
X70675163Y-11023870D02*
G75*
G03X70675000Y-13105961I1079837J-1041130D01*
G01*
X72834837Y-11023870D02*
G75*
G02X72835000Y-13105961I-1079837J-1041130D01*
G01*
X70519000Y-13625000D02*
X70675000Y-13625000D01*
X72835000Y-13625000D02*
X72991000Y-13625000D01*
X38264000Y-17008000D02*
X32314000Y-17008000D01*
X32314000Y-17008000D02*
X32314000Y-32108000D01*
X32314000Y-32108000D02*
X38264000Y-32108000D01*
X38264000Y-32108000D02*
X38264000Y-17008000D01*
X38264000Y-20308000D02*
X37514000Y-20308000D01*
X37514000Y-20308000D02*
X37514000Y-28808000D01*
X37514000Y-28808000D02*
X38264000Y-28808000D01*
X38264000Y-28808000D02*
X38264000Y-20308000D01*
X38264000Y-17008000D02*
X37514000Y-17008000D01*
X37514000Y-17008000D02*
X37514000Y-18808000D01*
X37514000Y-18808000D02*
X38264000Y-18808000D01*
X38264000Y-18808000D02*
X38264000Y-17008000D01*
X38264000Y-30308000D02*
X37514000Y-30308000D01*
X37514000Y-30308000D02*
X37514000Y-32108000D01*
X37514000Y-32108000D02*
X38264000Y-32108000D01*
X38264000Y-32108000D02*
X38264000Y-30308000D01*
X36014000Y-17008000D02*
X36014000Y-17758000D01*
X36014000Y-17758000D02*
X33064000Y-17758000D01*
X33064000Y-17758000D02*
X33064000Y-24558000D01*
X36014000Y-32108000D02*
X36014000Y-31358000D01*
X36014000Y-31358000D02*
X33064000Y-31358000D01*
X33064000Y-31358000D02*
X33064000Y-24558000D01*
X38564000Y-19208000D02*
X38564000Y-16708000D01*
X38564000Y-16708000D02*
X36064000Y-16708000D01*
D11*
X63500000Y-19685000D02*
X65405000Y-19685000D01*
X65405000Y-19685000D02*
X65405000Y-28575000D01*
X65405000Y-28575000D02*
X63500000Y-28575000D01*
X73660000Y-18415000D02*
X73660000Y-30162500D01*
X73660000Y-30162500D02*
X63500000Y-30162500D01*
X63500000Y-30162500D02*
X63500000Y-18415000D01*
X63500000Y-18415000D02*
X73660000Y-18415000D01*
X26035000Y-11430000D02*
X26035000Y-9525000D01*
X26035000Y-9525000D02*
X34925000Y-9525000D01*
X34925000Y-9525000D02*
X34925000Y-11430000D01*
X24765000Y-1270000D02*
X36512500Y-1270000D01*
X36512500Y-1270000D02*
X36512500Y-11430000D01*
X36512500Y-11430000D02*
X24765000Y-11430000D01*
X24765000Y-11430000D02*
X24765000Y-1270000D01*
X40005000Y-11430000D02*
X40005000Y-8890000D01*
X40005000Y-8890000D02*
X45085000Y-8890000D01*
X45085000Y-8890000D02*
X45085000Y-11430000D01*
X46355000Y-11430000D02*
X38735000Y-11430000D01*
X38735000Y-11430000D02*
X38735000Y-1270000D01*
X38735000Y-1270000D02*
X46355000Y-1270000D01*
X46355000Y-1270000D02*
X46355000Y-11430000D01*
X45085000Y-38100000D02*
X45085000Y-40005000D01*
X45085000Y-40005000D02*
X36195000Y-40005000D01*
X36195000Y-40005000D02*
X36195000Y-38100000D01*
X46355000Y-48260000D02*
X34607500Y-48260000D01*
X34607500Y-48260000D02*
X34607500Y-38100000D01*
X34607500Y-38100000D02*
X46355000Y-38100000D01*
X46355000Y-38100000D02*
X46355000Y-48260000D01*
X31115000Y-38100000D02*
X31115000Y-40640000D01*
X31115000Y-40640000D02*
X26035000Y-40640000D01*
X26035000Y-40640000D02*
X26035000Y-38100000D01*
X24765000Y-38100000D02*
X32385000Y-38100000D01*
X32385000Y-38100000D02*
X32385000Y-48260000D01*
X32385000Y-48260000D02*
X24765000Y-48260000D01*
X24765000Y-48260000D02*
X24765000Y-38100000D01*
D12*
X19090000Y-8008000D02*
X8850000Y-8008000D01*
X19090000Y-23898000D02*
X8850000Y-23898000D01*
X19090000Y-23898000D02*
X19090000Y-8008000D01*
X8850000Y-23898000D02*
X8850000Y-8008000D01*
X16510000Y-8008000D02*
X16510000Y-5368000D01*
X13970000Y-8008000D02*
X13970000Y-5384000D01*
X11430000Y-8008000D02*
X11430000Y-5384000D01*
X62270000Y-8008000D02*
X52030000Y-8008000D01*
X62270000Y-23898000D02*
X52030000Y-23898000D01*
X62270000Y-23898000D02*
X62270000Y-8008000D01*
X52030000Y-23898000D02*
X52030000Y-8008000D01*
X59690000Y-8008000D02*
X59690000Y-5368000D01*
X57150000Y-8008000D02*
X57150000Y-5384000D01*
X54610000Y-8008000D02*
X54610000Y-5384000D01*
X52030000Y-42030000D02*
X62270000Y-42030000D01*
X52030000Y-26140000D02*
X62270000Y-26140000D01*
X52030000Y-26140000D02*
X52030000Y-42030000D01*
X62270000Y-26140000D02*
X62270000Y-42030000D01*
X54610000Y-42030000D02*
X54610000Y-44670000D01*
X57150000Y-42030000D02*
X57150000Y-44654000D01*
X59690000Y-42030000D02*
X59690000Y-44654000D01*
X8850000Y-42030000D02*
X19090000Y-42030000D01*
X8850000Y-26140000D02*
X19090000Y-26140000D01*
X8850000Y-26140000D02*
X8850000Y-42030000D01*
X19090000Y-26140000D02*
X19090000Y-42030000D01*
X11430000Y-42030000D02*
X11430000Y-44670000D01*
X13970000Y-42030000D02*
X13970000Y-44654000D01*
X16510000Y-42030000D02*
X16510000Y-44654000D01*
X26752000Y-22958000D02*
X26752000Y-21238000D01*
X26752000Y-21238000D02*
X23032000Y-21238000D01*
X23032000Y-21238000D02*
X23032000Y-22958000D01*
X23032000Y-22958000D02*
X26752000Y-22958000D01*
X27822000Y-22098000D02*
X26752000Y-22098000D01*
X21962000Y-22098000D02*
X23032000Y-22098000D01*
X44368000Y-21238000D02*
X44368000Y-22958000D01*
X44368000Y-22958000D02*
X48088000Y-22958000D01*
X48088000Y-22958000D02*
X48088000Y-21238000D01*
X48088000Y-21238000D02*
X44368000Y-21238000D01*
X43298000Y-22098000D02*
X44368000Y-22098000D01*
X49158000Y-22098000D02*
X48088000Y-22098000D01*
X44368000Y-26826000D02*
X44368000Y-28546000D01*
X44368000Y-28546000D02*
X48088000Y-28546000D01*
X48088000Y-28546000D02*
X48088000Y-26826000D01*
X48088000Y-26826000D02*
X44368000Y-26826000D01*
X43298000Y-27686000D02*
X44368000Y-27686000D01*
X49158000Y-27686000D02*
X48088000Y-27686000D01*
X26752000Y-28546000D02*
X26752000Y-26826000D01*
X26752000Y-26826000D02*
X23032000Y-26826000D01*
X23032000Y-26826000D02*
X23032000Y-28546000D01*
X23032000Y-28546000D02*
X26752000Y-28546000D01*
X27822000Y-27686000D02*
X26752000Y-27686000D01*
X21962000Y-27686000D02*
X23032000Y-27686000D01*
X68805000Y-10205000D02*
X67085000Y-10205000D01*
X67085000Y-10205000D02*
X67085000Y-13925000D01*
X67085000Y-13925000D02*
X68805000Y-13925000D01*
X68805000Y-13925000D02*
X68805000Y-10205000D01*
X67945000Y-9135000D02*
X67945000Y-10205000D01*
X67945000Y-14995000D02*
X67945000Y-13925000D01*
X26752000Y-14322000D02*
X26752000Y-12602000D01*
X26752000Y-12602000D02*
X23032000Y-12602000D01*
X23032000Y-12602000D02*
X23032000Y-14322000D01*
X23032000Y-14322000D02*
X26752000Y-14322000D01*
X27822000Y-13462000D02*
X26752000Y-13462000D01*
X21962000Y-13462000D02*
X23032000Y-13462000D01*
X44368000Y-12602000D02*
X44368000Y-14322000D01*
X44368000Y-14322000D02*
X48088000Y-14322000D01*
X48088000Y-14322000D02*
X48088000Y-12602000D01*
X48088000Y-12602000D02*
X44368000Y-12602000D01*
X43298000Y-13462000D02*
X44368000Y-13462000D01*
X49158000Y-13462000D02*
X48088000Y-13462000D01*
X26752000Y-37182000D02*
X26752000Y-35462000D01*
X26752000Y-35462000D02*
X23032000Y-35462000D01*
X23032000Y-35462000D02*
X23032000Y-37182000D01*
X23032000Y-37182000D02*
X26752000Y-37182000D01*
X27822000Y-36322000D02*
X26752000Y-36322000D01*
X21962000Y-36322000D02*
X23032000Y-36322000D01*
X23892000Y-20380000D02*
G75*
G02X25892000Y-20380000I1000000J0D01*
G01*
X25892000Y-20380000D02*
X27542000Y-20380000D01*
X27542000Y-20380000D02*
X27542000Y-15180000D01*
X27542000Y-15180000D02*
X22242000Y-15180000D01*
X22242000Y-15180000D02*
X22242000Y-20380000D01*
X22242000Y-20380000D02*
X23892000Y-20380000D01*
X47228000Y-15180000D02*
G75*
G02X45228000Y-15180000I-1000000J0D01*
G01*
X45228000Y-15180000D02*
X43578000Y-15180000D01*
X43578000Y-15180000D02*
X43578000Y-20380000D01*
X43578000Y-20380000D02*
X48878000Y-20380000D01*
X48878000Y-20380000D02*
X48878000Y-15180000D01*
X48878000Y-15180000D02*
X47228000Y-15180000D01*
X47228000Y-29404000D02*
G75*
G02X45228000Y-29404000I-1000000J0D01*
G01*
X45228000Y-29404000D02*
X43578000Y-29404000D01*
X43578000Y-29404000D02*
X43578000Y-34604000D01*
X43578000Y-34604000D02*
X48878000Y-34604000D01*
X48878000Y-34604000D02*
X48878000Y-29404000D01*
X48878000Y-29404000D02*
X47228000Y-29404000D01*
X23892000Y-34604000D02*
G75*
G02X25892000Y-34604000I1000000J0D01*
G01*
X25892000Y-34604000D02*
X27542000Y-34604000D01*
X27542000Y-34604000D02*
X27542000Y-29404000D01*
X27542000Y-29404000D02*
X22242000Y-29404000D01*
X22242000Y-29404000D02*
X22242000Y-34604000D01*
X22242000Y-34604000D02*
X23892000Y-34604000D01*
X20530000Y-7775000D02*
X22650000Y-7775000D01*
X22650000Y-7775000D02*
X22650000Y-3655000D01*
X22650000Y-3655000D02*
X20530000Y-3655000D01*
X20530000Y-3655000D02*
X20530000Y-7775000D01*
X21590000Y-8545000D02*
X21590000Y-7775000D01*
X21590000Y-2885000D02*
X21590000Y-3655000D01*
X20530000Y-7115000D02*
X22650000Y-7115000D01*
X48470000Y-7775000D02*
X50590000Y-7775000D01*
X50590000Y-7775000D02*
X50590000Y-3655000D01*
X50590000Y-3655000D02*
X48470000Y-3655000D01*
X48470000Y-3655000D02*
X48470000Y-7775000D01*
X49530000Y-8545000D02*
X49530000Y-7775000D01*
X49530000Y-2885000D02*
X49530000Y-3655000D01*
X48470000Y-7115000D02*
X50590000Y-7115000D01*
X50590000Y-42390000D02*
X48470000Y-42390000D01*
X48470000Y-42390000D02*
X48470000Y-46510000D01*
X48470000Y-46510000D02*
X50590000Y-46510000D01*
X50590000Y-46510000D02*
X50590000Y-42390000D01*
X49530000Y-41620000D02*
X49530000Y-42390000D01*
X49530000Y-47280000D02*
X49530000Y-46510000D01*
X50590000Y-43050000D02*
X48470000Y-43050000D01*
X22650000Y-42390000D02*
X20530000Y-42390000D01*
X20530000Y-42390000D02*
X20530000Y-46510000D01*
X20530000Y-46510000D02*
X22650000Y-46510000D01*
X22650000Y-46510000D02*
X22650000Y-42390000D01*
X21590000Y-41620000D02*
X21590000Y-42390000D01*
X21590000Y-47280000D02*
X21590000Y-46510000D01*
X22650000Y-43050000D02*
X20530000Y-43050000D01*
D13*
G36*
X64718097Y-32636900D02*
X64662478Y-32748450D01*
X64560069Y-32846908D01*
X64522136Y-32874023D01*
X64472500Y-32903562D01*
X64418588Y-32922728D01*
X64346636Y-32933693D01*
X64242878Y-32938629D01*
X64105899Y-32939713D01*
X63918185Y-32934818D01*
X63777242Y-32917804D01*
X63672092Y-32885177D01*
X63591757Y-32833442D01*
X63525259Y-32759104D01*
X63521322Y-32753642D01*
X63481047Y-32680380D01*
X63461120Y-32592160D01*
X63456207Y-32479962D01*
X63456207Y-32297567D01*
X63279143Y-32297491D01*
X63180530Y-32295793D01*
X63122686Y-32285450D01*
X63087994Y-32258422D01*
X63058836Y-32206668D01*
X63052879Y-32194239D01*
X63024961Y-32136077D01*
X63007328Y-32091044D01*
X63005806Y-32057559D01*
X63026219Y-32034038D01*
X63074393Y-32018900D01*
X63156154Y-32010563D01*
X63277328Y-32007444D01*
X63443740Y-32007960D01*
X63661215Y-32010529D01*
X63726264Y-32011332D01*
X63950498Y-32014222D01*
X64097179Y-32016812D01*
X64097179Y-32297414D01*
X63972674Y-32298991D01*
X63891213Y-32306000D01*
X63837485Y-32321858D01*
X63796177Y-32349981D01*
X63776029Y-32369075D01*
X63717079Y-32447135D01*
X63712280Y-32516247D01*
X63760962Y-32587560D01*
X63762759Y-32589368D01*
X63800382Y-32618383D01*
X63851516Y-32636033D01*
X63930262Y-32644936D01*
X64050724Y-32647709D01*
X64077412Y-32647759D01*
X64243417Y-32641058D01*
X64358495Y-32619248D01*
X64428746Y-32579765D01*
X64460271Y-32520044D01*
X64463448Y-32485528D01*
X64448540Y-32403611D01*
X64399452Y-32347421D01*
X64309638Y-32313598D01*
X64172555Y-32298780D01*
X64097179Y-32297414D01*
X64097179Y-32016812D01*
X64124048Y-32017287D01*
X64254618Y-32021247D01*
X64349913Y-32026826D01*
X64417636Y-32034746D01*
X64465493Y-32045731D01*
X64501187Y-32060501D01*
X64532422Y-32079782D01*
X64544176Y-32088049D01*
X64655203Y-32197712D01*
X64718153Y-32336365D01*
X64735703Y-32496754D01*
X64718097Y-32636900D01*
X64718097Y-32636900D01*
G37*
X64718097Y-32636900D02*
X64662478Y-32748450D01*
X64560069Y-32846908D01*
X64522136Y-32874023D01*
X64472500Y-32903562D01*
X64418588Y-32922728D01*
X64346636Y-32933693D01*
X64242878Y-32938629D01*
X64105899Y-32939713D01*
X63918185Y-32934818D01*
X63777242Y-32917804D01*
X63672092Y-32885177D01*
X63591757Y-32833442D01*
X63525259Y-32759104D01*
X63521322Y-32753642D01*
X63481047Y-32680380D01*
X63461120Y-32592160D01*
X63456207Y-32479962D01*
X63456207Y-32297567D01*
X63279143Y-32297491D01*
X63180530Y-32295793D01*
X63122686Y-32285450D01*
X63087994Y-32258422D01*
X63058836Y-32206668D01*
X63052879Y-32194239D01*
X63024961Y-32136077D01*
X63007328Y-32091044D01*
X63005806Y-32057559D01*
X63026219Y-32034038D01*
X63074393Y-32018900D01*
X63156154Y-32010563D01*
X63277328Y-32007444D01*
X63443740Y-32007960D01*
X63661215Y-32010529D01*
X63726264Y-32011332D01*
X63950498Y-32014222D01*
X64097179Y-32016812D01*
X64097179Y-32297414D01*
X63972674Y-32298991D01*
X63891213Y-32306000D01*
X63837485Y-32321858D01*
X63796177Y-32349981D01*
X63776029Y-32369075D01*
X63717079Y-32447135D01*
X63712280Y-32516247D01*
X63760962Y-32587560D01*
X63762759Y-32589368D01*
X63800382Y-32618383D01*
X63851516Y-32636033D01*
X63930262Y-32644936D01*
X64050724Y-32647709D01*
X64077412Y-32647759D01*
X64243417Y-32641058D01*
X64358495Y-32619248D01*
X64428746Y-32579765D01*
X64460271Y-32520044D01*
X64463448Y-32485528D01*
X64448540Y-32403611D01*
X64399452Y-32347421D01*
X64309638Y-32313598D01*
X64172555Y-32298780D01*
X64097179Y-32297414D01*
X64097179Y-32016812D01*
X64124048Y-32017287D01*
X64254618Y-32021247D01*
X64349913Y-32026826D01*
X64417636Y-32034746D01*
X64465493Y-32045731D01*
X64501187Y-32060501D01*
X64532422Y-32079782D01*
X64544176Y-32088049D01*
X64655203Y-32197712D01*
X64718153Y-32336365D01*
X64735703Y-32496754D01*
X64718097Y-32636900D01*
G36*
X64702281Y-34882429D02*
X64648086Y-34976123D01*
X64594293Y-35041264D01*
X64537934Y-35088907D01*
X64469013Y-35121728D01*
X64377532Y-35142406D01*
X64253494Y-35153620D01*
X64086902Y-35158049D01*
X63967149Y-35158563D01*
X63526341Y-35158563D01*
X63470717Y-35034483D01*
X63415093Y-34910402D01*
X63897905Y-34895805D01*
X64078221Y-34889773D01*
X64209099Y-34883445D01*
X64299489Y-34875606D01*
X64358336Y-34865037D01*
X64394587Y-34850523D01*
X64417190Y-34830848D01*
X64422083Y-34824535D01*
X64460294Y-34728888D01*
X64445173Y-34632207D01*
X64405057Y-34574655D01*
X64376630Y-34551245D01*
X64339328Y-34535039D01*
X64282777Y-34524741D01*
X64196606Y-34519049D01*
X64070442Y-34516664D01*
X63938958Y-34516264D01*
X63774001Y-34516186D01*
X63657239Y-34513361D01*
X63578490Y-34503907D01*
X63527569Y-34483940D01*
X63494294Y-34449576D01*
X63468480Y-34396932D01*
X63441656Y-34326617D01*
X63412458Y-34249820D01*
X63930654Y-34258962D01*
X64117461Y-34262643D01*
X64255510Y-34266950D01*
X64354432Y-34273123D01*
X64423855Y-34282402D01*
X64473410Y-34296027D01*
X64512727Y-34315239D01*
X64547416Y-34338402D01*
X64658230Y-34450152D01*
X64722311Y-34586513D01*
X64737661Y-34734825D01*
X64702281Y-34882429D01*
X64702281Y-34882429D01*
G37*
X64702281Y-34882429D02*
X64648086Y-34976123D01*
X64594293Y-35041264D01*
X64537934Y-35088907D01*
X64469013Y-35121728D01*
X64377532Y-35142406D01*
X64253494Y-35153620D01*
X64086902Y-35158049D01*
X63967149Y-35158563D01*
X63526341Y-35158563D01*
X63470717Y-35034483D01*
X63415093Y-34910402D01*
X63897905Y-34895805D01*
X64078221Y-34889773D01*
X64209099Y-34883445D01*
X64299489Y-34875606D01*
X64358336Y-34865037D01*
X64394587Y-34850523D01*
X64417190Y-34830848D01*
X64422083Y-34824535D01*
X64460294Y-34728888D01*
X64445173Y-34632207D01*
X64405057Y-34574655D01*
X64376630Y-34551245D01*
X64339328Y-34535039D01*
X64282777Y-34524741D01*
X64196606Y-34519049D01*
X64070442Y-34516664D01*
X63938958Y-34516264D01*
X63774001Y-34516186D01*
X63657239Y-34513361D01*
X63578490Y-34503907D01*
X63527569Y-34483940D01*
X63494294Y-34449576D01*
X63468480Y-34396932D01*
X63441656Y-34326617D01*
X63412458Y-34249820D01*
X63930654Y-34258962D01*
X64117461Y-34262643D01*
X64255510Y-34266950D01*
X64354432Y-34273123D01*
X64423855Y-34282402D01*
X64473410Y-34296027D01*
X64512727Y-34315239D01*
X64547416Y-34338402D01*
X64658230Y-34450152D01*
X64722311Y-34586513D01*
X64737661Y-34734825D01*
X64702281Y-34882429D01*
G36*
X64713985Y-31513221D02*
X64642032Y-31650061D01*
X64526234Y-31751051D01*
X64451787Y-31786925D01*
X64340008Y-31814839D01*
X64198773Y-31829129D01*
X64044629Y-31830484D01*
X63894121Y-31819595D01*
X63763795Y-31797153D01*
X63670197Y-31763850D01*
X63654078Y-31753615D01*
X63533751Y-31632382D01*
X63461683Y-31488387D01*
X63440592Y-31332139D01*
X63473198Y-31174148D01*
X63492747Y-31130180D01*
X63552988Y-31044556D01*
X63632865Y-30969408D01*
X63642996Y-30962306D01*
X63691819Y-30933439D01*
X63744010Y-30914357D01*
X63812715Y-30903084D01*
X63911082Y-30897645D01*
X64052256Y-30896062D01*
X64083908Y-30896035D01*
X64093981Y-30896107D01*
X64093981Y-31187989D01*
X63960744Y-31189687D01*
X63872326Y-31196372D01*
X63815215Y-31210425D01*
X63775898Y-31234229D01*
X63762759Y-31246379D01*
X63712828Y-31316236D01*
X63715105Y-31384059D01*
X63758416Y-31452635D01*
X63804654Y-31493535D01*
X63872143Y-31517758D01*
X63978567Y-31531361D01*
X63990980Y-31532294D01*
X64183853Y-31534616D01*
X64327100Y-31510350D01*
X64419840Y-31459824D01*
X64461193Y-31383368D01*
X64463448Y-31356076D01*
X64452107Y-31284411D01*
X64412816Y-31235390D01*
X64337674Y-31205418D01*
X64218778Y-31190899D01*
X64093981Y-31187989D01*
X64093981Y-30896107D01*
X64234341Y-30897122D01*
X64339451Y-30901688D01*
X64412286Y-30911688D01*
X64465892Y-30929079D01*
X64513319Y-30955816D01*
X64522136Y-30961724D01*
X64640993Y-31061032D01*
X64709992Y-31169242D01*
X64737381Y-31300981D01*
X64738719Y-31345717D01*
X64713985Y-31513221D01*
X64713985Y-31513221D01*
G37*
X64713985Y-31513221D02*
X64642032Y-31650061D01*
X64526234Y-31751051D01*
X64451787Y-31786925D01*
X64340008Y-31814839D01*
X64198773Y-31829129D01*
X64044629Y-31830484D01*
X63894121Y-31819595D01*
X63763795Y-31797153D01*
X63670197Y-31763850D01*
X63654078Y-31753615D01*
X63533751Y-31632382D01*
X63461683Y-31488387D01*
X63440592Y-31332139D01*
X63473198Y-31174148D01*
X63492747Y-31130180D01*
X63552988Y-31044556D01*
X63632865Y-30969408D01*
X63642996Y-30962306D01*
X63691819Y-30933439D01*
X63744010Y-30914357D01*
X63812715Y-30903084D01*
X63911082Y-30897645D01*
X64052256Y-30896062D01*
X64083908Y-30896035D01*
X64093981Y-30896107D01*
X64093981Y-31187989D01*
X63960744Y-31189687D01*
X63872326Y-31196372D01*
X63815215Y-31210425D01*
X63775898Y-31234229D01*
X63762759Y-31246379D01*
X63712828Y-31316236D01*
X63715105Y-31384059D01*
X63758416Y-31452635D01*
X63804654Y-31493535D01*
X63872143Y-31517758D01*
X63978567Y-31531361D01*
X63990980Y-31532294D01*
X64183853Y-31534616D01*
X64327100Y-31510350D01*
X64419840Y-31459824D01*
X64461193Y-31383368D01*
X64463448Y-31356076D01*
X64452107Y-31284411D01*
X64412816Y-31235390D01*
X64337674Y-31205418D01*
X64218778Y-31190899D01*
X64093981Y-31187989D01*
X64093981Y-30896107D01*
X64234341Y-30897122D01*
X64339451Y-30901688D01*
X64412286Y-30911688D01*
X64465892Y-30929079D01*
X64513319Y-30955816D01*
X64522136Y-30961724D01*
X64640993Y-31061032D01*
X64709992Y-31169242D01*
X64737381Y-31300981D01*
X64738719Y-31345717D01*
X64713985Y-31513221D01*
G36*
X64695324Y-33780552D02*
X64617889Y-33895658D01*
X64506051Y-33984611D01*
X64363735Y-34037749D01*
X64258985Y-34048497D01*
X64215274Y-34047276D01*
X64181806Y-34037056D01*
X64151821Y-34008961D01*
X64118560Y-33954116D01*
X64075262Y-33863645D01*
X64015167Y-33728672D01*
X64014866Y-33727989D01*
X63957963Y-33603751D01*
X63907435Y-33501873D01*
X63868720Y-33432767D01*
X63847260Y-33406846D01*
X63847087Y-33406839D01*
X63800356Y-33429685D01*
X63748846Y-33483109D01*
X63711739Y-33544442D01*
X63704368Y-33575515D01*
X63729862Y-33660289D01*
X63793709Y-33733293D01*
X63863906Y-33768913D01*
X63915657Y-33803180D01*
X63974591Y-33870303D01*
X64025504Y-33949208D01*
X64053191Y-34018821D01*
X64054713Y-34033377D01*
X64029679Y-34049763D01*
X63965689Y-34050750D01*
X63879407Y-34038708D01*
X63787499Y-34016007D01*
X63706631Y-33985014D01*
X63703491Y-33983448D01*
X63573266Y-33890181D01*
X63484689Y-33769304D01*
X63441214Y-33632027D01*
X63446294Y-33489560D01*
X63503384Y-33353112D01*
X63507398Y-33347045D01*
X63604674Y-33239710D01*
X63731591Y-33169132D01*
X63898474Y-33130074D01*
X63945361Y-33124832D01*
X64166671Y-33115548D01*
X64269876Y-33126678D01*
X64269876Y-33406839D01*
X64205497Y-33410479D01*
X64186709Y-33430389D01*
X64200765Y-33480026D01*
X64233991Y-33558267D01*
X64275641Y-33645726D01*
X64276744Y-33647899D01*
X64315735Y-33722030D01*
X64341756Y-33751781D01*
X64369035Y-33744445D01*
X64404879Y-33713553D01*
X64456749Y-33634960D01*
X64460561Y-33550323D01*
X64422811Y-33474403D01*
X64349999Y-33421965D01*
X64269876Y-33406839D01*
X64269876Y-33126678D01*
X64343739Y-33134644D01*
X64484171Y-33183634D01*
X64582553Y-33251836D01*
X64681970Y-33374935D01*
X64731289Y-33510528D01*
X64734432Y-33648955D01*
X64695324Y-33780552D01*
X64695324Y-33780552D01*
G37*
X64695324Y-33780552D02*
X64617889Y-33895658D01*
X64506051Y-33984611D01*
X64363735Y-34037749D01*
X64258985Y-34048497D01*
X64215274Y-34047276D01*
X64181806Y-34037056D01*
X64151821Y-34008961D01*
X64118560Y-33954116D01*
X64075262Y-33863645D01*
X64015167Y-33728672D01*
X64014866Y-33727989D01*
X63957963Y-33603751D01*
X63907435Y-33501873D01*
X63868720Y-33432767D01*
X63847260Y-33406846D01*
X63847087Y-33406839D01*
X63800356Y-33429685D01*
X63748846Y-33483109D01*
X63711739Y-33544442D01*
X63704368Y-33575515D01*
X63729862Y-33660289D01*
X63793709Y-33733293D01*
X63863906Y-33768913D01*
X63915657Y-33803180D01*
X63974591Y-33870303D01*
X64025504Y-33949208D01*
X64053191Y-34018821D01*
X64054713Y-34033377D01*
X64029679Y-34049763D01*
X63965689Y-34050750D01*
X63879407Y-34038708D01*
X63787499Y-34016007D01*
X63706631Y-33985014D01*
X63703491Y-33983448D01*
X63573266Y-33890181D01*
X63484689Y-33769304D01*
X63441214Y-33632027D01*
X63446294Y-33489560D01*
X63503384Y-33353112D01*
X63507398Y-33347045D01*
X63604674Y-33239710D01*
X63731591Y-33169132D01*
X63898474Y-33130074D01*
X63945361Y-33124832D01*
X64166671Y-33115548D01*
X64269876Y-33126678D01*
X64269876Y-33406839D01*
X64205497Y-33410479D01*
X64186709Y-33430389D01*
X64200765Y-33480026D01*
X64233991Y-33558267D01*
X64275641Y-33645726D01*
X64276744Y-33647899D01*
X64315735Y-33722030D01*
X64341756Y-33751781D01*
X64369035Y-33744445D01*
X64404879Y-33713553D01*
X64456749Y-33634960D01*
X64460561Y-33550323D01*
X64422811Y-33474403D01*
X64349999Y-33421965D01*
X64269876Y-33406839D01*
X64269876Y-33126678D01*
X64343739Y-33134644D01*
X64484171Y-33183634D01*
X64582553Y-33251836D01*
X64681970Y-33374935D01*
X64731289Y-33510528D01*
X64734432Y-33648955D01*
X64695324Y-33780552D01*
G36*
X64856143Y-36209598D02*
X64736812Y-36218154D01*
X64666494Y-36227981D01*
X64635821Y-36241599D01*
X64635429Y-36261527D01*
X64639090Y-36267989D01*
X64665602Y-36353940D01*
X64664054Y-36465745D01*
X64636801Y-36579414D01*
X64601545Y-36650510D01*
X64545222Y-36723405D01*
X64481481Y-36776693D01*
X64400490Y-36813275D01*
X64292414Y-36836050D01*
X64147420Y-36847919D01*
X63955674Y-36851782D01*
X63918891Y-36851851D01*
X63505712Y-36851897D01*
X63473661Y-36759954D01*
X63451856Y-36694652D01*
X63441703Y-36658824D01*
X63441609Y-36657770D01*
X63469140Y-36654242D01*
X63545077Y-36651239D01*
X63659435Y-36648990D01*
X63802231Y-36647724D01*
X63889049Y-36647529D01*
X64060227Y-36647123D01*
X64182912Y-36645032D01*
X64267000Y-36639947D01*
X64322386Y-36630560D01*
X64358968Y-36615561D01*
X64386641Y-36593642D01*
X64399968Y-36579957D01*
X64453672Y-36485949D01*
X64457693Y-36383364D01*
X64412275Y-36290290D01*
X64395877Y-36273078D01*
X64365043Y-36247832D01*
X64328469Y-36230320D01*
X64275585Y-36219142D01*
X64195823Y-36212896D01*
X64078615Y-36210182D01*
X63917009Y-36209598D01*
X63505712Y-36209598D01*
X63473661Y-36117655D01*
X63451856Y-36052353D01*
X63441703Y-36016525D01*
X63441609Y-36015471D01*
X63469552Y-36012775D01*
X63548370Y-36010345D01*
X63670547Y-36008278D01*
X63828568Y-36006671D01*
X64014917Y-36005623D01*
X64222080Y-36005231D01*
X64231294Y-36005230D01*
X65020980Y-36005230D01*
X65061003Y-36100115D01*
X65101027Y-36195000D01*
X64856143Y-36209598D01*
X64856143Y-36209598D01*
G37*
X64856143Y-36209598D02*
X64736812Y-36218154D01*
X64666494Y-36227981D01*
X64635821Y-36241599D01*
X64635429Y-36261527D01*
X64639090Y-36267989D01*
X64665602Y-36353940D01*
X64664054Y-36465745D01*
X64636801Y-36579414D01*
X64601545Y-36650510D01*
X64545222Y-36723405D01*
X64481481Y-36776693D01*
X64400490Y-36813275D01*
X64292414Y-36836050D01*
X64147420Y-36847919D01*
X63955674Y-36851782D01*
X63918891Y-36851851D01*
X63505712Y-36851897D01*
X63473661Y-36759954D01*
X63451856Y-36694652D01*
X63441703Y-36658824D01*
X63441609Y-36657770D01*
X63469140Y-36654242D01*
X63545077Y-36651239D01*
X63659435Y-36648990D01*
X63802231Y-36647724D01*
X63889049Y-36647529D01*
X64060227Y-36647123D01*
X64182912Y-36645032D01*
X64267000Y-36639947D01*
X64322386Y-36630560D01*
X64358968Y-36615561D01*
X64386641Y-36593642D01*
X64399968Y-36579957D01*
X64453672Y-36485949D01*
X64457693Y-36383364D01*
X64412275Y-36290290D01*
X64395877Y-36273078D01*
X64365043Y-36247832D01*
X64328469Y-36230320D01*
X64275585Y-36219142D01*
X64195823Y-36212896D01*
X64078615Y-36210182D01*
X63917009Y-36209598D01*
X63505712Y-36209598D01*
X63473661Y-36117655D01*
X63451856Y-36052353D01*
X63441703Y-36016525D01*
X63441609Y-36015471D01*
X63469552Y-36012775D01*
X63548370Y-36010345D01*
X63670547Y-36008278D01*
X63828568Y-36006671D01*
X64014917Y-36005623D01*
X64222080Y-36005231D01*
X64231294Y-36005230D01*
X65020980Y-36005230D01*
X65061003Y-36100115D01*
X65101027Y-36195000D01*
X64856143Y-36209598D01*
G36*
X64655640Y-37544944D02*
X64613158Y-37659343D01*
X64612342Y-37660652D01*
X64560270Y-37731403D01*
X64499416Y-37783636D01*
X64420113Y-37820371D01*
X64312691Y-37844634D01*
X64167483Y-37859445D01*
X63974821Y-37867829D01*
X63947372Y-37868564D01*
X63533479Y-37879120D01*
X63487544Y-37790291D01*
X63456502Y-37726018D01*
X63441794Y-37687210D01*
X63441609Y-37685415D01*
X63468750Y-37678700D01*
X63541959Y-37673365D01*
X63648919Y-37670083D01*
X63735531Y-37669368D01*
X63875838Y-37669351D01*
X63963949Y-37662937D01*
X64005975Y-37640580D01*
X64008025Y-37592732D01*
X63976210Y-37509849D01*
X63917728Y-37384713D01*
X63869155Y-37292697D01*
X63827014Y-37245371D01*
X63781084Y-37231458D01*
X63778811Y-37231437D01*
X63699689Y-37254395D01*
X63656945Y-37322370D01*
X63650754Y-37426398D01*
X63651828Y-37501330D01*
X63630247Y-37540839D01*
X63578409Y-37565478D01*
X63512368Y-37579659D01*
X63474896Y-37559223D01*
X63469533Y-37551528D01*
X63447994Y-37479083D01*
X63444945Y-37377633D01*
X63459222Y-37273157D01*
X63485312Y-37199125D01*
X63572215Y-37096772D01*
X63693184Y-37038591D01*
X63787692Y-37027069D01*
X63872938Y-37035862D01*
X63942524Y-37067680D01*
X64004328Y-37130684D01*
X64066228Y-37233031D01*
X64136103Y-37382882D01*
X64140052Y-37392012D01*
X64202412Y-37526997D01*
X64253554Y-37610294D01*
X64299512Y-37645997D01*
X64346317Y-37638203D01*
X64400002Y-37591007D01*
X64412356Y-37576894D01*
X64460259Y-37482359D01*
X64458242Y-37384406D01*
X64411276Y-37299097D01*
X64324331Y-37242496D01*
X64307266Y-37237237D01*
X64224496Y-37186023D01*
X64184628Y-37121037D01*
X64145118Y-37027069D01*
X64247342Y-37027069D01*
X64395928Y-37055653D01*
X64532216Y-37140495D01*
X64577809Y-37184645D01*
X64636326Y-37285005D01*
X64662816Y-37412635D01*
X64655640Y-37544944D01*
X64655640Y-37544944D01*
G37*
X64655640Y-37544944D02*
X64613158Y-37659343D01*
X64612342Y-37660652D01*
X64560270Y-37731403D01*
X64499416Y-37783636D01*
X64420113Y-37820371D01*
X64312691Y-37844634D01*
X64167483Y-37859445D01*
X63974821Y-37867829D01*
X63947372Y-37868564D01*
X63533479Y-37879120D01*
X63487544Y-37790291D01*
X63456502Y-37726018D01*
X63441794Y-37687210D01*
X63441609Y-37685415D01*
X63468750Y-37678700D01*
X63541959Y-37673365D01*
X63648919Y-37670083D01*
X63735531Y-37669368D01*
X63875838Y-37669351D01*
X63963949Y-37662937D01*
X64005975Y-37640580D01*
X64008025Y-37592732D01*
X63976210Y-37509849D01*
X63917728Y-37384713D01*
X63869155Y-37292697D01*
X63827014Y-37245371D01*
X63781084Y-37231458D01*
X63778811Y-37231437D01*
X63699689Y-37254395D01*
X63656945Y-37322370D01*
X63650754Y-37426398D01*
X63651828Y-37501330D01*
X63630247Y-37540839D01*
X63578409Y-37565478D01*
X63512368Y-37579659D01*
X63474896Y-37559223D01*
X63469533Y-37551528D01*
X63447994Y-37479083D01*
X63444945Y-37377633D01*
X63459222Y-37273157D01*
X63485312Y-37199125D01*
X63572215Y-37096772D01*
X63693184Y-37038591D01*
X63787692Y-37027069D01*
X63872938Y-37035862D01*
X63942524Y-37067680D01*
X64004328Y-37130684D01*
X64066228Y-37233031D01*
X64136103Y-37382882D01*
X64140052Y-37392012D01*
X64202412Y-37526997D01*
X64253554Y-37610294D01*
X64299512Y-37645997D01*
X64346317Y-37638203D01*
X64400002Y-37591007D01*
X64412356Y-37576894D01*
X64460259Y-37482359D01*
X64458242Y-37384406D01*
X64411276Y-37299097D01*
X64324331Y-37242496D01*
X64307266Y-37237237D01*
X64224496Y-37186023D01*
X64184628Y-37121037D01*
X64145118Y-37027069D01*
X64247342Y-37027069D01*
X64395928Y-37055653D01*
X64532216Y-37140495D01*
X64577809Y-37184645D01*
X64636326Y-37285005D01*
X64662816Y-37412635D01*
X64655640Y-37544944D01*
G36*
X64658080Y-38530943D02*
X64609141Y-38663565D01*
X64522581Y-38771010D01*
X64461648Y-38813032D01*
X64349839Y-38858843D01*
X64268994Y-38857891D01*
X64214622Y-38809808D01*
X64205376Y-38792017D01*
X64176550Y-38715204D01*
X64183935Y-38675976D01*
X64232342Y-38662689D01*
X64259080Y-38662012D01*
X64357452Y-38637686D01*
X64426266Y-38574281D01*
X64459502Y-38486154D01*
X64451139Y-38387663D01*
X64407704Y-38307602D01*
X64382928Y-38280561D01*
X64352871Y-38261394D01*
X64307435Y-38248446D01*
X64236524Y-38240064D01*
X64130040Y-38234593D01*
X63977888Y-38230378D01*
X63929713Y-38229287D01*
X63764905Y-38225307D01*
X63648912Y-38220781D01*
X63572167Y-38213995D01*
X63525107Y-38203231D01*
X63498165Y-38186773D01*
X63481777Y-38162906D01*
X63474537Y-38147626D01*
X63449780Y-38082733D01*
X63441609Y-38044534D01*
X63468897Y-38031912D01*
X63551397Y-38024208D01*
X63690059Y-38021380D01*
X63885838Y-38023386D01*
X63916035Y-38024011D01*
X64094651Y-38028421D01*
X64225077Y-38033635D01*
X64317508Y-38041055D01*
X64382142Y-38052082D01*
X64429175Y-38068117D01*
X64468804Y-38090561D01*
X64485785Y-38102302D01*
X64560920Y-38169619D01*
X64619362Y-38244910D01*
X64624464Y-38254128D01*
X64664740Y-38389133D01*
X64658080Y-38530943D01*
X64658080Y-38530943D01*
G37*
X64658080Y-38530943D02*
X64609141Y-38663565D01*
X64522581Y-38771010D01*
X64461648Y-38813032D01*
X64349839Y-38858843D01*
X64268994Y-38857891D01*
X64214622Y-38809808D01*
X64205376Y-38792017D01*
X64176550Y-38715204D01*
X64183935Y-38675976D01*
X64232342Y-38662689D01*
X64259080Y-38662012D01*
X64357452Y-38637686D01*
X64426266Y-38574281D01*
X64459502Y-38486154D01*
X64451139Y-38387663D01*
X64407704Y-38307602D01*
X64382928Y-38280561D01*
X64352871Y-38261394D01*
X64307435Y-38248446D01*
X64236524Y-38240064D01*
X64130040Y-38234593D01*
X63977888Y-38230378D01*
X63929713Y-38229287D01*
X63764905Y-38225307D01*
X63648912Y-38220781D01*
X63572167Y-38213995D01*
X63525107Y-38203231D01*
X63498165Y-38186773D01*
X63481777Y-38162906D01*
X63474537Y-38147626D01*
X63449780Y-38082733D01*
X63441609Y-38044534D01*
X63468897Y-38031912D01*
X63551397Y-38024208D01*
X63690059Y-38021380D01*
X63885838Y-38023386D01*
X63916035Y-38024011D01*
X64094651Y-38028421D01*
X64225077Y-38033635D01*
X64317508Y-38041055D01*
X64382142Y-38052082D01*
X64429175Y-38068117D01*
X64468804Y-38090561D01*
X64485785Y-38102302D01*
X64560920Y-38169619D01*
X64619362Y-38244910D01*
X64624464Y-38254128D01*
X64664740Y-38389133D01*
X64658080Y-38530943D01*
G36*
X64425545Y-39858914D02*
X64207339Y-39858543D01*
X64039481Y-39857108D01*
X63913930Y-39854002D01*
X63822645Y-39848622D01*
X63757585Y-39840362D01*
X63710709Y-39828616D01*
X63673976Y-39812781D01*
X63653009Y-39800790D01*
X63539306Y-39701490D01*
X63468035Y-39575588D01*
X63442462Y-39436291D01*
X63465850Y-39296805D01*
X63507881Y-39213743D01*
X63580589Y-39126545D01*
X63669388Y-39067117D01*
X63785680Y-39031261D01*
X63940865Y-39014781D01*
X64054713Y-39012447D01*
X64062894Y-39012761D01*
X64062894Y-39216724D01*
X63932343Y-39217970D01*
X63845920Y-39223678D01*
X63789382Y-39236804D01*
X63748486Y-39260306D01*
X63717638Y-39288386D01*
X63658095Y-39382688D01*
X63653008Y-39483940D01*
X63702721Y-39579636D01*
X63709457Y-39587084D01*
X63744498Y-39618874D01*
X63786189Y-39638808D01*
X63848238Y-39649600D01*
X63944356Y-39653965D01*
X64050621Y-39654655D01*
X64184120Y-39653159D01*
X64273178Y-39646964D01*
X64331707Y-39633514D01*
X64373618Y-39610251D01*
X64395877Y-39591175D01*
X64452015Y-39502563D01*
X64458765Y-39400508D01*
X64415886Y-39303095D01*
X64399968Y-39284296D01*
X64364618Y-39252293D01*
X64322498Y-39232318D01*
X64259749Y-39221593D01*
X64162513Y-39217339D01*
X64062894Y-39216724D01*
X64062894Y-39012761D01*
X64238053Y-39019504D01*
X64375805Y-39043472D01*
X64479368Y-39088548D01*
X64560144Y-39158928D01*
X64601545Y-39213743D01*
X64646272Y-39313376D01*
X64667033Y-39428855D01*
X64661475Y-39536199D01*
X64639057Y-39596264D01*
X64632677Y-39619835D01*
X64656465Y-39635477D01*
X64720212Y-39646395D01*
X64817313Y-39654655D01*
X64925459Y-39663699D01*
X64990525Y-39676261D01*
X65027732Y-39699119D01*
X65052301Y-39739051D01*
X65063181Y-39764138D01*
X65102928Y-39859023D01*
X64425545Y-39858914D01*
X64425545Y-39858914D01*
G37*
X64425545Y-39858914D02*
X64207339Y-39858543D01*
X64039481Y-39857108D01*
X63913930Y-39854002D01*
X63822645Y-39848622D01*
X63757585Y-39840362D01*
X63710709Y-39828616D01*
X63673976Y-39812781D01*
X63653009Y-39800790D01*
X63539306Y-39701490D01*
X63468035Y-39575588D01*
X63442462Y-39436291D01*
X63465850Y-39296805D01*
X63507881Y-39213743D01*
X63580589Y-39126545D01*
X63669388Y-39067117D01*
X63785680Y-39031261D01*
X63940865Y-39014781D01*
X64054713Y-39012447D01*
X64062894Y-39012761D01*
X64062894Y-39216724D01*
X63932343Y-39217970D01*
X63845920Y-39223678D01*
X63789382Y-39236804D01*
X63748486Y-39260306D01*
X63717638Y-39288386D01*
X63658095Y-39382688D01*
X63653008Y-39483940D01*
X63702721Y-39579636D01*
X63709457Y-39587084D01*
X63744498Y-39618874D01*
X63786189Y-39638808D01*
X63848238Y-39649600D01*
X63944356Y-39653965D01*
X64050621Y-39654655D01*
X64184120Y-39653159D01*
X64273178Y-39646964D01*
X64331707Y-39633514D01*
X64373618Y-39610251D01*
X64395877Y-39591175D01*
X64452015Y-39502563D01*
X64458765Y-39400508D01*
X64415886Y-39303095D01*
X64399968Y-39284296D01*
X64364618Y-39252293D01*
X64322498Y-39232318D01*
X64259749Y-39221593D01*
X64162513Y-39217339D01*
X64062894Y-39216724D01*
X64062894Y-39012761D01*
X64238053Y-39019504D01*
X64375805Y-39043472D01*
X64479368Y-39088548D01*
X64560144Y-39158928D01*
X64601545Y-39213743D01*
X64646272Y-39313376D01*
X64667033Y-39428855D01*
X64661475Y-39536199D01*
X64639057Y-39596264D01*
X64632677Y-39619835D01*
X64656465Y-39635477D01*
X64720212Y-39646395D01*
X64817313Y-39654655D01*
X64925459Y-39663699D01*
X64990525Y-39676261D01*
X65027732Y-39699119D01*
X65052301Y-39739051D01*
X65063181Y-39764138D01*
X65102928Y-39859023D01*
X64425545Y-39858914D01*
G36*
X64640160Y-41045124D02*
X64563347Y-41049579D01*
X64446609Y-41053071D01*
X64299179Y-41055315D01*
X64144545Y-41056035D01*
X63621273Y-41056035D01*
X63528883Y-40963645D01*
X63471953Y-40899978D01*
X63448893Y-40844089D01*
X63450353Y-40767702D01*
X63454066Y-40737380D01*
X63464874Y-40642610D01*
X63471067Y-40564222D01*
X63471639Y-40545115D01*
X63467898Y-40480699D01*
X63458506Y-40388571D01*
X63454066Y-40352850D01*
X63447199Y-40265114D01*
X63462115Y-40206153D01*
X63508165Y-40147690D01*
X63528883Y-40126585D01*
X63621273Y-40034195D01*
X64600053Y-40034195D01*
X64633934Y-40108558D01*
X64659030Y-40172590D01*
X64667816Y-40210052D01*
X64640050Y-40219657D01*
X64562470Y-40228635D01*
X64443652Y-40236386D01*
X64292172Y-40242314D01*
X64164195Y-40245173D01*
X63660575Y-40253161D01*
X63650722Y-40322848D01*
X63657611Y-40386229D01*
X63679917Y-40417286D01*
X63721621Y-40425967D01*
X63810456Y-40433378D01*
X63935166Y-40438931D01*
X64084493Y-40442036D01*
X64161339Y-40442484D01*
X64603713Y-40442931D01*
X64635765Y-40534874D01*
X64657557Y-40599949D01*
X64667719Y-40635347D01*
X64667816Y-40636368D01*
X64640191Y-40639920D01*
X64563589Y-40643823D01*
X64447421Y-40647751D01*
X64301096Y-40651376D01*
X64164195Y-40653908D01*
X63660575Y-40661897D01*
X63660575Y-40837069D01*
X64120035Y-40845107D01*
X64579495Y-40853146D01*
X64623656Y-40938543D01*
X64653981Y-41001593D01*
X64667742Y-41038910D01*
X64667816Y-41039987D01*
X64640160Y-41045124D01*
X64640160Y-41045124D01*
G37*
X64640160Y-41045124D02*
X64563347Y-41049579D01*
X64446609Y-41053071D01*
X64299179Y-41055315D01*
X64144545Y-41056035D01*
X63621273Y-41056035D01*
X63528883Y-40963645D01*
X63471953Y-40899978D01*
X63448893Y-40844089D01*
X63450353Y-40767702D01*
X63454066Y-40737380D01*
X63464874Y-40642610D01*
X63471067Y-40564222D01*
X63471639Y-40545115D01*
X63467898Y-40480699D01*
X63458506Y-40388571D01*
X63454066Y-40352850D01*
X63447199Y-40265114D01*
X63462115Y-40206153D01*
X63508165Y-40147690D01*
X63528883Y-40126585D01*
X63621273Y-40034195D01*
X64600053Y-40034195D01*
X64633934Y-40108558D01*
X64659030Y-40172590D01*
X64667816Y-40210052D01*
X64640050Y-40219657D01*
X64562470Y-40228635D01*
X64443652Y-40236386D01*
X64292172Y-40242314D01*
X64164195Y-40245173D01*
X63660575Y-40253161D01*
X63650722Y-40322848D01*
X63657611Y-40386229D01*
X63679917Y-40417286D01*
X63721621Y-40425967D01*
X63810456Y-40433378D01*
X63935166Y-40438931D01*
X64084493Y-40442036D01*
X64161339Y-40442484D01*
X64603713Y-40442931D01*
X64635765Y-40534874D01*
X64657557Y-40599949D01*
X64667719Y-40635347D01*
X64667816Y-40636368D01*
X64640191Y-40639920D01*
X64563589Y-40643823D01*
X64447421Y-40647751D01*
X64301096Y-40651376D01*
X64164195Y-40653908D01*
X63660575Y-40661897D01*
X63660575Y-40837069D01*
X64120035Y-40845107D01*
X64579495Y-40853146D01*
X64623656Y-40938543D01*
X64653981Y-41001593D01*
X64667742Y-41038910D01*
X64667816Y-41039987D01*
X64640160Y-41045124D01*
G36*
X64644844Y-41779406D02*
X64606607Y-41863469D01*
X64560274Y-41929450D01*
X64508468Y-41977794D01*
X64441637Y-42011172D01*
X64350231Y-42032253D01*
X64224699Y-42043707D01*
X64055492Y-42048203D01*
X63944067Y-42048678D01*
X63509373Y-42048678D01*
X63475491Y-41974316D01*
X63450728Y-41915746D01*
X63441609Y-41886730D01*
X63468743Y-41881179D01*
X63541906Y-41876775D01*
X63648737Y-41874078D01*
X63733563Y-41873506D01*
X63856113Y-41871046D01*
X63953332Y-41864412D01*
X64012866Y-41854726D01*
X64025517Y-41847032D01*
X64012598Y-41795311D01*
X63979461Y-41714117D01*
X63934539Y-41620102D01*
X63886265Y-41529917D01*
X63843072Y-41460215D01*
X63813392Y-41427648D01*
X63813071Y-41427519D01*
X63758143Y-41430320D01*
X63705708Y-41455439D01*
X63663119Y-41499541D01*
X63648874Y-41563909D01*
X63650534Y-41618921D01*
X63651755Y-41696835D01*
X63633502Y-41737732D01*
X63585274Y-41762295D01*
X63576180Y-41765392D01*
X63507402Y-41776040D01*
X63465640Y-41747565D01*
X63445737Y-41673344D01*
X63442056Y-41593168D01*
X63469342Y-41448890D01*
X63508310Y-41374203D01*
X63599852Y-41281963D01*
X63712218Y-41233043D01*
X63830949Y-41228654D01*
X63941589Y-41270001D01*
X64010920Y-41332197D01*
X64049735Y-41394294D01*
X64098875Y-41491895D01*
X64148708Y-41605632D01*
X64156323Y-41624590D01*
X64211455Y-41749521D01*
X64260046Y-41821539D01*
X64308353Y-41844700D01*
X64362630Y-41823064D01*
X64405057Y-41785920D01*
X64457298Y-41698127D01*
X64461216Y-41601530D01*
X64420959Y-41512944D01*
X64340674Y-41449186D01*
X64319960Y-41440817D01*
X64243775Y-41392096D01*
X64187215Y-41320965D01*
X64140799Y-41231207D01*
X64272416Y-41231207D01*
X64352832Y-41236490D01*
X64416214Y-41259142D01*
X64483837Y-41309367D01*
X64535924Y-41357582D01*
X64609678Y-41432554D01*
X64649298Y-41490806D01*
X64665190Y-41553372D01*
X64667816Y-41624193D01*
X64644844Y-41779406D01*
X64644844Y-41779406D01*
G37*
X64644844Y-41779406D02*
X64606607Y-41863469D01*
X64560274Y-41929450D01*
X64508468Y-41977794D01*
X64441637Y-42011172D01*
X64350231Y-42032253D01*
X64224699Y-42043707D01*
X64055492Y-42048203D01*
X63944067Y-42048678D01*
X63509373Y-42048678D01*
X63475491Y-41974316D01*
X63450728Y-41915746D01*
X63441609Y-41886730D01*
X63468743Y-41881179D01*
X63541906Y-41876775D01*
X63648737Y-41874078D01*
X63733563Y-41873506D01*
X63856113Y-41871046D01*
X63953332Y-41864412D01*
X64012866Y-41854726D01*
X64025517Y-41847032D01*
X64012598Y-41795311D01*
X63979461Y-41714117D01*
X63934539Y-41620102D01*
X63886265Y-41529917D01*
X63843072Y-41460215D01*
X63813392Y-41427648D01*
X63813071Y-41427519D01*
X63758143Y-41430320D01*
X63705708Y-41455439D01*
X63663119Y-41499541D01*
X63648874Y-41563909D01*
X63650534Y-41618921D01*
X63651755Y-41696835D01*
X63633502Y-41737732D01*
X63585274Y-41762295D01*
X63576180Y-41765392D01*
X63507402Y-41776040D01*
X63465640Y-41747565D01*
X63445737Y-41673344D01*
X63442056Y-41593168D01*
X63469342Y-41448890D01*
X63508310Y-41374203D01*
X63599852Y-41281963D01*
X63712218Y-41233043D01*
X63830949Y-41228654D01*
X63941589Y-41270001D01*
X64010920Y-41332197D01*
X64049735Y-41394294D01*
X64098875Y-41491895D01*
X64148708Y-41605632D01*
X64156323Y-41624590D01*
X64211455Y-41749521D01*
X64260046Y-41821539D01*
X64308353Y-41844700D01*
X64362630Y-41823064D01*
X64405057Y-41785920D01*
X64457298Y-41698127D01*
X64461216Y-41601530D01*
X64420959Y-41512944D01*
X64340674Y-41449186D01*
X64319960Y-41440817D01*
X64243775Y-41392096D01*
X64187215Y-41320965D01*
X64140799Y-41231207D01*
X64272416Y-41231207D01*
X64352832Y-41236490D01*
X64416214Y-41259142D01*
X64483837Y-41309367D01*
X64535924Y-41357582D01*
X64609678Y-41432554D01*
X64649298Y-41490806D01*
X64665190Y-41553372D01*
X64667816Y-41624193D01*
X64644844Y-41779406D01*
G36*
X64639982Y-42800690D02*
X64624731Y-42835585D01*
X64558765Y-42918877D01*
X64463382Y-42990103D01*
X64361594Y-43034153D01*
X64311413Y-43041322D01*
X64241353Y-43017285D01*
X64204283Y-42964561D01*
X64181836Y-42908031D01*
X64177700Y-42882146D01*
X64207717Y-42869542D01*
X64273039Y-42844654D01*
X64302555Y-42833735D01*
X64404652Y-42772508D01*
X64455577Y-42683861D01*
X64454011Y-42570193D01*
X64452006Y-42561774D01*
X64423233Y-42501088D01*
X64367141Y-42456474D01*
X64276837Y-42426002D01*
X64145429Y-42407744D01*
X63966026Y-42399771D01*
X63870567Y-42399023D01*
X63720087Y-42398652D01*
X63617505Y-42396223D01*
X63552328Y-42389760D01*
X63514062Y-42377288D01*
X63492215Y-42356833D01*
X63476293Y-42326419D01*
X63475491Y-42324661D01*
X63450728Y-42266091D01*
X63441609Y-42237075D01*
X63469178Y-42232616D01*
X63545380Y-42228799D01*
X63660459Y-42225899D01*
X63804659Y-42224191D01*
X63910186Y-42223851D01*
X64114387Y-42225588D01*
X64269303Y-42232382D01*
X64383976Y-42246607D01*
X64467449Y-42270638D01*
X64528764Y-42306848D01*
X64576966Y-42357612D01*
X64610607Y-42407739D01*
X64655381Y-42528275D01*
X64665479Y-42668557D01*
X64639982Y-42800690D01*
X64639982Y-42800690D01*
G37*
X64639982Y-42800690D02*
X64624731Y-42835585D01*
X64558765Y-42918877D01*
X64463382Y-42990103D01*
X64361594Y-43034153D01*
X64311413Y-43041322D01*
X64241353Y-43017285D01*
X64204283Y-42964561D01*
X64181836Y-42908031D01*
X64177700Y-42882146D01*
X64207717Y-42869542D01*
X64273039Y-42844654D01*
X64302555Y-42833735D01*
X64404652Y-42772508D01*
X64455577Y-42683861D01*
X64454011Y-42570193D01*
X64452006Y-42561774D01*
X64423233Y-42501088D01*
X64367141Y-42456474D01*
X64276837Y-42426002D01*
X64145429Y-42407744D01*
X63966026Y-42399771D01*
X63870567Y-42399023D01*
X63720087Y-42398652D01*
X63617505Y-42396223D01*
X63552328Y-42389760D01*
X63514062Y-42377288D01*
X63492215Y-42356833D01*
X63476293Y-42326419D01*
X63475491Y-42324661D01*
X63450728Y-42266091D01*
X63441609Y-42237075D01*
X63469178Y-42232616D01*
X63545380Y-42228799D01*
X63660459Y-42225899D01*
X63804659Y-42224191D01*
X63910186Y-42223851D01*
X64114387Y-42225588D01*
X64269303Y-42232382D01*
X64383976Y-42246607D01*
X64467449Y-42270638D01*
X64528764Y-42306848D01*
X64576966Y-42357612D01*
X64610607Y-42407739D01*
X64655381Y-42528275D01*
X64665479Y-42668557D01*
X64639982Y-42800690D01*
G36*
X64623460Y-43808439D02*
X64547966Y-43923950D01*
X64480383Y-43979664D01*
X64357745Y-44023804D01*
X64260702Y-44027309D01*
X64130944Y-44019368D01*
X63999961Y-43720115D01*
X63933042Y-43574611D01*
X63879210Y-43479537D01*
X63832584Y-43430101D01*
X63787280Y-43421511D01*
X63737418Y-43448972D01*
X63704368Y-43479253D01*
X63651367Y-43567363D01*
X63647653Y-43663196D01*
X63688959Y-43751212D01*
X63771017Y-43815869D01*
X63799992Y-43827433D01*
X63890491Y-43882825D01*
X63929060Y-43946553D01*
X63962054Y-44033966D01*
X63836966Y-44033966D01*
X63751844Y-44026238D01*
X63680062Y-43995966D01*
X63597644Y-43932518D01*
X63586934Y-43923088D01*
X63513609Y-43852513D01*
X63474258Y-43791847D01*
X63456155Y-43715950D01*
X63450226Y-43653030D01*
X63448749Y-43540487D01*
X63467465Y-43460370D01*
X63495253Y-43410390D01*
X63556359Y-43331838D01*
X63622446Y-43277463D01*
X63705559Y-43243052D01*
X63817746Y-43224388D01*
X63971054Y-43217256D01*
X64048864Y-43216687D01*
X64142147Y-43218622D01*
X64142147Y-43394899D01*
X64092104Y-43396944D01*
X64083908Y-43402039D01*
X64095042Y-43435666D01*
X64124507Y-43508030D01*
X64166399Y-43604747D01*
X64175403Y-43624973D01*
X64237558Y-43747203D01*
X64292185Y-43814547D01*
X64343351Y-43829348D01*
X64395124Y-43793947D01*
X64418000Y-43764711D01*
X64463750Y-43659216D01*
X64456192Y-43560476D01*
X64400349Y-43477812D01*
X64301247Y-43420548D01*
X64222586Y-43402188D01*
X64142147Y-43394899D01*
X64142147Y-43218622D01*
X64230649Y-43220459D01*
X64365147Y-43234359D01*
X64463084Y-43261894D01*
X64535189Y-43306572D01*
X64592187Y-43371901D01*
X64610607Y-43400383D01*
X64658578Y-43529763D01*
X64661597Y-43671412D01*
X64623460Y-43808439D01*
X64623460Y-43808439D01*
G37*
X64623460Y-43808439D02*
X64547966Y-43923950D01*
X64480383Y-43979664D01*
X64357745Y-44023804D01*
X64260702Y-44027309D01*
X64130944Y-44019368D01*
X63999961Y-43720115D01*
X63933042Y-43574611D01*
X63879210Y-43479537D01*
X63832584Y-43430101D01*
X63787280Y-43421511D01*
X63737418Y-43448972D01*
X63704368Y-43479253D01*
X63651367Y-43567363D01*
X63647653Y-43663196D01*
X63688959Y-43751212D01*
X63771017Y-43815869D01*
X63799992Y-43827433D01*
X63890491Y-43882825D01*
X63929060Y-43946553D01*
X63962054Y-44033966D01*
X63836966Y-44033966D01*
X63751844Y-44026238D01*
X63680062Y-43995966D01*
X63597644Y-43932518D01*
X63586934Y-43923088D01*
X63513609Y-43852513D01*
X63474258Y-43791847D01*
X63456155Y-43715950D01*
X63450226Y-43653030D01*
X63448749Y-43540487D01*
X63467465Y-43460370D01*
X63495253Y-43410390D01*
X63556359Y-43331838D01*
X63622446Y-43277463D01*
X63705559Y-43243052D01*
X63817746Y-43224388D01*
X63971054Y-43217256D01*
X64048864Y-43216687D01*
X64142147Y-43218622D01*
X64142147Y-43394899D01*
X64092104Y-43396944D01*
X64083908Y-43402039D01*
X64095042Y-43435666D01*
X64124507Y-43508030D01*
X64166399Y-43604747D01*
X64175403Y-43624973D01*
X64237558Y-43747203D01*
X64292185Y-43814547D01*
X64343351Y-43829348D01*
X64395124Y-43793947D01*
X64418000Y-43764711D01*
X64463750Y-43659216D01*
X64456192Y-43560476D01*
X64400349Y-43477812D01*
X64301247Y-43420548D01*
X64222586Y-43402188D01*
X64142147Y-43394899D01*
X64142147Y-43218622D01*
X64230649Y-43220459D01*
X64365147Y-43234359D01*
X64463084Y-43261894D01*
X64535189Y-43306572D01*
X64592187Y-43371901D01*
X64610607Y-43400383D01*
X64658578Y-43529763D01*
X64661597Y-43671412D01*
X64623460Y-43808439D01*
G36*
X74127002Y-37674014D02*
X74126137Y-37832006D01*
X74123795Y-37946347D01*
X74119238Y-38024407D01*
X74111730Y-38073554D01*
X74100534Y-38101159D01*
X74084912Y-38114592D01*
X74064127Y-38121221D01*
X74061437Y-38121865D01*
X74012887Y-38131935D01*
X73917095Y-38150575D01*
X73784257Y-38175845D01*
X73624569Y-38205807D01*
X73448226Y-38238522D01*
X73442033Y-38239664D01*
X73269218Y-38272433D01*
X73116531Y-38303093D01*
X72993129Y-38329664D01*
X72908169Y-38350167D01*
X72870810Y-38362626D01*
X72870148Y-38363220D01*
X72851905Y-38399919D01*
X72821503Y-38475586D01*
X72785507Y-38573878D01*
X72785315Y-38574425D01*
X72738778Y-38698233D01*
X72679496Y-38844196D01*
X72619891Y-38981781D01*
X72616944Y-38988293D01*
X72515235Y-39212390D01*
X72854103Y-39708619D01*
X72957408Y-39860846D01*
X73049763Y-39998741D01*
X73125916Y-40114315D01*
X73180615Y-40199579D01*
X73208607Y-40246544D01*
X73210683Y-40251004D01*
X73201440Y-40285134D01*
X73156844Y-40348881D01*
X73074791Y-40444731D01*
X72953179Y-40575169D01*
X72823795Y-40708328D01*
X72696298Y-40836694D01*
X72579954Y-40951581D01*
X72481948Y-41046073D01*
X72409464Y-41113253D01*
X72369687Y-41146206D01*
X72367639Y-41147432D01*
X72340344Y-41151074D01*
X72295766Y-41137350D01*
X72227888Y-41102869D01*
X72130689Y-41044239D01*
X71998149Y-40958070D01*
X71827524Y-40843200D01*
X71677345Y-40741254D01*
X71542650Y-40650123D01*
X71431260Y-40575073D01*
X71350995Y-40521369D01*
X71309675Y-40494280D01*
X71306870Y-40492574D01*
X71267279Y-40495882D01*
X71190331Y-40520953D01*
X71090568Y-40562798D01*
X71058709Y-40577712D01*
X70916774Y-40642786D01*
X70755727Y-40712212D01*
X70616379Y-40768609D01*
X70512956Y-40809247D01*
X70434358Y-40841526D01*
X70393280Y-40860178D01*
X70390115Y-40862497D01*
X70384872Y-40896803D01*
X70370506Y-40977669D01*
X70349063Y-41094343D01*
X70322587Y-41236075D01*
X70293123Y-41392110D01*
X70262717Y-41551698D01*
X70233412Y-41704085D01*
X70207255Y-41838521D01*
X70186290Y-41944252D01*
X70172561Y-42010526D01*
X70168680Y-42026782D01*
X70159100Y-42043573D01*
X70137464Y-42056249D01*
X70096469Y-42065378D01*
X70028811Y-42071531D01*
X69927188Y-42075280D01*
X69784297Y-42077192D01*
X69592835Y-42077840D01*
X69514355Y-42077874D01*
X68876094Y-42077874D01*
X68845840Y-41924598D01*
X68829436Y-41839322D01*
X68805491Y-41712070D01*
X68776893Y-41558315D01*
X68746533Y-41393534D01*
X68738194Y-41347989D01*
X68708630Y-41195932D01*
X68679558Y-41063468D01*
X68653671Y-40961714D01*
X68633663Y-40901788D01*
X68627699Y-40891805D01*
X68585466Y-40867293D01*
X68503630Y-40832148D01*
X68398317Y-40793173D01*
X68375632Y-40785442D01*
X68234982Y-40734360D01*
X68076286Y-40670954D01*
X67933775Y-40608904D01*
X67933114Y-40608598D01*
X67709560Y-40505267D01*
X66709768Y-41184961D01*
X66272700Y-40748621D01*
X66142619Y-40616649D01*
X66027952Y-40496279D01*
X65934819Y-40394273D01*
X65869342Y-40317391D01*
X65837643Y-40272393D01*
X65835632Y-40265938D01*
X65851471Y-40228040D01*
X65895504Y-40150708D01*
X65962510Y-40042389D01*
X66047266Y-39911532D01*
X66142184Y-39770052D01*
X66239002Y-39626461D01*
X66323249Y-39498435D01*
X66389742Y-39394105D01*
X66433298Y-39321600D01*
X66448736Y-39289158D01*
X66435672Y-39249576D01*
X66401250Y-39174519D01*
X66352620Y-39079468D01*
X66347215Y-39069392D01*
X66283020Y-38941391D01*
X66251537Y-38853618D01*
X66251202Y-38799028D01*
X66280452Y-38770575D01*
X66280862Y-38770410D01*
X66315502Y-38756188D01*
X66397731Y-38722269D01*
X66521186Y-38671284D01*
X66679502Y-38605862D01*
X66866314Y-38528634D01*
X67075258Y-38442229D01*
X67277554Y-38358551D01*
X67500800Y-38266588D01*
X67707608Y-38182150D01*
X67891638Y-38107769D01*
X68046549Y-38045974D01*
X68166004Y-37999297D01*
X68243661Y-37970268D01*
X68272644Y-37961322D01*
X68305890Y-37983756D01*
X68358877Y-38042439D01*
X68417296Y-38120689D01*
X68602048Y-38343534D01*
X68813818Y-38517718D01*
X69048144Y-38641154D01*
X69300566Y-38711754D01*
X69566623Y-38727431D01*
X69689425Y-38716036D01*
X69944207Y-38653950D01*
X70169199Y-38547023D01*
X70362183Y-38401889D01*
X70520939Y-38225178D01*
X70643250Y-38023522D01*
X70726895Y-37803554D01*
X70769656Y-37571906D01*
X70769313Y-37335209D01*
X70723648Y-37100095D01*
X70630441Y-36873196D01*
X70487473Y-36661144D01*
X70406617Y-36572636D01*
X70198993Y-36402889D01*
X69972105Y-36284699D01*
X69732567Y-36217278D01*
X69486993Y-36199840D01*
X69241997Y-36231598D01*
X69004192Y-36311765D01*
X68780193Y-36439555D01*
X68576613Y-36614180D01*
X68417296Y-36809312D01*
X68356398Y-36890591D01*
X68303985Y-36948009D01*
X68272594Y-36968678D01*
X68238361Y-36957856D01*
X68156581Y-36927077D01*
X68033593Y-36878874D01*
X67875737Y-36815778D01*
X67689351Y-36740322D01*
X67480774Y-36655038D01*
X67277504Y-36571219D01*
X67054067Y-36478745D01*
X66847016Y-36393089D01*
X66662714Y-36316882D01*
X66507525Y-36252753D01*
X66387812Y-36203332D01*
X66309939Y-36171248D01*
X66280862Y-36159359D01*
X66251323Y-36131274D01*
X66251409Y-36076949D01*
X66282674Y-35989395D01*
X66346671Y-35861619D01*
X66347215Y-35860608D01*
X66396879Y-35764402D01*
X66433055Y-35686631D01*
X66448592Y-35642777D01*
X66448736Y-35640842D01*
X66432976Y-35607829D01*
X66389150Y-35534946D01*
X66322443Y-35430322D01*
X66238036Y-35302090D01*
X66142184Y-35159948D01*
X66045133Y-35015233D01*
X65960730Y-34884804D01*
X65894199Y-34777110D01*
X65850762Y-34700598D01*
X65835632Y-34664062D01*
X65855518Y-34630418D01*
X65911097Y-34562776D01*
X65996246Y-34467893D01*
X66104847Y-34352530D01*
X66230779Y-34223445D01*
X66272851Y-34181229D01*
X66710069Y-33744739D01*
X67197660Y-34076977D01*
X67347395Y-34177946D01*
X67481780Y-34266562D01*
X67593031Y-34337854D01*
X67673361Y-34386850D01*
X67714986Y-34408578D01*
X67717947Y-34409215D01*
X67757182Y-34397760D01*
X67836105Y-34366949D01*
X67941491Y-34322116D01*
X68012046Y-34290647D01*
X68147124Y-34231808D01*
X68283591Y-34176396D01*
X68398897Y-34133436D01*
X68434023Y-34121766D01*
X68527826Y-34088611D01*
X68600306Y-34056201D01*
X68627699Y-34038399D01*
X68644464Y-33999114D01*
X68668230Y-33913374D01*
X68696303Y-33792303D01*
X68725991Y-33647027D01*
X68738194Y-33582012D01*
X68768532Y-33416913D01*
X68797907Y-33258552D01*
X68823431Y-33122404D01*
X68842215Y-33023943D01*
X68845840Y-33005402D01*
X68876094Y-32852127D01*
X69514355Y-32852127D01*
X69724230Y-32852471D01*
X69883020Y-32853884D01*
X69998027Y-32856936D01*
X70076554Y-32862197D01*
X70125904Y-32870237D01*
X70153381Y-32881627D01*
X70166287Y-32896937D01*
X70168680Y-32903218D01*
X70177167Y-32941104D01*
X70194100Y-33024805D01*
X70217434Y-33143567D01*
X70245125Y-33286639D01*
X70275127Y-33443268D01*
X70305396Y-33602703D01*
X70333885Y-33754191D01*
X70358551Y-33886981D01*
X70377349Y-33990319D01*
X70388233Y-34053455D01*
X70390115Y-34067503D01*
X70415296Y-34080230D01*
X70482378Y-34108400D01*
X70578667Y-34146748D01*
X70616379Y-34161391D01*
X70762079Y-34220452D01*
X70923049Y-34290000D01*
X71058709Y-34352288D01*
X71162439Y-34398121D01*
X71247674Y-34428613D01*
X71299874Y-34438792D01*
X71306870Y-34437169D01*
X71339898Y-34415657D01*
X71413357Y-34366535D01*
X71519423Y-34295077D01*
X71650274Y-34206555D01*
X71798088Y-34106241D01*
X71827266Y-34086406D01*
X72000137Y-33970012D01*
X72131774Y-33884452D01*
X72228239Y-33826316D01*
X72295592Y-33792192D01*
X72339894Y-33778669D01*
X72367206Y-33782336D01*
X72367380Y-33782430D01*
X72403254Y-33811293D01*
X72472609Y-33875133D01*
X72568255Y-33967031D01*
X72683001Y-34080067D01*
X72809659Y-34207321D01*
X72823795Y-34221672D01*
X72979097Y-34382043D01*
X73093130Y-34505805D01*
X73167998Y-34595445D01*
X73205804Y-34653448D01*
X73210683Y-34678996D01*
X73189397Y-34716282D01*
X73140227Y-34793657D01*
X73068425Y-34903133D01*
X72979245Y-35036720D01*
X72877937Y-35186430D01*
X72854103Y-35221382D01*
X72515235Y-35717610D01*
X72616944Y-35941707D01*
X72676217Y-36077989D01*
X72735830Y-36224276D01*
X72783360Y-36350035D01*
X72785315Y-36355575D01*
X72821323Y-36453943D01*
X72851771Y-36529771D01*
X72870095Y-36566718D01*
X72870148Y-36566780D01*
X72903271Y-36578504D01*
X72984733Y-36598432D01*
X73105375Y-36624587D01*
X73256041Y-36654990D01*
X73427572Y-36687663D01*
X73442033Y-36690336D01*
X73618765Y-36723110D01*
X73779190Y-36753198D01*
X73913112Y-36778661D01*
X74010337Y-36797559D01*
X74060668Y-36807953D01*
X74061437Y-36808135D01*
X74082847Y-36814461D01*
X74099012Y-36826761D01*
X74110669Y-36852406D01*
X74118555Y-36898765D01*
X74123407Y-36973208D01*
X74125961Y-37083105D01*
X74126955Y-37235825D01*
X74127126Y-37438738D01*
X74127126Y-37465000D01*
X74127002Y-37674014D01*
X74127002Y-37674014D01*
G37*
X74127002Y-37674014D02*
X74126137Y-37832006D01*
X74123795Y-37946347D01*
X74119238Y-38024407D01*
X74111730Y-38073554D01*
X74100534Y-38101159D01*
X74084912Y-38114592D01*
X74064127Y-38121221D01*
X74061437Y-38121865D01*
X74012887Y-38131935D01*
X73917095Y-38150575D01*
X73784257Y-38175845D01*
X73624569Y-38205807D01*
X73448226Y-38238522D01*
X73442033Y-38239664D01*
X73269218Y-38272433D01*
X73116531Y-38303093D01*
X72993129Y-38329664D01*
X72908169Y-38350167D01*
X72870810Y-38362626D01*
X72870148Y-38363220D01*
X72851905Y-38399919D01*
X72821503Y-38475586D01*
X72785507Y-38573878D01*
X72785315Y-38574425D01*
X72738778Y-38698233D01*
X72679496Y-38844196D01*
X72619891Y-38981781D01*
X72616944Y-38988293D01*
X72515235Y-39212390D01*
X72854103Y-39708619D01*
X72957408Y-39860846D01*
X73049763Y-39998741D01*
X73125916Y-40114315D01*
X73180615Y-40199579D01*
X73208607Y-40246544D01*
X73210683Y-40251004D01*
X73201440Y-40285134D01*
X73156844Y-40348881D01*
X73074791Y-40444731D01*
X72953179Y-40575169D01*
X72823795Y-40708328D01*
X72696298Y-40836694D01*
X72579954Y-40951581D01*
X72481948Y-41046073D01*
X72409464Y-41113253D01*
X72369687Y-41146206D01*
X72367639Y-41147432D01*
X72340344Y-41151074D01*
X72295766Y-41137350D01*
X72227888Y-41102869D01*
X72130689Y-41044239D01*
X71998149Y-40958070D01*
X71827524Y-40843200D01*
X71677345Y-40741254D01*
X71542650Y-40650123D01*
X71431260Y-40575073D01*
X71350995Y-40521369D01*
X71309675Y-40494280D01*
X71306870Y-40492574D01*
X71267279Y-40495882D01*
X71190331Y-40520953D01*
X71090568Y-40562798D01*
X71058709Y-40577712D01*
X70916774Y-40642786D01*
X70755727Y-40712212D01*
X70616379Y-40768609D01*
X70512956Y-40809247D01*
X70434358Y-40841526D01*
X70393280Y-40860178D01*
X70390115Y-40862497D01*
X70384872Y-40896803D01*
X70370506Y-40977669D01*
X70349063Y-41094343D01*
X70322587Y-41236075D01*
X70293123Y-41392110D01*
X70262717Y-41551698D01*
X70233412Y-41704085D01*
X70207255Y-41838521D01*
X70186290Y-41944252D01*
X70172561Y-42010526D01*
X70168680Y-42026782D01*
X70159100Y-42043573D01*
X70137464Y-42056249D01*
X70096469Y-42065378D01*
X70028811Y-42071531D01*
X69927188Y-42075280D01*
X69784297Y-42077192D01*
X69592835Y-42077840D01*
X69514355Y-42077874D01*
X68876094Y-42077874D01*
X68845840Y-41924598D01*
X68829436Y-41839322D01*
X68805491Y-41712070D01*
X68776893Y-41558315D01*
X68746533Y-41393534D01*
X68738194Y-41347989D01*
X68708630Y-41195932D01*
X68679558Y-41063468D01*
X68653671Y-40961714D01*
X68633663Y-40901788D01*
X68627699Y-40891805D01*
X68585466Y-40867293D01*
X68503630Y-40832148D01*
X68398317Y-40793173D01*
X68375632Y-40785442D01*
X68234982Y-40734360D01*
X68076286Y-40670954D01*
X67933775Y-40608904D01*
X67933114Y-40608598D01*
X67709560Y-40505267D01*
X66709768Y-41184961D01*
X66272700Y-40748621D01*
X66142619Y-40616649D01*
X66027952Y-40496279D01*
X65934819Y-40394273D01*
X65869342Y-40317391D01*
X65837643Y-40272393D01*
X65835632Y-40265938D01*
X65851471Y-40228040D01*
X65895504Y-40150708D01*
X65962510Y-40042389D01*
X66047266Y-39911532D01*
X66142184Y-39770052D01*
X66239002Y-39626461D01*
X66323249Y-39498435D01*
X66389742Y-39394105D01*
X66433298Y-39321600D01*
X66448736Y-39289158D01*
X66435672Y-39249576D01*
X66401250Y-39174519D01*
X66352620Y-39079468D01*
X66347215Y-39069392D01*
X66283020Y-38941391D01*
X66251537Y-38853618D01*
X66251202Y-38799028D01*
X66280452Y-38770575D01*
X66280862Y-38770410D01*
X66315502Y-38756188D01*
X66397731Y-38722269D01*
X66521186Y-38671284D01*
X66679502Y-38605862D01*
X66866314Y-38528634D01*
X67075258Y-38442229D01*
X67277554Y-38358551D01*
X67500800Y-38266588D01*
X67707608Y-38182150D01*
X67891638Y-38107769D01*
X68046549Y-38045974D01*
X68166004Y-37999297D01*
X68243661Y-37970268D01*
X68272644Y-37961322D01*
X68305890Y-37983756D01*
X68358877Y-38042439D01*
X68417296Y-38120689D01*
X68602048Y-38343534D01*
X68813818Y-38517718D01*
X69048144Y-38641154D01*
X69300566Y-38711754D01*
X69566623Y-38727431D01*
X69689425Y-38716036D01*
X69944207Y-38653950D01*
X70169199Y-38547023D01*
X70362183Y-38401889D01*
X70520939Y-38225178D01*
X70643250Y-38023522D01*
X70726895Y-37803554D01*
X70769656Y-37571906D01*
X70769313Y-37335209D01*
X70723648Y-37100095D01*
X70630441Y-36873196D01*
X70487473Y-36661144D01*
X70406617Y-36572636D01*
X70198993Y-36402889D01*
X69972105Y-36284699D01*
X69732567Y-36217278D01*
X69486993Y-36199840D01*
X69241997Y-36231598D01*
X69004192Y-36311765D01*
X68780193Y-36439555D01*
X68576613Y-36614180D01*
X68417296Y-36809312D01*
X68356398Y-36890591D01*
X68303985Y-36948009D01*
X68272594Y-36968678D01*
X68238361Y-36957856D01*
X68156581Y-36927077D01*
X68033593Y-36878874D01*
X67875737Y-36815778D01*
X67689351Y-36740322D01*
X67480774Y-36655038D01*
X67277504Y-36571219D01*
X67054067Y-36478745D01*
X66847016Y-36393089D01*
X66662714Y-36316882D01*
X66507525Y-36252753D01*
X66387812Y-36203332D01*
X66309939Y-36171248D01*
X66280862Y-36159359D01*
X66251323Y-36131274D01*
X66251409Y-36076949D01*
X66282674Y-35989395D01*
X66346671Y-35861619D01*
X66347215Y-35860608D01*
X66396879Y-35764402D01*
X66433055Y-35686631D01*
X66448592Y-35642777D01*
X66448736Y-35640842D01*
X66432976Y-35607829D01*
X66389150Y-35534946D01*
X66322443Y-35430322D01*
X66238036Y-35302090D01*
X66142184Y-35159948D01*
X66045133Y-35015233D01*
X65960730Y-34884804D01*
X65894199Y-34777110D01*
X65850762Y-34700598D01*
X65835632Y-34664062D01*
X65855518Y-34630418D01*
X65911097Y-34562776D01*
X65996246Y-34467893D01*
X66104847Y-34352530D01*
X66230779Y-34223445D01*
X66272851Y-34181229D01*
X66710069Y-33744739D01*
X67197660Y-34076977D01*
X67347395Y-34177946D01*
X67481780Y-34266562D01*
X67593031Y-34337854D01*
X67673361Y-34386850D01*
X67714986Y-34408578D01*
X67717947Y-34409215D01*
X67757182Y-34397760D01*
X67836105Y-34366949D01*
X67941491Y-34322116D01*
X68012046Y-34290647D01*
X68147124Y-34231808D01*
X68283591Y-34176396D01*
X68398897Y-34133436D01*
X68434023Y-34121766D01*
X68527826Y-34088611D01*
X68600306Y-34056201D01*
X68627699Y-34038399D01*
X68644464Y-33999114D01*
X68668230Y-33913374D01*
X68696303Y-33792303D01*
X68725991Y-33647027D01*
X68738194Y-33582012D01*
X68768532Y-33416913D01*
X68797907Y-33258552D01*
X68823431Y-33122404D01*
X68842215Y-33023943D01*
X68845840Y-33005402D01*
X68876094Y-32852127D01*
X69514355Y-32852127D01*
X69724230Y-32852471D01*
X69883020Y-32853884D01*
X69998027Y-32856936D01*
X70076554Y-32862197D01*
X70125904Y-32870237D01*
X70153381Y-32881627D01*
X70166287Y-32896937D01*
X70168680Y-32903218D01*
X70177167Y-32941104D01*
X70194100Y-33024805D01*
X70217434Y-33143567D01*
X70245125Y-33286639D01*
X70275127Y-33443268D01*
X70305396Y-33602703D01*
X70333885Y-33754191D01*
X70358551Y-33886981D01*
X70377349Y-33990319D01*
X70388233Y-34053455D01*
X70390115Y-34067503D01*
X70415296Y-34080230D01*
X70482378Y-34108400D01*
X70578667Y-34146748D01*
X70616379Y-34161391D01*
X70762079Y-34220452D01*
X70923049Y-34290000D01*
X71058709Y-34352288D01*
X71162439Y-34398121D01*
X71247674Y-34428613D01*
X71299874Y-34438792D01*
X71306870Y-34437169D01*
X71339898Y-34415657D01*
X71413357Y-34366535D01*
X71519423Y-34295077D01*
X71650274Y-34206555D01*
X71798088Y-34106241D01*
X71827266Y-34086406D01*
X72000137Y-33970012D01*
X72131774Y-33884452D01*
X72228239Y-33826316D01*
X72295592Y-33792192D01*
X72339894Y-33778669D01*
X72367206Y-33782336D01*
X72367380Y-33782430D01*
X72403254Y-33811293D01*
X72472609Y-33875133D01*
X72568255Y-33967031D01*
X72683001Y-34080067D01*
X72809659Y-34207321D01*
X72823795Y-34221672D01*
X72979097Y-34382043D01*
X73093130Y-34505805D01*
X73167998Y-34595445D01*
X73205804Y-34653448D01*
X73210683Y-34678996D01*
X73189397Y-34716282D01*
X73140227Y-34793657D01*
X73068425Y-34903133D01*
X72979245Y-35036720D01*
X72877937Y-35186430D01*
X72854103Y-35221382D01*
X72515235Y-35717610D01*
X72616944Y-35941707D01*
X72676217Y-36077989D01*
X72735830Y-36224276D01*
X72783360Y-36350035D01*
X72785315Y-36355575D01*
X72821323Y-36453943D01*
X72851771Y-36529771D01*
X72870095Y-36566718D01*
X72870148Y-36566780D01*
X72903271Y-36578504D01*
X72984733Y-36598432D01*
X73105375Y-36624587D01*
X73256041Y-36654990D01*
X73427572Y-36687663D01*
X73442033Y-36690336D01*
X73618765Y-36723110D01*
X73779190Y-36753198D01*
X73913112Y-36778661D01*
X74010337Y-36797559D01*
X74060668Y-36807953D01*
X74061437Y-36808135D01*
X74082847Y-36814461D01*
X74099012Y-36826761D01*
X74110669Y-36852406D01*
X74118555Y-36898765D01*
X74123407Y-36973208D01*
X74125961Y-37083105D01*
X74126955Y-37235825D01*
X74127126Y-37438738D01*
X74127126Y-37465000D01*
X74127002Y-37674014D01*
D11*
X40219333Y-36774380D02*
X39886000Y-36298190D01*
X39647904Y-36774380D02*
X39647904Y-35774380D01*
X40028857Y-35774380D01*
X40124095Y-35822000D01*
X40171714Y-35869619D01*
X40219333Y-35964857D01*
X40219333Y-36107714D01*
X40171714Y-36202952D01*
X40124095Y-36250571D01*
X40028857Y-36298190D01*
X39647904Y-36298190D01*
X40790761Y-36202952D02*
X40695523Y-36155333D01*
X40647904Y-36107714D01*
X40600285Y-36012476D01*
X40600285Y-35964857D01*
X40647904Y-35869619D01*
X40695523Y-35822000D01*
X40790761Y-35774380D01*
X40981238Y-35774380D01*
X41076476Y-35822000D01*
X41124095Y-35869619D01*
X41171714Y-35964857D01*
X41171714Y-36012476D01*
X41124095Y-36107714D01*
X41076476Y-36155333D01*
X40981238Y-36202952D01*
X40790761Y-36202952D01*
X40695523Y-36250571D01*
X40647904Y-36298190D01*
X40600285Y-36393428D01*
X40600285Y-36583904D01*
X40647904Y-36679142D01*
X40695523Y-36726761D01*
X40790761Y-36774380D01*
X40981238Y-36774380D01*
X41076476Y-36726761D01*
X41124095Y-36679142D01*
X41171714Y-36583904D01*
X41171714Y-36393428D01*
X41124095Y-36298190D01*
X41076476Y-36250571D01*
X40981238Y-36202952D01*
X72334380Y-16232095D02*
X71334380Y-16232095D01*
X71334380Y-15994000D01*
X71382000Y-15851142D01*
X71477238Y-15755904D01*
X71572476Y-15708285D01*
X71762952Y-15660666D01*
X71905809Y-15660666D01*
X72096285Y-15708285D01*
X72191523Y-15755904D01*
X72286761Y-15851142D01*
X72334380Y-15994000D01*
X72334380Y-16232095D01*
X72334380Y-14708285D02*
X72334380Y-15279714D01*
X72334380Y-14994000D02*
X71334380Y-14994000D01*
X71477238Y-15089238D01*
X71572476Y-15184476D01*
X71620095Y-15279714D01*
X39457380Y-25098333D02*
X40171666Y-25098333D01*
X40314523Y-25145952D01*
X40409761Y-25241190D01*
X40457380Y-25384047D01*
X40457380Y-25479285D01*
X40457380Y-24098333D02*
X40457380Y-24669761D01*
X40457380Y-24384047D02*
X39457380Y-24384047D01*
X39600238Y-24479285D01*
X39695476Y-24574523D01*
X39743095Y-24669761D01*
X72477380Y-32083333D02*
X73191666Y-32083333D01*
X73334523Y-32130952D01*
X73429761Y-32226190D01*
X73477380Y-32369047D01*
X73477380Y-32464285D01*
X72572619Y-31654761D02*
X72525000Y-31607142D01*
X72477380Y-31511904D01*
X72477380Y-31273809D01*
X72525000Y-31178571D01*
X72572619Y-31130952D01*
X72667857Y-31083333D01*
X72763095Y-31083333D01*
X72905952Y-31130952D01*
X73477380Y-31702380D01*
X73477380Y-31083333D01*
X22780666Y-10882380D02*
X22780666Y-11596666D01*
X22733047Y-11739523D01*
X22637809Y-11834761D01*
X22494952Y-11882380D01*
X22399714Y-11882380D01*
X23161619Y-10882380D02*
X23780666Y-10882380D01*
X23447333Y-11263333D01*
X23590190Y-11263333D01*
X23685428Y-11310952D01*
X23733047Y-11358571D01*
X23780666Y-11453809D01*
X23780666Y-11691904D01*
X23733047Y-11787142D01*
X23685428Y-11834761D01*
X23590190Y-11882380D01*
X23304476Y-11882380D01*
X23209238Y-11834761D01*
X23161619Y-11787142D01*
X47672666Y-10882380D02*
X47672666Y-11596666D01*
X47625047Y-11739523D01*
X47529809Y-11834761D01*
X47386952Y-11882380D01*
X47291714Y-11882380D01*
X48577428Y-11215714D02*
X48577428Y-11882380D01*
X48339333Y-10834761D02*
X48101238Y-11549047D01*
X48720285Y-11549047D01*
X47672666Y-37806380D02*
X47672666Y-38520666D01*
X47625047Y-38663523D01*
X47529809Y-38758761D01*
X47386952Y-38806380D01*
X47291714Y-38806380D01*
X48625047Y-37806380D02*
X48148857Y-37806380D01*
X48101238Y-38282571D01*
X48148857Y-38234952D01*
X48244095Y-38187333D01*
X48482190Y-38187333D01*
X48577428Y-38234952D01*
X48625047Y-38282571D01*
X48672666Y-38377809D01*
X48672666Y-38615904D01*
X48625047Y-38711142D01*
X48577428Y-38758761D01*
X48482190Y-38806380D01*
X48244095Y-38806380D01*
X48148857Y-38758761D01*
X48101238Y-38711142D01*
X22780666Y-37806380D02*
X22780666Y-38520666D01*
X22733047Y-38663523D01*
X22637809Y-38758761D01*
X22494952Y-38806380D01*
X22399714Y-38806380D01*
X23685428Y-37806380D02*
X23494952Y-37806380D01*
X23399714Y-37854000D01*
X23352095Y-37901619D01*
X23256857Y-38044476D01*
X23209238Y-38234952D01*
X23209238Y-38615904D01*
X23256857Y-38711142D01*
X23304476Y-38758761D01*
X23399714Y-38806380D01*
X23590190Y-38806380D01*
X23685428Y-38758761D01*
X23733047Y-38711142D01*
X23780666Y-38615904D01*
X23780666Y-38377809D01*
X23733047Y-38282571D01*
X23685428Y-38234952D01*
X23590190Y-38187333D01*
X23399714Y-38187333D01*
X23304476Y-38234952D01*
X23256857Y-38282571D01*
X23209238Y-38377809D01*
X9810761Y-7659619D02*
X9715523Y-7612000D01*
X9620285Y-7516761D01*
X9477428Y-7373904D01*
X9382190Y-7326285D01*
X9286952Y-7326285D01*
X9334571Y-7564380D02*
X9239333Y-7516761D01*
X9144095Y-7421523D01*
X9096476Y-7231047D01*
X9096476Y-6897714D01*
X9144095Y-6707238D01*
X9239333Y-6612000D01*
X9334571Y-6564380D01*
X9525047Y-6564380D01*
X9620285Y-6612000D01*
X9715523Y-6707238D01*
X9763142Y-6897714D01*
X9763142Y-7231047D01*
X9715523Y-7421523D01*
X9620285Y-7516761D01*
X9525047Y-7564380D01*
X9334571Y-7564380D01*
X10715523Y-7564380D02*
X10144095Y-7564380D01*
X10429809Y-7564380D02*
X10429809Y-6564380D01*
X10334571Y-6707238D01*
X10239333Y-6802476D01*
X10144095Y-6850095D01*
X61118761Y-7786619D02*
X61023523Y-7739000D01*
X60928285Y-7643761D01*
X60785428Y-7500904D01*
X60690190Y-7453285D01*
X60594952Y-7453285D01*
X60642571Y-7691380D02*
X60547333Y-7643761D01*
X60452095Y-7548523D01*
X60404476Y-7358047D01*
X60404476Y-7024714D01*
X60452095Y-6834238D01*
X60547333Y-6739000D01*
X60642571Y-6691380D01*
X60833047Y-6691380D01*
X60928285Y-6739000D01*
X61023523Y-6834238D01*
X61071142Y-7024714D01*
X61071142Y-7358047D01*
X61023523Y-7548523D01*
X60928285Y-7643761D01*
X60833047Y-7691380D01*
X60642571Y-7691380D01*
X61452095Y-6786619D02*
X61499714Y-6739000D01*
X61594952Y-6691380D01*
X61833047Y-6691380D01*
X61928285Y-6739000D01*
X61975904Y-6786619D01*
X62023523Y-6881857D01*
X62023523Y-6977095D01*
X61975904Y-7119952D01*
X61404476Y-7691380D01*
X62023523Y-7691380D01*
X61118761Y-43473619D02*
X61023523Y-43426000D01*
X60928285Y-43330761D01*
X60785428Y-43187904D01*
X60690190Y-43140285D01*
X60594952Y-43140285D01*
X60642571Y-43378380D02*
X60547333Y-43330761D01*
X60452095Y-43235523D01*
X60404476Y-43045047D01*
X60404476Y-42711714D01*
X60452095Y-42521238D01*
X60547333Y-42426000D01*
X60642571Y-42378380D01*
X60833047Y-42378380D01*
X60928285Y-42426000D01*
X61023523Y-42521238D01*
X61071142Y-42711714D01*
X61071142Y-43045047D01*
X61023523Y-43235523D01*
X60928285Y-43330761D01*
X60833047Y-43378380D01*
X60642571Y-43378380D01*
X61404476Y-42378380D02*
X62023523Y-42378380D01*
X61690190Y-42759333D01*
X61833047Y-42759333D01*
X61928285Y-42806952D01*
X61975904Y-42854571D01*
X62023523Y-42949809D01*
X62023523Y-43187904D01*
X61975904Y-43283142D01*
X61928285Y-43330761D01*
X61833047Y-43378380D01*
X61547333Y-43378380D01*
X61452095Y-43330761D01*
X61404476Y-43283142D01*
X9810761Y-43473619D02*
X9715523Y-43426000D01*
X9620285Y-43330761D01*
X9477428Y-43187904D01*
X9382190Y-43140285D01*
X9286952Y-43140285D01*
X9334571Y-43378380D02*
X9239333Y-43330761D01*
X9144095Y-43235523D01*
X9096476Y-43045047D01*
X9096476Y-42711714D01*
X9144095Y-42521238D01*
X9239333Y-42426000D01*
X9334571Y-42378380D01*
X9525047Y-42378380D01*
X9620285Y-42426000D01*
X9715523Y-42521238D01*
X9763142Y-42711714D01*
X9763142Y-43045047D01*
X9715523Y-43235523D01*
X9620285Y-43330761D01*
X9525047Y-43378380D01*
X9334571Y-43378380D01*
X10620285Y-42711714D02*
X10620285Y-43378380D01*
X10382190Y-42330761D02*
X10144095Y-43045047D01*
X10763142Y-43045047D01*
X30567333Y-22550380D02*
X30234000Y-22074190D01*
X29995904Y-22550380D02*
X29995904Y-21550380D01*
X30376857Y-21550380D01*
X30472095Y-21598000D01*
X30519714Y-21645619D01*
X30567333Y-21740857D01*
X30567333Y-21883714D01*
X30519714Y-21978952D01*
X30472095Y-22026571D01*
X30376857Y-22074190D01*
X29995904Y-22074190D01*
X31519714Y-22550380D02*
X30948285Y-22550380D01*
X31234000Y-22550380D02*
X31234000Y-21550380D01*
X31138761Y-21693238D01*
X31043523Y-21788476D01*
X30948285Y-21836095D01*
X40219333Y-22550380D02*
X39886000Y-22074190D01*
X39647904Y-22550380D02*
X39647904Y-21550380D01*
X40028857Y-21550380D01*
X40124095Y-21598000D01*
X40171714Y-21645619D01*
X40219333Y-21740857D01*
X40219333Y-21883714D01*
X40171714Y-21978952D01*
X40124095Y-22026571D01*
X40028857Y-22074190D01*
X39647904Y-22074190D01*
X40600285Y-21645619D02*
X40647904Y-21598000D01*
X40743142Y-21550380D01*
X40981238Y-21550380D01*
X41076476Y-21598000D01*
X41124095Y-21645619D01*
X41171714Y-21740857D01*
X41171714Y-21836095D01*
X41124095Y-21978952D01*
X40552666Y-22550380D01*
X41171714Y-22550380D01*
X40219333Y-28138380D02*
X39886000Y-27662190D01*
X39647904Y-28138380D02*
X39647904Y-27138380D01*
X40028857Y-27138380D01*
X40124095Y-27186000D01*
X40171714Y-27233619D01*
X40219333Y-27328857D01*
X40219333Y-27471714D01*
X40171714Y-27566952D01*
X40124095Y-27614571D01*
X40028857Y-27662190D01*
X39647904Y-27662190D01*
X40552666Y-27138380D02*
X41171714Y-27138380D01*
X40838380Y-27519333D01*
X40981238Y-27519333D01*
X41076476Y-27566952D01*
X41124095Y-27614571D01*
X41171714Y-27709809D01*
X41171714Y-27947904D01*
X41124095Y-28043142D01*
X41076476Y-28090761D01*
X40981238Y-28138380D01*
X40695523Y-28138380D01*
X40600285Y-28090761D01*
X40552666Y-28043142D01*
X30567333Y-28138380D02*
X30234000Y-27662190D01*
X29995904Y-28138380D02*
X29995904Y-27138380D01*
X30376857Y-27138380D01*
X30472095Y-27186000D01*
X30519714Y-27233619D01*
X30567333Y-27328857D01*
X30567333Y-27471714D01*
X30519714Y-27566952D01*
X30472095Y-27614571D01*
X30376857Y-27662190D01*
X29995904Y-27662190D01*
X31424476Y-27471714D02*
X31424476Y-28138380D01*
X31186380Y-27090761D02*
X30948285Y-27805047D01*
X31567333Y-27805047D01*
X66492380Y-12231666D02*
X66016190Y-12565000D01*
X66492380Y-12803095D02*
X65492380Y-12803095D01*
X65492380Y-12422142D01*
X65540000Y-12326904D01*
X65587619Y-12279285D01*
X65682857Y-12231666D01*
X65825714Y-12231666D01*
X65920952Y-12279285D01*
X65968571Y-12326904D01*
X66016190Y-12422142D01*
X66016190Y-12803095D01*
X65492380Y-11326904D02*
X65492380Y-11803095D01*
X65968571Y-11850714D01*
X65920952Y-11803095D01*
X65873333Y-11707857D01*
X65873333Y-11469761D01*
X65920952Y-11374523D01*
X65968571Y-11326904D01*
X66063809Y-11279285D01*
X66301904Y-11279285D01*
X66397142Y-11326904D01*
X66444761Y-11374523D01*
X66492380Y-11469761D01*
X66492380Y-11707857D01*
X66444761Y-11803095D01*
X66397142Y-11850714D01*
X30567333Y-13914380D02*
X30234000Y-13438190D01*
X29995904Y-13914380D02*
X29995904Y-12914380D01*
X30376857Y-12914380D01*
X30472095Y-12962000D01*
X30519714Y-13009619D01*
X30567333Y-13104857D01*
X30567333Y-13247714D01*
X30519714Y-13342952D01*
X30472095Y-13390571D01*
X30376857Y-13438190D01*
X29995904Y-13438190D01*
X31424476Y-12914380D02*
X31234000Y-12914380D01*
X31138761Y-12962000D01*
X31091142Y-13009619D01*
X30995904Y-13152476D01*
X30948285Y-13342952D01*
X30948285Y-13723904D01*
X30995904Y-13819142D01*
X31043523Y-13866761D01*
X31138761Y-13914380D01*
X31329238Y-13914380D01*
X31424476Y-13866761D01*
X31472095Y-13819142D01*
X31519714Y-13723904D01*
X31519714Y-13485809D01*
X31472095Y-13390571D01*
X31424476Y-13342952D01*
X31329238Y-13295333D01*
X31138761Y-13295333D01*
X31043523Y-13342952D01*
X30995904Y-13390571D01*
X30948285Y-13485809D01*
X40219333Y-13914380D02*
X39886000Y-13438190D01*
X39647904Y-13914380D02*
X39647904Y-12914380D01*
X40028857Y-12914380D01*
X40124095Y-12962000D01*
X40171714Y-13009619D01*
X40219333Y-13104857D01*
X40219333Y-13247714D01*
X40171714Y-13342952D01*
X40124095Y-13390571D01*
X40028857Y-13438190D01*
X39647904Y-13438190D01*
X40552666Y-12914380D02*
X41219333Y-12914380D01*
X40790761Y-13914380D01*
X30567333Y-36774380D02*
X30234000Y-36298190D01*
X29995904Y-36774380D02*
X29995904Y-35774380D01*
X30376857Y-35774380D01*
X30472095Y-35822000D01*
X30519714Y-35869619D01*
X30567333Y-35964857D01*
X30567333Y-36107714D01*
X30519714Y-36202952D01*
X30472095Y-36250571D01*
X30376857Y-36298190D01*
X29995904Y-36298190D01*
X31043523Y-36774380D02*
X31234000Y-36774380D01*
X31329238Y-36726761D01*
X31376857Y-36679142D01*
X31472095Y-36536285D01*
X31519714Y-36345809D01*
X31519714Y-35964857D01*
X31472095Y-35869619D01*
X31424476Y-35822000D01*
X31329238Y-35774380D01*
X31138761Y-35774380D01*
X31043523Y-35822000D01*
X30995904Y-35869619D01*
X30948285Y-35964857D01*
X30948285Y-36202952D01*
X30995904Y-36298190D01*
X31043523Y-36345809D01*
X31138761Y-36393428D01*
X31329238Y-36393428D01*
X31424476Y-36345809D01*
X31472095Y-36298190D01*
X31519714Y-36202952D01*
X29972095Y-17486380D02*
X29972095Y-18295904D01*
X30019714Y-18391142D01*
X30067333Y-18438761D01*
X30162571Y-18486380D01*
X30353047Y-18486380D01*
X30448285Y-18438761D01*
X30495904Y-18391142D01*
X30543523Y-18295904D01*
X30543523Y-17486380D01*
X31543523Y-18486380D02*
X30972095Y-18486380D01*
X31257809Y-18486380D02*
X31257809Y-17486380D01*
X31162571Y-17629238D01*
X31067333Y-17724476D01*
X30972095Y-17772095D01*
X39624095Y-17486380D02*
X39624095Y-18295904D01*
X39671714Y-18391142D01*
X39719333Y-18438761D01*
X39814571Y-18486380D01*
X40005047Y-18486380D01*
X40100285Y-18438761D01*
X40147904Y-18391142D01*
X40195523Y-18295904D01*
X40195523Y-17486380D01*
X40624095Y-17581619D02*
X40671714Y-17534000D01*
X40766952Y-17486380D01*
X41005047Y-17486380D01*
X41100285Y-17534000D01*
X41147904Y-17581619D01*
X41195523Y-17676857D01*
X41195523Y-17772095D01*
X41147904Y-17914952D01*
X40576476Y-18486380D01*
X41195523Y-18486380D01*
X39624095Y-31710380D02*
X39624095Y-32519904D01*
X39671714Y-32615142D01*
X39719333Y-32662761D01*
X39814571Y-32710380D01*
X40005047Y-32710380D01*
X40100285Y-32662761D01*
X40147904Y-32615142D01*
X40195523Y-32519904D01*
X40195523Y-31710380D01*
X40576476Y-31710380D02*
X41195523Y-31710380D01*
X40862190Y-32091333D01*
X41005047Y-32091333D01*
X41100285Y-32138952D01*
X41147904Y-32186571D01*
X41195523Y-32281809D01*
X41195523Y-32519904D01*
X41147904Y-32615142D01*
X41100285Y-32662761D01*
X41005047Y-32710380D01*
X40719333Y-32710380D01*
X40624095Y-32662761D01*
X40576476Y-32615142D01*
X29972095Y-31710380D02*
X29972095Y-32519904D01*
X30019714Y-32615142D01*
X30067333Y-32662761D01*
X30162571Y-32710380D01*
X30353047Y-32710380D01*
X30448285Y-32662761D01*
X30495904Y-32615142D01*
X30543523Y-32519904D01*
X30543523Y-31710380D01*
X31448285Y-32043714D02*
X31448285Y-32710380D01*
X31210190Y-31662761D02*
X30972095Y-32377047D01*
X31591142Y-32377047D01*
X20010380Y-6072095D02*
X19010380Y-6072095D01*
X19010380Y-5834000D01*
X19058000Y-5691142D01*
X19153238Y-5595904D01*
X19248476Y-5548285D01*
X19438952Y-5500666D01*
X19581809Y-5500666D01*
X19772285Y-5548285D01*
X19867523Y-5595904D01*
X19962761Y-5691142D01*
X20010380Y-5834000D01*
X20010380Y-6072095D01*
X19105619Y-5119714D02*
X19058000Y-5072095D01*
X19010380Y-4976857D01*
X19010380Y-4738761D01*
X19058000Y-4643523D01*
X19105619Y-4595904D01*
X19200857Y-4548285D01*
X19296095Y-4548285D01*
X19438952Y-4595904D01*
X20010380Y-5167333D01*
X20010380Y-4548285D01*
X52014380Y-6072095D02*
X51014380Y-6072095D01*
X51014380Y-5834000D01*
X51062000Y-5691142D01*
X51157238Y-5595904D01*
X51252476Y-5548285D01*
X51442952Y-5500666D01*
X51585809Y-5500666D01*
X51776285Y-5548285D01*
X51871523Y-5595904D01*
X51966761Y-5691142D01*
X52014380Y-5834000D01*
X52014380Y-6072095D01*
X51014380Y-5167333D02*
X51014380Y-4548285D01*
X51395333Y-4881619D01*
X51395333Y-4738761D01*
X51442952Y-4643523D01*
X51490571Y-4595904D01*
X51585809Y-4548285D01*
X51823904Y-4548285D01*
X51919142Y-4595904D01*
X51966761Y-4643523D01*
X52014380Y-4738761D01*
X52014380Y-5024476D01*
X51966761Y-5119714D01*
X51919142Y-5167333D01*
X52014380Y-45696095D02*
X51014380Y-45696095D01*
X51014380Y-45458000D01*
X51062000Y-45315142D01*
X51157238Y-45219904D01*
X51252476Y-45172285D01*
X51442952Y-45124666D01*
X51585809Y-45124666D01*
X51776285Y-45172285D01*
X51871523Y-45219904D01*
X51966761Y-45315142D01*
X52014380Y-45458000D01*
X52014380Y-45696095D01*
X51347714Y-44267523D02*
X52014380Y-44267523D01*
X50966761Y-44505619D02*
X51681047Y-44743714D01*
X51681047Y-44124666D01*
X20010380Y-45696095D02*
X19010380Y-45696095D01*
X19010380Y-45458000D01*
X19058000Y-45315142D01*
X19153238Y-45219904D01*
X19248476Y-45172285D01*
X19438952Y-45124666D01*
X19581809Y-45124666D01*
X19772285Y-45172285D01*
X19867523Y-45219904D01*
X19962761Y-45315142D01*
X20010380Y-45458000D01*
X20010380Y-45696095D01*
X19010380Y-44219904D02*
X19010380Y-44696095D01*
X19486571Y-44743714D01*
X19438952Y-44696095D01*
X19391333Y-44600857D01*
X19391333Y-44362761D01*
X19438952Y-44267523D01*
X19486571Y-44219904D01*
X19581809Y-44172285D01*
X19819904Y-44172285D01*
X19915142Y-44219904D01*
X19962761Y-44267523D01*
X20010380Y-44362761D01*
X20010380Y-44600857D01*
X19962761Y-44696095D01*
X19915142Y-44743714D01*
M02*
