M48
;DRILL file {KiCad (5.0.0)} date 12/15/18 00:11:37
;FORMAT={-:-/ absolute / inch / decimal}
FMAT,2
INCH,TZ
T1C0.0276
T2C0.0315
T3C0.0354
T4C0.0394
T5C0.0669
T6C0.1260
%
G90
G05
M72
T1
X1.13Y-0.87
X1.67Y-0.87
X1.97Y-0.87
X1.67Y-1.09
X1.97Y-1.09
X0.83Y-1.43
X1.13Y-1.43
X0.83Y-0.53
X1.13Y-0.53
X0.83Y-1.09
X1.13Y-1.09
X2.675Y-0.325
X2.675Y-0.625
X1.67Y-1.43
X1.97Y-1.43
X0.83Y-0.87
X1.67Y-0.53
X1.97Y-0.53
T2
X0.83Y-0.65
X0.83Y-0.75
X1.13Y-0.65
X1.13Y-0.75
X1.67Y-0.65
X1.67Y-0.75
X1.97Y-0.65
X1.97Y-0.75
X1.67Y-1.21
X1.67Y-1.31
X1.97Y-1.21
X1.97Y-1.31
X0.85Y-1.6
X0.85Y-1.9
X1.95Y-1.6
X1.95Y-1.9
X0.83Y-1.21
X0.83Y-1.31
X1.13Y-1.21
X1.13Y-1.31
X1.95Y-0.075
X1.95Y-0.375
X0.85Y-0.075
X0.85Y-0.375
T3
X2.825Y-0.425
X2.825Y-0.525
T4
X0.45Y-1.8
X0.55Y-1.8
X0.65Y-1.8
X2.15Y-0.17
X2.25Y-0.17
X2.35Y-0.17
X0.45Y-0.17
X0.55Y-0.17
X0.65Y-0.17
X1.41Y-0.77
X1.41Y-0.8684
X1.41Y-0.9669
X1.41Y-1.0653
X1.41Y-1.1637
X2.15Y-1.8
X2.25Y-1.8
X2.35Y-1.8
T5
X1.438Y-1.7
X1.594Y-1.7
X1.75Y-1.7
X1.6Y-0.25
X1.756Y-0.25
X1.044Y-1.7
X1.2Y-1.7
X1.05Y-0.25
X1.206Y-0.25
X1.362Y-0.25
X2.7Y-0.8
X2.7Y-0.956
X2.7Y-1.112
T6
X2.7953Y-0.1575
X2.7953Y-1.811
X0.1575Y-1.811
X0.1575Y-0.1575
T0
M30
