%TF.GenerationSoftware,KiCad,Pcbnew,(5.0.0)*%
%TF.CreationDate,2018-12-15T00:11:35+01:00*%
%TF.ProjectId,high-voltage_driver_V1.0,686967682D766F6C746167655F647269,1.0*%
%TF.SameCoordinates,PXfbec30PYfbec30*%
%TF.FileFunction,Soldermask,Bot*%
%TF.FilePolarity,Negative*%
%FSLAX46Y46*%
G04 Gerber Fmt 4.6, Leading zero omitted, Abs format (unit mm)*
G04 Created by KiCad (PCBNEW (5.0.0)) date 12/15/18 00:11:35*
%MOMM*%
%LPD*%
G01*
G04 APERTURE LIST*
%ADD10C,0.150000*%
%ADD11C,1.800000*%
%ADD12O,1.800000X1.800000*%
%ADD13R,2.200000X2.200000*%
%ADD14C,2.200000*%
%ADD15R,2.150000X2.150000*%
%ADD16C,2.150000*%
%ADD17R,4.400000X3.400000*%
%ADD18O,4.400000X3.400000*%
%ADD19R,3.400000X4.400000*%
%ADD20O,3.400000X4.400000*%
%ADD21O,3.900000X3.900000*%
%ADD22O,2.200000X2.200000*%
%ADD23R,2.000000X2.000000*%
%ADD24O,2.000000X2.000000*%
%ADD25C,5.900000*%
G04 APERTURE END LIST*
D10*
X75000000Y-50000000D02*
X0Y-50000000D01*
X75000000Y0D02*
X75000000Y-50000000D01*
X0Y0D02*
X0Y-50000000D01*
X0Y0D02*
X75000000Y0D01*
D11*
X42418000Y-36322000D03*
D12*
X50038000Y-36322000D03*
D13*
X71755000Y-13335000D03*
D14*
X71755000Y-10795000D03*
D15*
X35814000Y-19558000D03*
D16*
X35814000Y-22058000D03*
X35814000Y-24558000D03*
X35814000Y-27058000D03*
X35814000Y-29558000D03*
D17*
X68580000Y-20320000D03*
D18*
X68580000Y-24282400D03*
X68580000Y-28244800D03*
D19*
X26670000Y-6350000D03*
D20*
X30632400Y-6350000D03*
X34594800Y-6350000D03*
D19*
X40640000Y-6350000D03*
D20*
X44602400Y-6350000D03*
D19*
X44450000Y-43180000D03*
D20*
X40487600Y-43180000D03*
X36525200Y-43180000D03*
D19*
X30480000Y-43180000D03*
D20*
X26517600Y-43180000D03*
D21*
X13970000Y-20978000D03*
D13*
X16510000Y-4318000D03*
D22*
X13970000Y-4318000D03*
X11430000Y-4318000D03*
D21*
X57150000Y-20978000D03*
D13*
X59690000Y-4318000D03*
D22*
X57150000Y-4318000D03*
X54610000Y-4318000D03*
D21*
X57150000Y-29060000D03*
D13*
X54610000Y-45720000D03*
D22*
X57150000Y-45720000D03*
X59690000Y-45720000D03*
D21*
X13970000Y-29060000D03*
D13*
X11430000Y-45720000D03*
D22*
X13970000Y-45720000D03*
X16510000Y-45720000D03*
D11*
X28702000Y-22098000D03*
D12*
X21082000Y-22098000D03*
D11*
X42418000Y-22098000D03*
D12*
X50038000Y-22098000D03*
D11*
X42418000Y-27686000D03*
D12*
X50038000Y-27686000D03*
D11*
X28702000Y-27686000D03*
D12*
X21082000Y-27686000D03*
D11*
X67945000Y-8255000D03*
D12*
X67945000Y-15875000D03*
D11*
X28702000Y-13462000D03*
D12*
X21082000Y-13462000D03*
D11*
X42418000Y-13462000D03*
D12*
X50038000Y-13462000D03*
D11*
X28702000Y-36322000D03*
D12*
X21082000Y-36322000D03*
D23*
X28702000Y-19050000D03*
D24*
X21082000Y-16510000D03*
X28702000Y-16510000D03*
X21082000Y-19050000D03*
D23*
X42418000Y-16510000D03*
D24*
X50038000Y-19050000D03*
X42418000Y-19050000D03*
X50038000Y-16510000D03*
D23*
X42418000Y-30734000D03*
D24*
X50038000Y-33274000D03*
X42418000Y-33274000D03*
X50038000Y-30734000D03*
D23*
X28702000Y-33274000D03*
D24*
X21082000Y-30734000D03*
X28702000Y-30734000D03*
X21082000Y-33274000D03*
D25*
X4000000Y-4000000D03*
X71000000Y-4000000D03*
X4000000Y-46000000D03*
X71000000Y-46000000D03*
D23*
X21590000Y-9525000D03*
D24*
X21590000Y-1905000D03*
D23*
X49530000Y-9525000D03*
D24*
X49530000Y-1905000D03*
D23*
X49530000Y-40640000D03*
D24*
X49530000Y-48260000D03*
D23*
X21590000Y-40640000D03*
D24*
X21590000Y-48260000D03*
M02*
