%TF.GenerationSoftware,KiCad,Pcbnew,(5.0.0)*%
%TF.CreationDate,2018-12-15T00:11:35+01:00*%
%TF.ProjectId,high-voltage_driver_V1.0,686967682D766F6C746167655F647269,1.0*%
%TF.SameCoordinates,PXfbec30PYfbec30*%
%TF.FileFunction,Copper,L2,Bot,Signal*%
%TF.FilePolarity,Positive*%
%FSLAX46Y46*%
G04 Gerber Fmt 4.6, Leading zero omitted, Abs format (unit mm)*
G04 Created by KiCad (PCBNEW (5.0.0)) date 12/15/18 00:11:35*
%MOMM*%
%LPD*%
G01*
G04 APERTURE LIST*
%ADD10C,0.150000*%
%ADD11C,1.400000*%
%ADD12O,1.400000X1.400000*%
%ADD13R,1.800000X1.800000*%
%ADD14C,1.800000*%
%ADD15R,1.750000X1.750000*%
%ADD16C,1.750000*%
%ADD17R,4.000000X3.000000*%
%ADD18O,4.000000X3.000000*%
%ADD19R,3.000000X4.000000*%
%ADD20O,3.000000X4.000000*%
%ADD21O,1.800000X1.800000*%
%ADD22R,1.600000X1.600000*%
%ADD23O,1.600000X1.600000*%
%ADD24C,5.500000*%
%ADD25C,0.500000*%
%ADD26C,0.254000*%
G04 APERTURE END LIST*
D10*
X75000000Y-50000000D02*
X0Y-50000000D01*
X75000000Y0D02*
X75000000Y-50000000D01*
X0Y0D02*
X0Y-50000000D01*
X0Y0D02*
X75000000Y0D01*
D11*
X42418000Y-36322000D03*
D12*
X50038000Y-36322000D03*
D13*
X71755000Y-13335000D03*
D14*
X71755000Y-10795000D03*
D15*
X35814000Y-19558000D03*
D16*
X35814000Y-22058000D03*
X35814000Y-24558000D03*
X35814000Y-27058000D03*
X35814000Y-29558000D03*
D17*
X68580000Y-20320000D03*
D18*
X68580000Y-24282400D03*
X68580000Y-28244800D03*
D19*
X26670000Y-6350000D03*
D20*
X30632400Y-6350000D03*
X34594800Y-6350000D03*
D19*
X40640000Y-6350000D03*
D20*
X44602400Y-6350000D03*
D19*
X44450000Y-43180000D03*
D20*
X40487600Y-43180000D03*
X36525200Y-43180000D03*
D19*
X30480000Y-43180000D03*
D20*
X26517600Y-43180000D03*
D13*
X16510000Y-4318000D03*
D21*
X13970000Y-4318000D03*
X11430000Y-4318000D03*
D13*
X59690000Y-4318000D03*
D21*
X57150000Y-4318000D03*
X54610000Y-4318000D03*
D13*
X54610000Y-45720000D03*
D21*
X57150000Y-45720000D03*
X59690000Y-45720000D03*
D13*
X11430000Y-45720000D03*
D21*
X13970000Y-45720000D03*
X16510000Y-45720000D03*
D11*
X28702000Y-22098000D03*
D12*
X21082000Y-22098000D03*
D11*
X42418000Y-22098000D03*
D12*
X50038000Y-22098000D03*
D11*
X42418000Y-27686000D03*
D12*
X50038000Y-27686000D03*
D11*
X28702000Y-27686000D03*
D12*
X21082000Y-27686000D03*
D11*
X67945000Y-8255000D03*
D12*
X67945000Y-15875000D03*
D11*
X28702000Y-13462000D03*
D12*
X21082000Y-13462000D03*
D11*
X42418000Y-13462000D03*
D12*
X50038000Y-13462000D03*
D11*
X28702000Y-36322000D03*
D12*
X21082000Y-36322000D03*
D22*
X28702000Y-19050000D03*
D23*
X21082000Y-16510000D03*
X28702000Y-16510000D03*
X21082000Y-19050000D03*
D22*
X42418000Y-16510000D03*
D23*
X50038000Y-19050000D03*
X42418000Y-19050000D03*
X50038000Y-16510000D03*
D22*
X42418000Y-30734000D03*
D23*
X50038000Y-33274000D03*
X42418000Y-33274000D03*
X50038000Y-30734000D03*
D22*
X28702000Y-33274000D03*
D23*
X21082000Y-30734000D03*
X28702000Y-30734000D03*
X21082000Y-33274000D03*
D24*
X4000000Y-4000000D03*
X71000000Y-4000000D03*
X4000000Y-46000000D03*
X71000000Y-46000000D03*
D22*
X21590000Y-9525000D03*
D23*
X21590000Y-1905000D03*
D22*
X49530000Y-9525000D03*
D23*
X49530000Y-1905000D03*
D22*
X49530000Y-40640000D03*
D23*
X49530000Y-48260000D03*
D22*
X21590000Y-40640000D03*
D23*
X21590000Y-48260000D03*
D25*
X28702000Y-30734000D02*
X27686000Y-30734000D01*
X27686000Y-16510000D02*
X28702000Y-16510000D01*
X26670000Y-17526000D02*
X27686000Y-16510000D01*
X26670000Y-29718000D02*
X26670000Y-17526000D01*
X27686000Y-30734000D02*
X26670000Y-29718000D01*
X42418000Y-33274000D02*
X43434000Y-33274000D01*
X43434000Y-19050000D02*
X42418000Y-19050000D01*
X44450000Y-20066000D02*
X43434000Y-19050000D01*
X44450000Y-32258000D02*
X44450000Y-20066000D01*
X43434000Y-33274000D02*
X44450000Y-32258000D01*
X35814000Y-19558000D02*
X33782000Y-19558000D01*
X30734000Y-16510000D02*
X28702000Y-16510000D01*
X33782000Y-19558000D02*
X30734000Y-16510000D01*
X35814000Y-19558000D02*
X41910000Y-19558000D01*
X41910000Y-19558000D02*
X42418000Y-19050000D01*
X48514000Y-31242000D02*
X48514000Y-30226000D01*
X48514000Y-30226000D02*
X49022000Y-30734000D01*
X48514000Y-31242000D02*
X46990000Y-32766000D01*
X24130000Y-22098000D02*
X21082000Y-19050000D01*
X24130000Y-33274000D02*
X24130000Y-22098000D01*
X49022000Y-30734000D02*
X48514000Y-31242000D01*
X24130000Y-33274000D02*
X21082000Y-33274000D01*
X25654000Y-34798000D02*
X24130000Y-33274000D01*
X45974000Y-34798000D02*
X25654000Y-34798000D01*
X46990000Y-33782000D02*
X45974000Y-34798000D01*
X46990000Y-32766000D02*
X46990000Y-33782000D01*
X48514000Y-24130000D02*
X46990000Y-25654000D01*
X46990000Y-25654000D02*
X46990000Y-28702000D01*
X46990000Y-28702000D02*
X48514000Y-30226000D01*
X49022000Y-30734000D02*
X50038000Y-30734000D01*
X68580000Y-20320000D02*
X61468000Y-20320000D01*
X49022000Y-16510000D02*
X50038000Y-16510000D01*
X46990000Y-18542000D02*
X49022000Y-16510000D01*
X46990000Y-22606000D02*
X46990000Y-18542000D01*
X48514000Y-24130000D02*
X46990000Y-22606000D01*
X51054000Y-24130000D02*
X48514000Y-24130000D01*
X53086000Y-22098000D02*
X51054000Y-24130000D01*
X53086000Y-20066000D02*
X53086000Y-22098000D01*
X55118000Y-18034000D02*
X53086000Y-20066000D01*
X59182000Y-18034000D02*
X55118000Y-18034000D01*
X61468000Y-20320000D02*
X59182000Y-18034000D01*
X67945000Y-15875000D02*
X67945000Y-19685000D01*
X67945000Y-19685000D02*
X68580000Y-20320000D01*
X53086000Y-13462000D02*
X59690000Y-6858000D01*
X59690000Y-6858000D02*
X59690000Y-4318000D01*
X50038000Y-19050000D02*
X50546000Y-19050000D01*
X50546000Y-19050000D02*
X53086000Y-16510000D01*
X53086000Y-16510000D02*
X53086000Y-13462000D01*
X50038000Y-13462000D02*
X53086000Y-13462000D01*
X50038000Y-36322000D02*
X51562000Y-36322000D01*
X54610000Y-39370000D02*
X54610000Y-45720000D01*
X51562000Y-36322000D02*
X54610000Y-39370000D01*
X50038000Y-33274000D02*
X50038000Y-36322000D01*
D26*
G36*
X20555423Y-870423D02*
X20238260Y-1345091D01*
X20126887Y-1905000D01*
X20238260Y-2464909D01*
X20555423Y-2939577D01*
X21030091Y-3256740D01*
X21448667Y-3340000D01*
X21731333Y-3340000D01*
X22149909Y-3256740D01*
X22624577Y-2939577D01*
X22941740Y-2464909D01*
X23053113Y-1905000D01*
X22941740Y-1345091D01*
X22624577Y-870423D01*
X22384487Y-710000D01*
X48735513Y-710000D01*
X48495423Y-870423D01*
X48178260Y-1345091D01*
X48066887Y-1905000D01*
X48178260Y-2464909D01*
X48495423Y-2939577D01*
X48970091Y-3256740D01*
X49388667Y-3340000D01*
X49671333Y-3340000D01*
X50089909Y-3256740D01*
X50564577Y-2939577D01*
X50881740Y-2464909D01*
X50993113Y-1905000D01*
X50881740Y-1345091D01*
X50564577Y-870423D01*
X50324487Y-710000D01*
X70097332Y-710000D01*
X69082552Y-1130336D01*
X68130336Y-2082552D01*
X67615000Y-3326682D01*
X67615000Y-4673318D01*
X68130336Y-5917448D01*
X69082552Y-6869664D01*
X70326682Y-7385000D01*
X71673318Y-7385000D01*
X72917448Y-6869664D01*
X73869664Y-5917448D01*
X74290000Y-4902668D01*
X74290001Y-45097334D01*
X73869664Y-44082552D01*
X72917448Y-43130336D01*
X71673318Y-42615000D01*
X70326682Y-42615000D01*
X69082552Y-43130336D01*
X68130336Y-44082552D01*
X67615000Y-45326682D01*
X67615000Y-46673318D01*
X68130336Y-47917448D01*
X69082552Y-48869664D01*
X70097332Y-49290000D01*
X50567635Y-49290000D01*
X50881740Y-48819909D01*
X50993113Y-48260000D01*
X50881740Y-47700091D01*
X50564577Y-47225423D01*
X50089909Y-46908260D01*
X49671333Y-46825000D01*
X49388667Y-46825000D01*
X48970091Y-46908260D01*
X48495423Y-47225423D01*
X48178260Y-47700091D01*
X48066887Y-48260000D01*
X48178260Y-48819909D01*
X48492365Y-49290000D01*
X22627635Y-49290000D01*
X22941740Y-48819909D01*
X23053113Y-48260000D01*
X22941740Y-47700091D01*
X22624577Y-47225423D01*
X22149909Y-46908260D01*
X21731333Y-46825000D01*
X21448667Y-46825000D01*
X21030091Y-46908260D01*
X20555423Y-47225423D01*
X20238260Y-47700091D01*
X20126887Y-48260000D01*
X20238260Y-48819909D01*
X20552365Y-49290000D01*
X4902668Y-49290000D01*
X5917448Y-48869664D01*
X6869664Y-47917448D01*
X7385000Y-46673318D01*
X7385000Y-45326682D01*
X7175126Y-44820000D01*
X9882560Y-44820000D01*
X9882560Y-46620000D01*
X9931843Y-46867765D01*
X10072191Y-47077809D01*
X10282235Y-47218157D01*
X10530000Y-47267440D01*
X12330000Y-47267440D01*
X12577765Y-47218157D01*
X12787809Y-47077809D01*
X12927129Y-46869304D01*
X13371073Y-47165938D01*
X13818818Y-47255000D01*
X14121182Y-47255000D01*
X14568927Y-47165938D01*
X15076673Y-46826673D01*
X15247624Y-46570826D01*
X15602424Y-46957966D01*
X16145258Y-47211046D01*
X16383000Y-47090997D01*
X16383000Y-45847000D01*
X16637000Y-45847000D01*
X16637000Y-47090997D01*
X16874742Y-47211046D01*
X17417576Y-46957966D01*
X17822240Y-46516417D01*
X18001036Y-46084740D01*
X17880378Y-45847000D01*
X16637000Y-45847000D01*
X16383000Y-45847000D01*
X16363000Y-45847000D01*
X16363000Y-45593000D01*
X16383000Y-45593000D01*
X16383000Y-44349003D01*
X16637000Y-44349003D01*
X16637000Y-45593000D01*
X17880378Y-45593000D01*
X18001036Y-45355260D01*
X17822240Y-44923583D01*
X17417576Y-44482034D01*
X16874742Y-44228954D01*
X16637000Y-44349003D01*
X16383000Y-44349003D01*
X16145258Y-44228954D01*
X15602424Y-44482034D01*
X15247624Y-44869174D01*
X15076673Y-44613327D01*
X14568927Y-44274062D01*
X14121182Y-44185000D01*
X13818818Y-44185000D01*
X13371073Y-44274062D01*
X12927129Y-44570696D01*
X12787809Y-44362191D01*
X12577765Y-44221843D01*
X12330000Y-44172560D01*
X10530000Y-44172560D01*
X10282235Y-44221843D01*
X10072191Y-44362191D01*
X9931843Y-44572235D01*
X9882560Y-44820000D01*
X7175126Y-44820000D01*
X6869664Y-44082552D01*
X5917448Y-43130336D01*
X4673318Y-42615000D01*
X3326682Y-42615000D01*
X2082552Y-43130336D01*
X1130336Y-44082552D01*
X710000Y-45097332D01*
X710000Y-42469721D01*
X24382600Y-42469721D01*
X24382600Y-43890278D01*
X24506474Y-44513035D01*
X24978351Y-45219249D01*
X25684564Y-45691126D01*
X26517600Y-45856827D01*
X27350635Y-45691126D01*
X28056849Y-45219249D01*
X28332560Y-44806619D01*
X28332560Y-45180000D01*
X28381843Y-45427765D01*
X28522191Y-45637809D01*
X28732235Y-45778157D01*
X28980000Y-45827440D01*
X31980000Y-45827440D01*
X32227765Y-45778157D01*
X32437809Y-45637809D01*
X32578157Y-45427765D01*
X32627440Y-45180000D01*
X32627440Y-42469721D01*
X34390200Y-42469721D01*
X34390200Y-43890278D01*
X34514074Y-44513035D01*
X34985951Y-45219249D01*
X35692164Y-45691126D01*
X36525200Y-45856827D01*
X37358235Y-45691126D01*
X38064449Y-45219249D01*
X38506400Y-44557823D01*
X38948351Y-45219249D01*
X39654564Y-45691126D01*
X40487600Y-45856827D01*
X41320635Y-45691126D01*
X42026849Y-45219249D01*
X42302560Y-44806619D01*
X42302560Y-45180000D01*
X42351843Y-45427765D01*
X42492191Y-45637809D01*
X42702235Y-45778157D01*
X42950000Y-45827440D01*
X45950000Y-45827440D01*
X46197765Y-45778157D01*
X46407809Y-45637809D01*
X46548157Y-45427765D01*
X46597440Y-45180000D01*
X46597440Y-41180000D01*
X46548157Y-40932235D01*
X46407809Y-40722191D01*
X46197765Y-40581843D01*
X45950000Y-40532560D01*
X42950000Y-40532560D01*
X42702235Y-40581843D01*
X42492191Y-40722191D01*
X42351843Y-40932235D01*
X42302560Y-41180000D01*
X42302560Y-41553382D01*
X42026849Y-41140751D01*
X41320636Y-40668874D01*
X40487600Y-40503173D01*
X39654565Y-40668874D01*
X38948352Y-41140751D01*
X38506400Y-41802177D01*
X38064449Y-41140751D01*
X37358236Y-40668874D01*
X36525200Y-40503173D01*
X35692165Y-40668874D01*
X34985952Y-41140751D01*
X34514074Y-41846964D01*
X34390200Y-42469721D01*
X32627440Y-42469721D01*
X32627440Y-41180000D01*
X32578157Y-40932235D01*
X32437809Y-40722191D01*
X32227765Y-40581843D01*
X31980000Y-40532560D01*
X28980000Y-40532560D01*
X28732235Y-40581843D01*
X28522191Y-40722191D01*
X28381843Y-40932235D01*
X28332560Y-41180000D01*
X28332560Y-41553382D01*
X28056849Y-41140751D01*
X27350636Y-40668874D01*
X26517600Y-40503173D01*
X25684565Y-40668874D01*
X24978352Y-41140751D01*
X24506474Y-41846964D01*
X24382600Y-42469721D01*
X710000Y-42469721D01*
X710000Y-39840000D01*
X20142560Y-39840000D01*
X20142560Y-41440000D01*
X20191843Y-41687765D01*
X20332191Y-41897809D01*
X20542235Y-42038157D01*
X20790000Y-42087440D01*
X22390000Y-42087440D01*
X22637765Y-42038157D01*
X22847809Y-41897809D01*
X22988157Y-41687765D01*
X23037440Y-41440000D01*
X23037440Y-39840000D01*
X48082560Y-39840000D01*
X48082560Y-41440000D01*
X48131843Y-41687765D01*
X48272191Y-41897809D01*
X48482235Y-42038157D01*
X48730000Y-42087440D01*
X50330000Y-42087440D01*
X50577765Y-42038157D01*
X50787809Y-41897809D01*
X50928157Y-41687765D01*
X50977440Y-41440000D01*
X50977440Y-39840000D01*
X50928157Y-39592235D01*
X50787809Y-39382191D01*
X50577765Y-39241843D01*
X50330000Y-39192560D01*
X48730000Y-39192560D01*
X48482235Y-39241843D01*
X48272191Y-39382191D01*
X48131843Y-39592235D01*
X48082560Y-39840000D01*
X23037440Y-39840000D01*
X22988157Y-39592235D01*
X22847809Y-39382191D01*
X22637765Y-39241843D01*
X22390000Y-39192560D01*
X20790000Y-39192560D01*
X20542235Y-39241843D01*
X20332191Y-39382191D01*
X20191843Y-39592235D01*
X20142560Y-39840000D01*
X710000Y-39840000D01*
X710000Y-36322000D01*
X19720846Y-36322000D01*
X19824458Y-36842891D01*
X20119519Y-37284481D01*
X20561109Y-37579542D01*
X20950515Y-37657000D01*
X21213485Y-37657000D01*
X21602891Y-37579542D01*
X22044481Y-37284481D01*
X22062659Y-37257275D01*
X27946331Y-37257275D01*
X28008169Y-37493042D01*
X28509122Y-37669419D01*
X29039440Y-37640664D01*
X29395831Y-37493042D01*
X29457669Y-37257275D01*
X41662331Y-37257275D01*
X41724169Y-37493042D01*
X42225122Y-37669419D01*
X42755440Y-37640664D01*
X43111831Y-37493042D01*
X43173669Y-37257275D01*
X42418000Y-36501605D01*
X41662331Y-37257275D01*
X29457669Y-37257275D01*
X28702000Y-36501605D01*
X27946331Y-37257275D01*
X22062659Y-37257275D01*
X22339542Y-36842891D01*
X22443154Y-36322000D01*
X22339542Y-35801109D01*
X22044481Y-35359519D01*
X21602891Y-35064458D01*
X21213485Y-34987000D01*
X20950515Y-34987000D01*
X20561109Y-35064458D01*
X20119519Y-35359519D01*
X19824458Y-35801109D01*
X19720846Y-36322000D01*
X710000Y-36322000D01*
X710000Y-29060000D01*
X11538276Y-29060000D01*
X11723380Y-29990580D01*
X12250511Y-30779489D01*
X13039420Y-31306620D01*
X13735103Y-31445000D01*
X14204897Y-31445000D01*
X14900580Y-31306620D01*
X15689489Y-30779489D01*
X16216620Y-29990580D01*
X16401724Y-29060000D01*
X16216620Y-28129420D01*
X15689489Y-27340511D01*
X14900580Y-26813380D01*
X14204897Y-26675000D01*
X13735103Y-26675000D01*
X13039420Y-26813380D01*
X12250511Y-27340511D01*
X11723380Y-28129420D01*
X11538276Y-29060000D01*
X710000Y-29060000D01*
X710000Y-26289000D01*
X18923000Y-26289000D01*
X18923000Y-34798000D01*
X18932667Y-34846601D01*
X18960197Y-34887803D01*
X19001399Y-34915333D01*
X19050000Y-34925000D01*
X24077394Y-34925000D01*
X24548197Y-35395803D01*
X24589399Y-35423333D01*
X24638000Y-35433000D01*
X25013914Y-35433000D01*
X25015951Y-35436049D01*
X25089844Y-35485423D01*
X25089845Y-35485424D01*
X25200880Y-35559615D01*
X25308690Y-35631652D01*
X25566835Y-35683000D01*
X25566839Y-35683000D01*
X25653999Y-35700337D01*
X25741159Y-35683000D01*
X27511653Y-35683000D01*
X27354581Y-36129122D01*
X27383336Y-36659440D01*
X27530958Y-37015831D01*
X27766725Y-37077669D01*
X28522395Y-36322000D01*
X28508252Y-36307858D01*
X28687858Y-36128252D01*
X28702000Y-36142395D01*
X28716142Y-36128252D01*
X28895748Y-36307858D01*
X28881605Y-36322000D01*
X29637275Y-37077669D01*
X29873042Y-37015831D01*
X30049419Y-36514878D01*
X30020664Y-35984560D01*
X29895754Y-35683000D01*
X41227653Y-35683000D01*
X41070581Y-36129122D01*
X41099336Y-36659440D01*
X41246958Y-37015831D01*
X41482725Y-37077669D01*
X42238395Y-36322000D01*
X42224252Y-36307858D01*
X42403858Y-36128252D01*
X42418000Y-36142395D01*
X42432142Y-36128252D01*
X42611748Y-36307858D01*
X42597605Y-36322000D01*
X43353275Y-37077669D01*
X43589042Y-37015831D01*
X43765419Y-36514878D01*
X43736664Y-35984560D01*
X43611754Y-35683000D01*
X45886839Y-35683000D01*
X45974000Y-35700337D01*
X46061161Y-35683000D01*
X46061165Y-35683000D01*
X46319310Y-35631652D01*
X46612049Y-35436049D01*
X46614086Y-35433000D01*
X46990000Y-35433000D01*
X47038601Y-35423333D01*
X47079803Y-35395803D01*
X47550606Y-34925000D01*
X49153001Y-34925000D01*
X49153001Y-35307747D01*
X49075519Y-35359519D01*
X48780458Y-35801109D01*
X48676846Y-36322000D01*
X48780458Y-36842891D01*
X49075519Y-37284481D01*
X49517109Y-37579542D01*
X49906515Y-37657000D01*
X50169485Y-37657000D01*
X50558891Y-37579542D01*
X51000481Y-37284481D01*
X51052252Y-37207000D01*
X51195422Y-37207000D01*
X53725000Y-39736579D01*
X53725001Y-44172560D01*
X53710000Y-44172560D01*
X53462235Y-44221843D01*
X53252191Y-44362191D01*
X53111843Y-44572235D01*
X53062560Y-44820000D01*
X53062560Y-46620000D01*
X53111843Y-46867765D01*
X53252191Y-47077809D01*
X53462235Y-47218157D01*
X53710000Y-47267440D01*
X55510000Y-47267440D01*
X55757765Y-47218157D01*
X55967809Y-47077809D01*
X56107129Y-46869304D01*
X56551073Y-47165938D01*
X56998818Y-47255000D01*
X57301182Y-47255000D01*
X57748927Y-47165938D01*
X58256673Y-46826673D01*
X58427624Y-46570826D01*
X58782424Y-46957966D01*
X59325258Y-47211046D01*
X59563000Y-47090997D01*
X59563000Y-45847000D01*
X59817000Y-45847000D01*
X59817000Y-47090997D01*
X60054742Y-47211046D01*
X60597576Y-46957966D01*
X61002240Y-46516417D01*
X61181036Y-46084740D01*
X61060378Y-45847000D01*
X59817000Y-45847000D01*
X59563000Y-45847000D01*
X59543000Y-45847000D01*
X59543000Y-45593000D01*
X59563000Y-45593000D01*
X59563000Y-44349003D01*
X59817000Y-44349003D01*
X59817000Y-45593000D01*
X61060378Y-45593000D01*
X61181036Y-45355260D01*
X61002240Y-44923583D01*
X60597576Y-44482034D01*
X60054742Y-44228954D01*
X59817000Y-44349003D01*
X59563000Y-44349003D01*
X59325258Y-44228954D01*
X58782424Y-44482034D01*
X58427624Y-44869174D01*
X58256673Y-44613327D01*
X57748927Y-44274062D01*
X57301182Y-44185000D01*
X56998818Y-44185000D01*
X56551073Y-44274062D01*
X56107129Y-44570696D01*
X55967809Y-44362191D01*
X55757765Y-44221843D01*
X55510000Y-44172560D01*
X55495000Y-44172560D01*
X55495000Y-39457161D01*
X55512337Y-39370000D01*
X55495000Y-39282839D01*
X55495000Y-39282835D01*
X55443652Y-39024690D01*
X55248049Y-38731951D01*
X55174156Y-38682577D01*
X52249425Y-35757847D01*
X52200049Y-35683951D01*
X51907310Y-35488348D01*
X51649165Y-35437000D01*
X51649161Y-35437000D01*
X51562000Y-35419663D01*
X51474839Y-35437000D01*
X51052252Y-35437000D01*
X51000481Y-35359519D01*
X50923000Y-35307748D01*
X50923000Y-34925000D01*
X52070000Y-34925000D01*
X52118601Y-34915333D01*
X52159803Y-34887803D01*
X52187333Y-34846601D01*
X52197000Y-34798000D01*
X52197000Y-29060000D01*
X54718276Y-29060000D01*
X54903380Y-29990580D01*
X55430511Y-30779489D01*
X56219420Y-31306620D01*
X56915103Y-31445000D01*
X57384897Y-31445000D01*
X58080580Y-31306620D01*
X58869489Y-30779489D01*
X59396620Y-29990580D01*
X59581724Y-29060000D01*
X59419571Y-28244800D01*
X65903173Y-28244800D01*
X66068874Y-29077836D01*
X66540751Y-29784049D01*
X67246964Y-30255926D01*
X67869721Y-30379800D01*
X69290279Y-30379800D01*
X69913036Y-30255926D01*
X70619249Y-29784049D01*
X71091126Y-29077836D01*
X71256827Y-28244800D01*
X71091126Y-27411764D01*
X70619249Y-26705551D01*
X69913036Y-26233674D01*
X69911090Y-26233287D01*
X70014362Y-26206282D01*
X70679476Y-25702270D01*
X71101084Y-24982096D01*
X71165113Y-24741233D01*
X71052165Y-24409400D01*
X68707000Y-24409400D01*
X68707000Y-24429400D01*
X68453000Y-24429400D01*
X68453000Y-24409400D01*
X66107835Y-24409400D01*
X65994887Y-24741233D01*
X66058916Y-24982096D01*
X66480524Y-25702270D01*
X67145638Y-26206282D01*
X67248910Y-26233287D01*
X67246964Y-26233674D01*
X66540751Y-26705551D01*
X66068874Y-27411764D01*
X65903173Y-28244800D01*
X59419571Y-28244800D01*
X59396620Y-28129420D01*
X58869489Y-27340511D01*
X58080580Y-26813380D01*
X57384897Y-26675000D01*
X56915103Y-26675000D01*
X56219420Y-26813380D01*
X55430511Y-27340511D01*
X54903380Y-28129420D01*
X54718276Y-29060000D01*
X52197000Y-29060000D01*
X52197000Y-24238578D01*
X53650156Y-22785423D01*
X53724049Y-22736049D01*
X53810946Y-22606000D01*
X53919652Y-22443310D01*
X53924655Y-22418157D01*
X53971000Y-22185165D01*
X53971000Y-22185161D01*
X53988337Y-22098000D01*
X53971000Y-22010839D01*
X53971000Y-20432578D01*
X55484579Y-18919000D01*
X55938626Y-18919000D01*
X55430511Y-19258511D01*
X54903380Y-20047420D01*
X54718276Y-20978000D01*
X54903380Y-21908580D01*
X55430511Y-22697489D01*
X56219420Y-23224620D01*
X56915103Y-23363000D01*
X57384897Y-23363000D01*
X58080580Y-23224620D01*
X58869489Y-22697489D01*
X59396620Y-21908580D01*
X59581724Y-20978000D01*
X59396620Y-20047420D01*
X58869489Y-19258511D01*
X58361374Y-18919000D01*
X58815422Y-18919000D01*
X60780577Y-20884156D01*
X60829951Y-20958049D01*
X60903844Y-21007423D01*
X60903845Y-21007424D01*
X60939364Y-21031157D01*
X61122690Y-21153652D01*
X61380835Y-21205000D01*
X61380839Y-21205000D01*
X61467999Y-21222337D01*
X61555159Y-21205000D01*
X65932560Y-21205000D01*
X65932560Y-21820000D01*
X65981843Y-22067765D01*
X66122191Y-22277809D01*
X66332235Y-22418157D01*
X66580000Y-22467440D01*
X67001900Y-22467440D01*
X66480524Y-22862530D01*
X66058916Y-23582704D01*
X65994887Y-23823567D01*
X66107835Y-24155400D01*
X68453000Y-24155400D01*
X68453000Y-24135400D01*
X68707000Y-24135400D01*
X68707000Y-24155400D01*
X71052165Y-24155400D01*
X71165113Y-23823567D01*
X71101084Y-23582704D01*
X70679476Y-22862530D01*
X70158100Y-22467440D01*
X70580000Y-22467440D01*
X70827765Y-22418157D01*
X71037809Y-22277809D01*
X71178157Y-22067765D01*
X71227440Y-21820000D01*
X71227440Y-18820000D01*
X71178157Y-18572235D01*
X71037809Y-18362191D01*
X70827765Y-18221843D01*
X70580000Y-18172560D01*
X68830000Y-18172560D01*
X68830000Y-16889252D01*
X68907481Y-16837481D01*
X69202542Y-16395891D01*
X69306154Y-15875000D01*
X69202542Y-15354109D01*
X68907481Y-14912519D01*
X68465891Y-14617458D01*
X68076485Y-14540000D01*
X67813515Y-14540000D01*
X67424109Y-14617458D01*
X66982519Y-14912519D01*
X66687458Y-15354109D01*
X66583846Y-15875000D01*
X66687458Y-16395891D01*
X66982519Y-16837481D01*
X67060000Y-16889252D01*
X67060001Y-18172560D01*
X66580000Y-18172560D01*
X66332235Y-18221843D01*
X66122191Y-18362191D01*
X65981843Y-18572235D01*
X65932560Y-18820000D01*
X65932560Y-19435000D01*
X61834579Y-19435000D01*
X59869425Y-17469847D01*
X59820049Y-17395951D01*
X59527310Y-17200348D01*
X59269165Y-17149000D01*
X59269161Y-17149000D01*
X59182000Y-17131663D01*
X59094839Y-17149000D01*
X55205161Y-17149000D01*
X55118000Y-17131663D01*
X55030839Y-17149000D01*
X55030835Y-17149000D01*
X54772690Y-17200348D01*
X54553845Y-17346576D01*
X54553844Y-17346577D01*
X54479951Y-17395951D01*
X54430577Y-17469844D01*
X52521847Y-19378575D01*
X52447951Y-19427951D01*
X52252348Y-19720691D01*
X52201000Y-19978836D01*
X52201000Y-19978839D01*
X52197000Y-19998949D01*
X52197000Y-18650578D01*
X53650156Y-17197423D01*
X53724049Y-17148049D01*
X53773425Y-17074154D01*
X53919651Y-16855311D01*
X53919652Y-16855310D01*
X53971000Y-16597165D01*
X53971000Y-16597161D01*
X53988337Y-16510001D01*
X53971000Y-16422841D01*
X53971000Y-13828578D01*
X54178828Y-13620750D01*
X70220000Y-13620750D01*
X70220000Y-14361309D01*
X70316673Y-14594698D01*
X70495301Y-14773327D01*
X70728690Y-14870000D01*
X71469250Y-14870000D01*
X71628000Y-14711250D01*
X71628000Y-13462000D01*
X71882000Y-13462000D01*
X71882000Y-14711250D01*
X72040750Y-14870000D01*
X72781310Y-14870000D01*
X73014699Y-14773327D01*
X73193327Y-14594698D01*
X73290000Y-14361309D01*
X73290000Y-13620750D01*
X73131250Y-13462000D01*
X71882000Y-13462000D01*
X71628000Y-13462000D01*
X70378750Y-13462000D01*
X70220000Y-13620750D01*
X54178828Y-13620750D01*
X57309908Y-10489670D01*
X70220000Y-10489670D01*
X70220000Y-11100330D01*
X70453690Y-11664507D01*
X70630044Y-11840861D01*
X70495301Y-11896673D01*
X70316673Y-12075302D01*
X70220000Y-12308691D01*
X70220000Y-13049250D01*
X70378750Y-13208000D01*
X71628000Y-13208000D01*
X71628000Y-13188000D01*
X71882000Y-13188000D01*
X71882000Y-13208000D01*
X73131250Y-13208000D01*
X73290000Y-13049250D01*
X73290000Y-12308691D01*
X73193327Y-12075302D01*
X73014699Y-11896673D01*
X72879956Y-11840861D01*
X73056310Y-11664507D01*
X73290000Y-11100330D01*
X73290000Y-10489670D01*
X73056310Y-9925493D01*
X72624507Y-9493690D01*
X72060330Y-9260000D01*
X71449670Y-9260000D01*
X70885493Y-9493690D01*
X70453690Y-9925493D01*
X70220000Y-10489670D01*
X57309908Y-10489670D01*
X59810126Y-7989452D01*
X66610000Y-7989452D01*
X66610000Y-8520548D01*
X66813242Y-9011217D01*
X67188783Y-9386758D01*
X67679452Y-9590000D01*
X68210548Y-9590000D01*
X68701217Y-9386758D01*
X69076758Y-9011217D01*
X69280000Y-8520548D01*
X69280000Y-7989452D01*
X69076758Y-7498783D01*
X68701217Y-7123242D01*
X68210548Y-6920000D01*
X67679452Y-6920000D01*
X67188783Y-7123242D01*
X66813242Y-7498783D01*
X66610000Y-7989452D01*
X59810126Y-7989452D01*
X60254156Y-7545422D01*
X60328049Y-7496049D01*
X60523652Y-7203310D01*
X60575000Y-6945165D01*
X60575000Y-6945161D01*
X60592337Y-6858001D01*
X60575000Y-6770841D01*
X60575000Y-5865440D01*
X60590000Y-5865440D01*
X60837765Y-5816157D01*
X61047809Y-5675809D01*
X61188157Y-5465765D01*
X61237440Y-5218000D01*
X61237440Y-3418000D01*
X61188157Y-3170235D01*
X61047809Y-2960191D01*
X60837765Y-2819843D01*
X60590000Y-2770560D01*
X58790000Y-2770560D01*
X58542235Y-2819843D01*
X58332191Y-2960191D01*
X58192871Y-3168696D01*
X57748927Y-2872062D01*
X57301182Y-2783000D01*
X56998818Y-2783000D01*
X56551073Y-2872062D01*
X56043327Y-3211327D01*
X55872376Y-3467174D01*
X55517576Y-3080034D01*
X54974742Y-2826954D01*
X54737000Y-2947003D01*
X54737000Y-4191000D01*
X54757000Y-4191000D01*
X54757000Y-4445000D01*
X54737000Y-4445000D01*
X54737000Y-5688997D01*
X54974742Y-5809046D01*
X55517576Y-5555966D01*
X55872376Y-5168826D01*
X56043327Y-5424673D01*
X56551073Y-5763938D01*
X56998818Y-5853000D01*
X57301182Y-5853000D01*
X57748927Y-5763938D01*
X58192871Y-5467304D01*
X58332191Y-5675809D01*
X58542235Y-5816157D01*
X58790000Y-5865440D01*
X58805000Y-5865440D01*
X58805000Y-6491421D01*
X52719422Y-12577000D01*
X51052252Y-12577000D01*
X51000481Y-12499519D01*
X50558891Y-12204458D01*
X50169485Y-12127000D01*
X49906515Y-12127000D01*
X49517109Y-12204458D01*
X49075519Y-12499519D01*
X48780458Y-12941109D01*
X48676846Y-13462000D01*
X48780458Y-13982891D01*
X49026421Y-14351000D01*
X43450444Y-14351000D01*
X43468526Y-14332918D01*
X43353277Y-14217669D01*
X43589042Y-14155831D01*
X43765419Y-13654878D01*
X43736664Y-13124560D01*
X43589042Y-12768169D01*
X43353275Y-12706331D01*
X42597605Y-13462000D01*
X42611748Y-13476142D01*
X42432142Y-13655748D01*
X42418000Y-13641605D01*
X42403858Y-13655748D01*
X42224252Y-13476142D01*
X42238395Y-13462000D01*
X41482725Y-12706331D01*
X41246958Y-12768169D01*
X41070581Y-13269122D01*
X41099336Y-13799440D01*
X41246958Y-14155831D01*
X41482723Y-14217669D01*
X41367474Y-14332918D01*
X41385556Y-14351000D01*
X29734444Y-14351000D01*
X29752526Y-14332918D01*
X29637277Y-14217669D01*
X29873042Y-14155831D01*
X30049419Y-13654878D01*
X30020664Y-13124560D01*
X29873042Y-12768169D01*
X29637275Y-12706331D01*
X28881605Y-13462000D01*
X28895748Y-13476142D01*
X28716142Y-13655748D01*
X28702000Y-13641605D01*
X28687858Y-13655748D01*
X28508252Y-13476142D01*
X28522395Y-13462000D01*
X27766725Y-12706331D01*
X27530958Y-12768169D01*
X27354581Y-13269122D01*
X27383336Y-13799440D01*
X27530958Y-14155831D01*
X27766723Y-14217669D01*
X27651474Y-14332918D01*
X27669556Y-14351000D01*
X22093579Y-14351000D01*
X22339542Y-13982891D01*
X22443154Y-13462000D01*
X22339542Y-12941109D01*
X22062660Y-12526725D01*
X27946331Y-12526725D01*
X28702000Y-13282395D01*
X29457669Y-12526725D01*
X41662331Y-12526725D01*
X42418000Y-13282395D01*
X43173669Y-12526725D01*
X43111831Y-12290958D01*
X42610878Y-12114581D01*
X42080560Y-12143336D01*
X41724169Y-12290958D01*
X41662331Y-12526725D01*
X29457669Y-12526725D01*
X29395831Y-12290958D01*
X28894878Y-12114581D01*
X28364560Y-12143336D01*
X28008169Y-12290958D01*
X27946331Y-12526725D01*
X22062660Y-12526725D01*
X22044481Y-12499519D01*
X21602891Y-12204458D01*
X21213485Y-12127000D01*
X20950515Y-12127000D01*
X20561109Y-12204458D01*
X20119519Y-12499519D01*
X19824458Y-12941109D01*
X19720846Y-13462000D01*
X19824458Y-13982891D01*
X20070421Y-14351000D01*
X19050000Y-14351000D01*
X19001399Y-14360667D01*
X18960197Y-14388197D01*
X18932667Y-14429399D01*
X18923000Y-14478000D01*
X18923000Y-24003000D01*
X710000Y-24003000D01*
X710000Y-20978000D01*
X11538276Y-20978000D01*
X11723380Y-21908580D01*
X12250511Y-22697489D01*
X13039420Y-23224620D01*
X13735103Y-23363000D01*
X14204897Y-23363000D01*
X14900580Y-23224620D01*
X15689489Y-22697489D01*
X16216620Y-21908580D01*
X16401724Y-20978000D01*
X16216620Y-20047420D01*
X15689489Y-19258511D01*
X14900580Y-18731380D01*
X14204897Y-18593000D01*
X13735103Y-18593000D01*
X13039420Y-18731380D01*
X12250511Y-19258511D01*
X11723380Y-20047420D01*
X11538276Y-20978000D01*
X710000Y-20978000D01*
X710000Y-8725000D01*
X20142560Y-8725000D01*
X20142560Y-10325000D01*
X20191843Y-10572765D01*
X20332191Y-10782809D01*
X20542235Y-10923157D01*
X20790000Y-10972440D01*
X22390000Y-10972440D01*
X22637765Y-10923157D01*
X22847809Y-10782809D01*
X22988157Y-10572765D01*
X23037440Y-10325000D01*
X23037440Y-8725000D01*
X22988157Y-8477235D01*
X22847809Y-8267191D01*
X22637765Y-8126843D01*
X22390000Y-8077560D01*
X20790000Y-8077560D01*
X20542235Y-8126843D01*
X20332191Y-8267191D01*
X20191843Y-8477235D01*
X20142560Y-8725000D01*
X710000Y-8725000D01*
X710000Y-4902668D01*
X1130336Y-5917448D01*
X2082552Y-6869664D01*
X3326682Y-7385000D01*
X4673318Y-7385000D01*
X5917448Y-6869664D01*
X6869664Y-5917448D01*
X7381097Y-4682740D01*
X9938964Y-4682740D01*
X10117760Y-5114417D01*
X10522424Y-5555966D01*
X11065258Y-5809046D01*
X11303000Y-5688997D01*
X11303000Y-4445000D01*
X10059622Y-4445000D01*
X9938964Y-4682740D01*
X7381097Y-4682740D01*
X7385000Y-4673318D01*
X7385000Y-3953260D01*
X9938964Y-3953260D01*
X10059622Y-4191000D01*
X11303000Y-4191000D01*
X11303000Y-2947003D01*
X11557000Y-2947003D01*
X11557000Y-4191000D01*
X11577000Y-4191000D01*
X11577000Y-4445000D01*
X11557000Y-4445000D01*
X11557000Y-5688997D01*
X11794742Y-5809046D01*
X12337576Y-5555966D01*
X12692376Y-5168826D01*
X12863327Y-5424673D01*
X13371073Y-5763938D01*
X13818818Y-5853000D01*
X14121182Y-5853000D01*
X14568927Y-5763938D01*
X15012871Y-5467304D01*
X15152191Y-5675809D01*
X15362235Y-5816157D01*
X15610000Y-5865440D01*
X17410000Y-5865440D01*
X17657765Y-5816157D01*
X17867809Y-5675809D01*
X18008157Y-5465765D01*
X18057440Y-5218000D01*
X18057440Y-4350000D01*
X24522560Y-4350000D01*
X24522560Y-8350000D01*
X24571843Y-8597765D01*
X24712191Y-8807809D01*
X24922235Y-8948157D01*
X25170000Y-8997440D01*
X28170000Y-8997440D01*
X28417765Y-8948157D01*
X28627809Y-8807809D01*
X28768157Y-8597765D01*
X28817440Y-8350000D01*
X28817440Y-7976618D01*
X29093152Y-8389249D01*
X29799365Y-8861126D01*
X30632400Y-9026827D01*
X31465436Y-8861126D01*
X32171649Y-8389249D01*
X32613600Y-7727823D01*
X33055552Y-8389249D01*
X33761765Y-8861126D01*
X34594800Y-9026827D01*
X35427836Y-8861126D01*
X36134049Y-8389249D01*
X36605926Y-7683035D01*
X36729800Y-7060278D01*
X36729800Y-5639721D01*
X36605926Y-5016964D01*
X36160275Y-4350000D01*
X38492560Y-4350000D01*
X38492560Y-8350000D01*
X38541843Y-8597765D01*
X38682191Y-8807809D01*
X38892235Y-8948157D01*
X39140000Y-8997440D01*
X42140000Y-8997440D01*
X42387765Y-8948157D01*
X42597809Y-8807809D01*
X42738157Y-8597765D01*
X42787440Y-8350000D01*
X42787440Y-7976618D01*
X43063152Y-8389249D01*
X43769365Y-8861126D01*
X44602400Y-9026827D01*
X45435436Y-8861126D01*
X45639162Y-8725000D01*
X48082560Y-8725000D01*
X48082560Y-10325000D01*
X48131843Y-10572765D01*
X48272191Y-10782809D01*
X48482235Y-10923157D01*
X48730000Y-10972440D01*
X50330000Y-10972440D01*
X50577765Y-10923157D01*
X50787809Y-10782809D01*
X50928157Y-10572765D01*
X50977440Y-10325000D01*
X50977440Y-8725000D01*
X50928157Y-8477235D01*
X50787809Y-8267191D01*
X50577765Y-8126843D01*
X50330000Y-8077560D01*
X48730000Y-8077560D01*
X48482235Y-8126843D01*
X48272191Y-8267191D01*
X48131843Y-8477235D01*
X48082560Y-8725000D01*
X45639162Y-8725000D01*
X46141649Y-8389249D01*
X46613526Y-7683035D01*
X46737400Y-7060278D01*
X46737400Y-5639721D01*
X46613526Y-5016964D01*
X46390205Y-4682740D01*
X53118964Y-4682740D01*
X53297760Y-5114417D01*
X53702424Y-5555966D01*
X54245258Y-5809046D01*
X54483000Y-5688997D01*
X54483000Y-4445000D01*
X53239622Y-4445000D01*
X53118964Y-4682740D01*
X46390205Y-4682740D01*
X46141649Y-4310751D01*
X45606626Y-3953260D01*
X53118964Y-3953260D01*
X53239622Y-4191000D01*
X54483000Y-4191000D01*
X54483000Y-2947003D01*
X54245258Y-2826954D01*
X53702424Y-3080034D01*
X53297760Y-3521583D01*
X53118964Y-3953260D01*
X45606626Y-3953260D01*
X45435435Y-3838874D01*
X44602400Y-3673173D01*
X43769364Y-3838874D01*
X43063151Y-4310751D01*
X42787440Y-4723382D01*
X42787440Y-4350000D01*
X42738157Y-4102235D01*
X42597809Y-3892191D01*
X42387765Y-3751843D01*
X42140000Y-3702560D01*
X39140000Y-3702560D01*
X38892235Y-3751843D01*
X38682191Y-3892191D01*
X38541843Y-4102235D01*
X38492560Y-4350000D01*
X36160275Y-4350000D01*
X36134049Y-4310751D01*
X35427835Y-3838874D01*
X34594800Y-3673173D01*
X33761764Y-3838874D01*
X33055551Y-4310751D01*
X32613600Y-4972177D01*
X32171649Y-4310751D01*
X31465435Y-3838874D01*
X30632400Y-3673173D01*
X29799364Y-3838874D01*
X29093151Y-4310751D01*
X28817440Y-4723382D01*
X28817440Y-4350000D01*
X28768157Y-4102235D01*
X28627809Y-3892191D01*
X28417765Y-3751843D01*
X28170000Y-3702560D01*
X25170000Y-3702560D01*
X24922235Y-3751843D01*
X24712191Y-3892191D01*
X24571843Y-4102235D01*
X24522560Y-4350000D01*
X18057440Y-4350000D01*
X18057440Y-3418000D01*
X18008157Y-3170235D01*
X17867809Y-2960191D01*
X17657765Y-2819843D01*
X17410000Y-2770560D01*
X15610000Y-2770560D01*
X15362235Y-2819843D01*
X15152191Y-2960191D01*
X15012871Y-3168696D01*
X14568927Y-2872062D01*
X14121182Y-2783000D01*
X13818818Y-2783000D01*
X13371073Y-2872062D01*
X12863327Y-3211327D01*
X12692376Y-3467174D01*
X12337576Y-3080034D01*
X11794742Y-2826954D01*
X11557000Y-2947003D01*
X11303000Y-2947003D01*
X11065258Y-2826954D01*
X10522424Y-3080034D01*
X10117760Y-3521583D01*
X9938964Y-3953260D01*
X7385000Y-3953260D01*
X7385000Y-3326682D01*
X6869664Y-2082552D01*
X5917448Y-1130336D01*
X4902668Y-710000D01*
X20795513Y-710000D01*
X20555423Y-870423D01*
X20555423Y-870423D01*
G37*
X20555423Y-870423D02*
X20238260Y-1345091D01*
X20126887Y-1905000D01*
X20238260Y-2464909D01*
X20555423Y-2939577D01*
X21030091Y-3256740D01*
X21448667Y-3340000D01*
X21731333Y-3340000D01*
X22149909Y-3256740D01*
X22624577Y-2939577D01*
X22941740Y-2464909D01*
X23053113Y-1905000D01*
X22941740Y-1345091D01*
X22624577Y-870423D01*
X22384487Y-710000D01*
X48735513Y-710000D01*
X48495423Y-870423D01*
X48178260Y-1345091D01*
X48066887Y-1905000D01*
X48178260Y-2464909D01*
X48495423Y-2939577D01*
X48970091Y-3256740D01*
X49388667Y-3340000D01*
X49671333Y-3340000D01*
X50089909Y-3256740D01*
X50564577Y-2939577D01*
X50881740Y-2464909D01*
X50993113Y-1905000D01*
X50881740Y-1345091D01*
X50564577Y-870423D01*
X50324487Y-710000D01*
X70097332Y-710000D01*
X69082552Y-1130336D01*
X68130336Y-2082552D01*
X67615000Y-3326682D01*
X67615000Y-4673318D01*
X68130336Y-5917448D01*
X69082552Y-6869664D01*
X70326682Y-7385000D01*
X71673318Y-7385000D01*
X72917448Y-6869664D01*
X73869664Y-5917448D01*
X74290000Y-4902668D01*
X74290001Y-45097334D01*
X73869664Y-44082552D01*
X72917448Y-43130336D01*
X71673318Y-42615000D01*
X70326682Y-42615000D01*
X69082552Y-43130336D01*
X68130336Y-44082552D01*
X67615000Y-45326682D01*
X67615000Y-46673318D01*
X68130336Y-47917448D01*
X69082552Y-48869664D01*
X70097332Y-49290000D01*
X50567635Y-49290000D01*
X50881740Y-48819909D01*
X50993113Y-48260000D01*
X50881740Y-47700091D01*
X50564577Y-47225423D01*
X50089909Y-46908260D01*
X49671333Y-46825000D01*
X49388667Y-46825000D01*
X48970091Y-46908260D01*
X48495423Y-47225423D01*
X48178260Y-47700091D01*
X48066887Y-48260000D01*
X48178260Y-48819909D01*
X48492365Y-49290000D01*
X22627635Y-49290000D01*
X22941740Y-48819909D01*
X23053113Y-48260000D01*
X22941740Y-47700091D01*
X22624577Y-47225423D01*
X22149909Y-46908260D01*
X21731333Y-46825000D01*
X21448667Y-46825000D01*
X21030091Y-46908260D01*
X20555423Y-47225423D01*
X20238260Y-47700091D01*
X20126887Y-48260000D01*
X20238260Y-48819909D01*
X20552365Y-49290000D01*
X4902668Y-49290000D01*
X5917448Y-48869664D01*
X6869664Y-47917448D01*
X7385000Y-46673318D01*
X7385000Y-45326682D01*
X7175126Y-44820000D01*
X9882560Y-44820000D01*
X9882560Y-46620000D01*
X9931843Y-46867765D01*
X10072191Y-47077809D01*
X10282235Y-47218157D01*
X10530000Y-47267440D01*
X12330000Y-47267440D01*
X12577765Y-47218157D01*
X12787809Y-47077809D01*
X12927129Y-46869304D01*
X13371073Y-47165938D01*
X13818818Y-47255000D01*
X14121182Y-47255000D01*
X14568927Y-47165938D01*
X15076673Y-46826673D01*
X15247624Y-46570826D01*
X15602424Y-46957966D01*
X16145258Y-47211046D01*
X16383000Y-47090997D01*
X16383000Y-45847000D01*
X16637000Y-45847000D01*
X16637000Y-47090997D01*
X16874742Y-47211046D01*
X17417576Y-46957966D01*
X17822240Y-46516417D01*
X18001036Y-46084740D01*
X17880378Y-45847000D01*
X16637000Y-45847000D01*
X16383000Y-45847000D01*
X16363000Y-45847000D01*
X16363000Y-45593000D01*
X16383000Y-45593000D01*
X16383000Y-44349003D01*
X16637000Y-44349003D01*
X16637000Y-45593000D01*
X17880378Y-45593000D01*
X18001036Y-45355260D01*
X17822240Y-44923583D01*
X17417576Y-44482034D01*
X16874742Y-44228954D01*
X16637000Y-44349003D01*
X16383000Y-44349003D01*
X16145258Y-44228954D01*
X15602424Y-44482034D01*
X15247624Y-44869174D01*
X15076673Y-44613327D01*
X14568927Y-44274062D01*
X14121182Y-44185000D01*
X13818818Y-44185000D01*
X13371073Y-44274062D01*
X12927129Y-44570696D01*
X12787809Y-44362191D01*
X12577765Y-44221843D01*
X12330000Y-44172560D01*
X10530000Y-44172560D01*
X10282235Y-44221843D01*
X10072191Y-44362191D01*
X9931843Y-44572235D01*
X9882560Y-44820000D01*
X7175126Y-44820000D01*
X6869664Y-44082552D01*
X5917448Y-43130336D01*
X4673318Y-42615000D01*
X3326682Y-42615000D01*
X2082552Y-43130336D01*
X1130336Y-44082552D01*
X710000Y-45097332D01*
X710000Y-42469721D01*
X24382600Y-42469721D01*
X24382600Y-43890278D01*
X24506474Y-44513035D01*
X24978351Y-45219249D01*
X25684564Y-45691126D01*
X26517600Y-45856827D01*
X27350635Y-45691126D01*
X28056849Y-45219249D01*
X28332560Y-44806619D01*
X28332560Y-45180000D01*
X28381843Y-45427765D01*
X28522191Y-45637809D01*
X28732235Y-45778157D01*
X28980000Y-45827440D01*
X31980000Y-45827440D01*
X32227765Y-45778157D01*
X32437809Y-45637809D01*
X32578157Y-45427765D01*
X32627440Y-45180000D01*
X32627440Y-42469721D01*
X34390200Y-42469721D01*
X34390200Y-43890278D01*
X34514074Y-44513035D01*
X34985951Y-45219249D01*
X35692164Y-45691126D01*
X36525200Y-45856827D01*
X37358235Y-45691126D01*
X38064449Y-45219249D01*
X38506400Y-44557823D01*
X38948351Y-45219249D01*
X39654564Y-45691126D01*
X40487600Y-45856827D01*
X41320635Y-45691126D01*
X42026849Y-45219249D01*
X42302560Y-44806619D01*
X42302560Y-45180000D01*
X42351843Y-45427765D01*
X42492191Y-45637809D01*
X42702235Y-45778157D01*
X42950000Y-45827440D01*
X45950000Y-45827440D01*
X46197765Y-45778157D01*
X46407809Y-45637809D01*
X46548157Y-45427765D01*
X46597440Y-45180000D01*
X46597440Y-41180000D01*
X46548157Y-40932235D01*
X46407809Y-40722191D01*
X46197765Y-40581843D01*
X45950000Y-40532560D01*
X42950000Y-40532560D01*
X42702235Y-40581843D01*
X42492191Y-40722191D01*
X42351843Y-40932235D01*
X42302560Y-41180000D01*
X42302560Y-41553382D01*
X42026849Y-41140751D01*
X41320636Y-40668874D01*
X40487600Y-40503173D01*
X39654565Y-40668874D01*
X38948352Y-41140751D01*
X38506400Y-41802177D01*
X38064449Y-41140751D01*
X37358236Y-40668874D01*
X36525200Y-40503173D01*
X35692165Y-40668874D01*
X34985952Y-41140751D01*
X34514074Y-41846964D01*
X34390200Y-42469721D01*
X32627440Y-42469721D01*
X32627440Y-41180000D01*
X32578157Y-40932235D01*
X32437809Y-40722191D01*
X32227765Y-40581843D01*
X31980000Y-40532560D01*
X28980000Y-40532560D01*
X28732235Y-40581843D01*
X28522191Y-40722191D01*
X28381843Y-40932235D01*
X28332560Y-41180000D01*
X28332560Y-41553382D01*
X28056849Y-41140751D01*
X27350636Y-40668874D01*
X26517600Y-40503173D01*
X25684565Y-40668874D01*
X24978352Y-41140751D01*
X24506474Y-41846964D01*
X24382600Y-42469721D01*
X710000Y-42469721D01*
X710000Y-39840000D01*
X20142560Y-39840000D01*
X20142560Y-41440000D01*
X20191843Y-41687765D01*
X20332191Y-41897809D01*
X20542235Y-42038157D01*
X20790000Y-42087440D01*
X22390000Y-42087440D01*
X22637765Y-42038157D01*
X22847809Y-41897809D01*
X22988157Y-41687765D01*
X23037440Y-41440000D01*
X23037440Y-39840000D01*
X48082560Y-39840000D01*
X48082560Y-41440000D01*
X48131843Y-41687765D01*
X48272191Y-41897809D01*
X48482235Y-42038157D01*
X48730000Y-42087440D01*
X50330000Y-42087440D01*
X50577765Y-42038157D01*
X50787809Y-41897809D01*
X50928157Y-41687765D01*
X50977440Y-41440000D01*
X50977440Y-39840000D01*
X50928157Y-39592235D01*
X50787809Y-39382191D01*
X50577765Y-39241843D01*
X50330000Y-39192560D01*
X48730000Y-39192560D01*
X48482235Y-39241843D01*
X48272191Y-39382191D01*
X48131843Y-39592235D01*
X48082560Y-39840000D01*
X23037440Y-39840000D01*
X22988157Y-39592235D01*
X22847809Y-39382191D01*
X22637765Y-39241843D01*
X22390000Y-39192560D01*
X20790000Y-39192560D01*
X20542235Y-39241843D01*
X20332191Y-39382191D01*
X20191843Y-39592235D01*
X20142560Y-39840000D01*
X710000Y-39840000D01*
X710000Y-36322000D01*
X19720846Y-36322000D01*
X19824458Y-36842891D01*
X20119519Y-37284481D01*
X20561109Y-37579542D01*
X20950515Y-37657000D01*
X21213485Y-37657000D01*
X21602891Y-37579542D01*
X22044481Y-37284481D01*
X22062659Y-37257275D01*
X27946331Y-37257275D01*
X28008169Y-37493042D01*
X28509122Y-37669419D01*
X29039440Y-37640664D01*
X29395831Y-37493042D01*
X29457669Y-37257275D01*
X41662331Y-37257275D01*
X41724169Y-37493042D01*
X42225122Y-37669419D01*
X42755440Y-37640664D01*
X43111831Y-37493042D01*
X43173669Y-37257275D01*
X42418000Y-36501605D01*
X41662331Y-37257275D01*
X29457669Y-37257275D01*
X28702000Y-36501605D01*
X27946331Y-37257275D01*
X22062659Y-37257275D01*
X22339542Y-36842891D01*
X22443154Y-36322000D01*
X22339542Y-35801109D01*
X22044481Y-35359519D01*
X21602891Y-35064458D01*
X21213485Y-34987000D01*
X20950515Y-34987000D01*
X20561109Y-35064458D01*
X20119519Y-35359519D01*
X19824458Y-35801109D01*
X19720846Y-36322000D01*
X710000Y-36322000D01*
X710000Y-29060000D01*
X11538276Y-29060000D01*
X11723380Y-29990580D01*
X12250511Y-30779489D01*
X13039420Y-31306620D01*
X13735103Y-31445000D01*
X14204897Y-31445000D01*
X14900580Y-31306620D01*
X15689489Y-30779489D01*
X16216620Y-29990580D01*
X16401724Y-29060000D01*
X16216620Y-28129420D01*
X15689489Y-27340511D01*
X14900580Y-26813380D01*
X14204897Y-26675000D01*
X13735103Y-26675000D01*
X13039420Y-26813380D01*
X12250511Y-27340511D01*
X11723380Y-28129420D01*
X11538276Y-29060000D01*
X710000Y-29060000D01*
X710000Y-26289000D01*
X18923000Y-26289000D01*
X18923000Y-34798000D01*
X18932667Y-34846601D01*
X18960197Y-34887803D01*
X19001399Y-34915333D01*
X19050000Y-34925000D01*
X24077394Y-34925000D01*
X24548197Y-35395803D01*
X24589399Y-35423333D01*
X24638000Y-35433000D01*
X25013914Y-35433000D01*
X25015951Y-35436049D01*
X25089844Y-35485423D01*
X25089845Y-35485424D01*
X25200880Y-35559615D01*
X25308690Y-35631652D01*
X25566835Y-35683000D01*
X25566839Y-35683000D01*
X25653999Y-35700337D01*
X25741159Y-35683000D01*
X27511653Y-35683000D01*
X27354581Y-36129122D01*
X27383336Y-36659440D01*
X27530958Y-37015831D01*
X27766725Y-37077669D01*
X28522395Y-36322000D01*
X28508252Y-36307858D01*
X28687858Y-36128252D01*
X28702000Y-36142395D01*
X28716142Y-36128252D01*
X28895748Y-36307858D01*
X28881605Y-36322000D01*
X29637275Y-37077669D01*
X29873042Y-37015831D01*
X30049419Y-36514878D01*
X30020664Y-35984560D01*
X29895754Y-35683000D01*
X41227653Y-35683000D01*
X41070581Y-36129122D01*
X41099336Y-36659440D01*
X41246958Y-37015831D01*
X41482725Y-37077669D01*
X42238395Y-36322000D01*
X42224252Y-36307858D01*
X42403858Y-36128252D01*
X42418000Y-36142395D01*
X42432142Y-36128252D01*
X42611748Y-36307858D01*
X42597605Y-36322000D01*
X43353275Y-37077669D01*
X43589042Y-37015831D01*
X43765419Y-36514878D01*
X43736664Y-35984560D01*
X43611754Y-35683000D01*
X45886839Y-35683000D01*
X45974000Y-35700337D01*
X46061161Y-35683000D01*
X46061165Y-35683000D01*
X46319310Y-35631652D01*
X46612049Y-35436049D01*
X46614086Y-35433000D01*
X46990000Y-35433000D01*
X47038601Y-35423333D01*
X47079803Y-35395803D01*
X47550606Y-34925000D01*
X49153001Y-34925000D01*
X49153001Y-35307747D01*
X49075519Y-35359519D01*
X48780458Y-35801109D01*
X48676846Y-36322000D01*
X48780458Y-36842891D01*
X49075519Y-37284481D01*
X49517109Y-37579542D01*
X49906515Y-37657000D01*
X50169485Y-37657000D01*
X50558891Y-37579542D01*
X51000481Y-37284481D01*
X51052252Y-37207000D01*
X51195422Y-37207000D01*
X53725000Y-39736579D01*
X53725001Y-44172560D01*
X53710000Y-44172560D01*
X53462235Y-44221843D01*
X53252191Y-44362191D01*
X53111843Y-44572235D01*
X53062560Y-44820000D01*
X53062560Y-46620000D01*
X53111843Y-46867765D01*
X53252191Y-47077809D01*
X53462235Y-47218157D01*
X53710000Y-47267440D01*
X55510000Y-47267440D01*
X55757765Y-47218157D01*
X55967809Y-47077809D01*
X56107129Y-46869304D01*
X56551073Y-47165938D01*
X56998818Y-47255000D01*
X57301182Y-47255000D01*
X57748927Y-47165938D01*
X58256673Y-46826673D01*
X58427624Y-46570826D01*
X58782424Y-46957966D01*
X59325258Y-47211046D01*
X59563000Y-47090997D01*
X59563000Y-45847000D01*
X59817000Y-45847000D01*
X59817000Y-47090997D01*
X60054742Y-47211046D01*
X60597576Y-46957966D01*
X61002240Y-46516417D01*
X61181036Y-46084740D01*
X61060378Y-45847000D01*
X59817000Y-45847000D01*
X59563000Y-45847000D01*
X59543000Y-45847000D01*
X59543000Y-45593000D01*
X59563000Y-45593000D01*
X59563000Y-44349003D01*
X59817000Y-44349003D01*
X59817000Y-45593000D01*
X61060378Y-45593000D01*
X61181036Y-45355260D01*
X61002240Y-44923583D01*
X60597576Y-44482034D01*
X60054742Y-44228954D01*
X59817000Y-44349003D01*
X59563000Y-44349003D01*
X59325258Y-44228954D01*
X58782424Y-44482034D01*
X58427624Y-44869174D01*
X58256673Y-44613327D01*
X57748927Y-44274062D01*
X57301182Y-44185000D01*
X56998818Y-44185000D01*
X56551073Y-44274062D01*
X56107129Y-44570696D01*
X55967809Y-44362191D01*
X55757765Y-44221843D01*
X55510000Y-44172560D01*
X55495000Y-44172560D01*
X55495000Y-39457161D01*
X55512337Y-39370000D01*
X55495000Y-39282839D01*
X55495000Y-39282835D01*
X55443652Y-39024690D01*
X55248049Y-38731951D01*
X55174156Y-38682577D01*
X52249425Y-35757847D01*
X52200049Y-35683951D01*
X51907310Y-35488348D01*
X51649165Y-35437000D01*
X51649161Y-35437000D01*
X51562000Y-35419663D01*
X51474839Y-35437000D01*
X51052252Y-35437000D01*
X51000481Y-35359519D01*
X50923000Y-35307748D01*
X50923000Y-34925000D01*
X52070000Y-34925000D01*
X52118601Y-34915333D01*
X52159803Y-34887803D01*
X52187333Y-34846601D01*
X52197000Y-34798000D01*
X52197000Y-29060000D01*
X54718276Y-29060000D01*
X54903380Y-29990580D01*
X55430511Y-30779489D01*
X56219420Y-31306620D01*
X56915103Y-31445000D01*
X57384897Y-31445000D01*
X58080580Y-31306620D01*
X58869489Y-30779489D01*
X59396620Y-29990580D01*
X59581724Y-29060000D01*
X59419571Y-28244800D01*
X65903173Y-28244800D01*
X66068874Y-29077836D01*
X66540751Y-29784049D01*
X67246964Y-30255926D01*
X67869721Y-30379800D01*
X69290279Y-30379800D01*
X69913036Y-30255926D01*
X70619249Y-29784049D01*
X71091126Y-29077836D01*
X71256827Y-28244800D01*
X71091126Y-27411764D01*
X70619249Y-26705551D01*
X69913036Y-26233674D01*
X69911090Y-26233287D01*
X70014362Y-26206282D01*
X70679476Y-25702270D01*
X71101084Y-24982096D01*
X71165113Y-24741233D01*
X71052165Y-24409400D01*
X68707000Y-24409400D01*
X68707000Y-24429400D01*
X68453000Y-24429400D01*
X68453000Y-24409400D01*
X66107835Y-24409400D01*
X65994887Y-24741233D01*
X66058916Y-24982096D01*
X66480524Y-25702270D01*
X67145638Y-26206282D01*
X67248910Y-26233287D01*
X67246964Y-26233674D01*
X66540751Y-26705551D01*
X66068874Y-27411764D01*
X65903173Y-28244800D01*
X59419571Y-28244800D01*
X59396620Y-28129420D01*
X58869489Y-27340511D01*
X58080580Y-26813380D01*
X57384897Y-26675000D01*
X56915103Y-26675000D01*
X56219420Y-26813380D01*
X55430511Y-27340511D01*
X54903380Y-28129420D01*
X54718276Y-29060000D01*
X52197000Y-29060000D01*
X52197000Y-24238578D01*
X53650156Y-22785423D01*
X53724049Y-22736049D01*
X53810946Y-22606000D01*
X53919652Y-22443310D01*
X53924655Y-22418157D01*
X53971000Y-22185165D01*
X53971000Y-22185161D01*
X53988337Y-22098000D01*
X53971000Y-22010839D01*
X53971000Y-20432578D01*
X55484579Y-18919000D01*
X55938626Y-18919000D01*
X55430511Y-19258511D01*
X54903380Y-20047420D01*
X54718276Y-20978000D01*
X54903380Y-21908580D01*
X55430511Y-22697489D01*
X56219420Y-23224620D01*
X56915103Y-23363000D01*
X57384897Y-23363000D01*
X58080580Y-23224620D01*
X58869489Y-22697489D01*
X59396620Y-21908580D01*
X59581724Y-20978000D01*
X59396620Y-20047420D01*
X58869489Y-19258511D01*
X58361374Y-18919000D01*
X58815422Y-18919000D01*
X60780577Y-20884156D01*
X60829951Y-20958049D01*
X60903844Y-21007423D01*
X60903845Y-21007424D01*
X60939364Y-21031157D01*
X61122690Y-21153652D01*
X61380835Y-21205000D01*
X61380839Y-21205000D01*
X61467999Y-21222337D01*
X61555159Y-21205000D01*
X65932560Y-21205000D01*
X65932560Y-21820000D01*
X65981843Y-22067765D01*
X66122191Y-22277809D01*
X66332235Y-22418157D01*
X66580000Y-22467440D01*
X67001900Y-22467440D01*
X66480524Y-22862530D01*
X66058916Y-23582704D01*
X65994887Y-23823567D01*
X66107835Y-24155400D01*
X68453000Y-24155400D01*
X68453000Y-24135400D01*
X68707000Y-24135400D01*
X68707000Y-24155400D01*
X71052165Y-24155400D01*
X71165113Y-23823567D01*
X71101084Y-23582704D01*
X70679476Y-22862530D01*
X70158100Y-22467440D01*
X70580000Y-22467440D01*
X70827765Y-22418157D01*
X71037809Y-22277809D01*
X71178157Y-22067765D01*
X71227440Y-21820000D01*
X71227440Y-18820000D01*
X71178157Y-18572235D01*
X71037809Y-18362191D01*
X70827765Y-18221843D01*
X70580000Y-18172560D01*
X68830000Y-18172560D01*
X68830000Y-16889252D01*
X68907481Y-16837481D01*
X69202542Y-16395891D01*
X69306154Y-15875000D01*
X69202542Y-15354109D01*
X68907481Y-14912519D01*
X68465891Y-14617458D01*
X68076485Y-14540000D01*
X67813515Y-14540000D01*
X67424109Y-14617458D01*
X66982519Y-14912519D01*
X66687458Y-15354109D01*
X66583846Y-15875000D01*
X66687458Y-16395891D01*
X66982519Y-16837481D01*
X67060000Y-16889252D01*
X67060001Y-18172560D01*
X66580000Y-18172560D01*
X66332235Y-18221843D01*
X66122191Y-18362191D01*
X65981843Y-18572235D01*
X65932560Y-18820000D01*
X65932560Y-19435000D01*
X61834579Y-19435000D01*
X59869425Y-17469847D01*
X59820049Y-17395951D01*
X59527310Y-17200348D01*
X59269165Y-17149000D01*
X59269161Y-17149000D01*
X59182000Y-17131663D01*
X59094839Y-17149000D01*
X55205161Y-17149000D01*
X55118000Y-17131663D01*
X55030839Y-17149000D01*
X55030835Y-17149000D01*
X54772690Y-17200348D01*
X54553845Y-17346576D01*
X54553844Y-17346577D01*
X54479951Y-17395951D01*
X54430577Y-17469844D01*
X52521847Y-19378575D01*
X52447951Y-19427951D01*
X52252348Y-19720691D01*
X52201000Y-19978836D01*
X52201000Y-19978839D01*
X52197000Y-19998949D01*
X52197000Y-18650578D01*
X53650156Y-17197423D01*
X53724049Y-17148049D01*
X53773425Y-17074154D01*
X53919651Y-16855311D01*
X53919652Y-16855310D01*
X53971000Y-16597165D01*
X53971000Y-16597161D01*
X53988337Y-16510001D01*
X53971000Y-16422841D01*
X53971000Y-13828578D01*
X54178828Y-13620750D01*
X70220000Y-13620750D01*
X70220000Y-14361309D01*
X70316673Y-14594698D01*
X70495301Y-14773327D01*
X70728690Y-14870000D01*
X71469250Y-14870000D01*
X71628000Y-14711250D01*
X71628000Y-13462000D01*
X71882000Y-13462000D01*
X71882000Y-14711250D01*
X72040750Y-14870000D01*
X72781310Y-14870000D01*
X73014699Y-14773327D01*
X73193327Y-14594698D01*
X73290000Y-14361309D01*
X73290000Y-13620750D01*
X73131250Y-13462000D01*
X71882000Y-13462000D01*
X71628000Y-13462000D01*
X70378750Y-13462000D01*
X70220000Y-13620750D01*
X54178828Y-13620750D01*
X57309908Y-10489670D01*
X70220000Y-10489670D01*
X70220000Y-11100330D01*
X70453690Y-11664507D01*
X70630044Y-11840861D01*
X70495301Y-11896673D01*
X70316673Y-12075302D01*
X70220000Y-12308691D01*
X70220000Y-13049250D01*
X70378750Y-13208000D01*
X71628000Y-13208000D01*
X71628000Y-13188000D01*
X71882000Y-13188000D01*
X71882000Y-13208000D01*
X73131250Y-13208000D01*
X73290000Y-13049250D01*
X73290000Y-12308691D01*
X73193327Y-12075302D01*
X73014699Y-11896673D01*
X72879956Y-11840861D01*
X73056310Y-11664507D01*
X73290000Y-11100330D01*
X73290000Y-10489670D01*
X73056310Y-9925493D01*
X72624507Y-9493690D01*
X72060330Y-9260000D01*
X71449670Y-9260000D01*
X70885493Y-9493690D01*
X70453690Y-9925493D01*
X70220000Y-10489670D01*
X57309908Y-10489670D01*
X59810126Y-7989452D01*
X66610000Y-7989452D01*
X66610000Y-8520548D01*
X66813242Y-9011217D01*
X67188783Y-9386758D01*
X67679452Y-9590000D01*
X68210548Y-9590000D01*
X68701217Y-9386758D01*
X69076758Y-9011217D01*
X69280000Y-8520548D01*
X69280000Y-7989452D01*
X69076758Y-7498783D01*
X68701217Y-7123242D01*
X68210548Y-6920000D01*
X67679452Y-6920000D01*
X67188783Y-7123242D01*
X66813242Y-7498783D01*
X66610000Y-7989452D01*
X59810126Y-7989452D01*
X60254156Y-7545422D01*
X60328049Y-7496049D01*
X60523652Y-7203310D01*
X60575000Y-6945165D01*
X60575000Y-6945161D01*
X60592337Y-6858001D01*
X60575000Y-6770841D01*
X60575000Y-5865440D01*
X60590000Y-5865440D01*
X60837765Y-5816157D01*
X61047809Y-5675809D01*
X61188157Y-5465765D01*
X61237440Y-5218000D01*
X61237440Y-3418000D01*
X61188157Y-3170235D01*
X61047809Y-2960191D01*
X60837765Y-2819843D01*
X60590000Y-2770560D01*
X58790000Y-2770560D01*
X58542235Y-2819843D01*
X58332191Y-2960191D01*
X58192871Y-3168696D01*
X57748927Y-2872062D01*
X57301182Y-2783000D01*
X56998818Y-2783000D01*
X56551073Y-2872062D01*
X56043327Y-3211327D01*
X55872376Y-3467174D01*
X55517576Y-3080034D01*
X54974742Y-2826954D01*
X54737000Y-2947003D01*
X54737000Y-4191000D01*
X54757000Y-4191000D01*
X54757000Y-4445000D01*
X54737000Y-4445000D01*
X54737000Y-5688997D01*
X54974742Y-5809046D01*
X55517576Y-5555966D01*
X55872376Y-5168826D01*
X56043327Y-5424673D01*
X56551073Y-5763938D01*
X56998818Y-5853000D01*
X57301182Y-5853000D01*
X57748927Y-5763938D01*
X58192871Y-5467304D01*
X58332191Y-5675809D01*
X58542235Y-5816157D01*
X58790000Y-5865440D01*
X58805000Y-5865440D01*
X58805000Y-6491421D01*
X52719422Y-12577000D01*
X51052252Y-12577000D01*
X51000481Y-12499519D01*
X50558891Y-12204458D01*
X50169485Y-12127000D01*
X49906515Y-12127000D01*
X49517109Y-12204458D01*
X49075519Y-12499519D01*
X48780458Y-12941109D01*
X48676846Y-13462000D01*
X48780458Y-13982891D01*
X49026421Y-14351000D01*
X43450444Y-14351000D01*
X43468526Y-14332918D01*
X43353277Y-14217669D01*
X43589042Y-14155831D01*
X43765419Y-13654878D01*
X43736664Y-13124560D01*
X43589042Y-12768169D01*
X43353275Y-12706331D01*
X42597605Y-13462000D01*
X42611748Y-13476142D01*
X42432142Y-13655748D01*
X42418000Y-13641605D01*
X42403858Y-13655748D01*
X42224252Y-13476142D01*
X42238395Y-13462000D01*
X41482725Y-12706331D01*
X41246958Y-12768169D01*
X41070581Y-13269122D01*
X41099336Y-13799440D01*
X41246958Y-14155831D01*
X41482723Y-14217669D01*
X41367474Y-14332918D01*
X41385556Y-14351000D01*
X29734444Y-14351000D01*
X29752526Y-14332918D01*
X29637277Y-14217669D01*
X29873042Y-14155831D01*
X30049419Y-13654878D01*
X30020664Y-13124560D01*
X29873042Y-12768169D01*
X29637275Y-12706331D01*
X28881605Y-13462000D01*
X28895748Y-13476142D01*
X28716142Y-13655748D01*
X28702000Y-13641605D01*
X28687858Y-13655748D01*
X28508252Y-13476142D01*
X28522395Y-13462000D01*
X27766725Y-12706331D01*
X27530958Y-12768169D01*
X27354581Y-13269122D01*
X27383336Y-13799440D01*
X27530958Y-14155831D01*
X27766723Y-14217669D01*
X27651474Y-14332918D01*
X27669556Y-14351000D01*
X22093579Y-14351000D01*
X22339542Y-13982891D01*
X22443154Y-13462000D01*
X22339542Y-12941109D01*
X22062660Y-12526725D01*
X27946331Y-12526725D01*
X28702000Y-13282395D01*
X29457669Y-12526725D01*
X41662331Y-12526725D01*
X42418000Y-13282395D01*
X43173669Y-12526725D01*
X43111831Y-12290958D01*
X42610878Y-12114581D01*
X42080560Y-12143336D01*
X41724169Y-12290958D01*
X41662331Y-12526725D01*
X29457669Y-12526725D01*
X29395831Y-12290958D01*
X28894878Y-12114581D01*
X28364560Y-12143336D01*
X28008169Y-12290958D01*
X27946331Y-12526725D01*
X22062660Y-12526725D01*
X22044481Y-12499519D01*
X21602891Y-12204458D01*
X21213485Y-12127000D01*
X20950515Y-12127000D01*
X20561109Y-12204458D01*
X20119519Y-12499519D01*
X19824458Y-12941109D01*
X19720846Y-13462000D01*
X19824458Y-13982891D01*
X20070421Y-14351000D01*
X19050000Y-14351000D01*
X19001399Y-14360667D01*
X18960197Y-14388197D01*
X18932667Y-14429399D01*
X18923000Y-14478000D01*
X18923000Y-24003000D01*
X710000Y-24003000D01*
X710000Y-20978000D01*
X11538276Y-20978000D01*
X11723380Y-21908580D01*
X12250511Y-22697489D01*
X13039420Y-23224620D01*
X13735103Y-23363000D01*
X14204897Y-23363000D01*
X14900580Y-23224620D01*
X15689489Y-22697489D01*
X16216620Y-21908580D01*
X16401724Y-20978000D01*
X16216620Y-20047420D01*
X15689489Y-19258511D01*
X14900580Y-18731380D01*
X14204897Y-18593000D01*
X13735103Y-18593000D01*
X13039420Y-18731380D01*
X12250511Y-19258511D01*
X11723380Y-20047420D01*
X11538276Y-20978000D01*
X710000Y-20978000D01*
X710000Y-8725000D01*
X20142560Y-8725000D01*
X20142560Y-10325000D01*
X20191843Y-10572765D01*
X20332191Y-10782809D01*
X20542235Y-10923157D01*
X20790000Y-10972440D01*
X22390000Y-10972440D01*
X22637765Y-10923157D01*
X22847809Y-10782809D01*
X22988157Y-10572765D01*
X23037440Y-10325000D01*
X23037440Y-8725000D01*
X22988157Y-8477235D01*
X22847809Y-8267191D01*
X22637765Y-8126843D01*
X22390000Y-8077560D01*
X20790000Y-8077560D01*
X20542235Y-8126843D01*
X20332191Y-8267191D01*
X20191843Y-8477235D01*
X20142560Y-8725000D01*
X710000Y-8725000D01*
X710000Y-4902668D01*
X1130336Y-5917448D01*
X2082552Y-6869664D01*
X3326682Y-7385000D01*
X4673318Y-7385000D01*
X5917448Y-6869664D01*
X6869664Y-5917448D01*
X7381097Y-4682740D01*
X9938964Y-4682740D01*
X10117760Y-5114417D01*
X10522424Y-5555966D01*
X11065258Y-5809046D01*
X11303000Y-5688997D01*
X11303000Y-4445000D01*
X10059622Y-4445000D01*
X9938964Y-4682740D01*
X7381097Y-4682740D01*
X7385000Y-4673318D01*
X7385000Y-3953260D01*
X9938964Y-3953260D01*
X10059622Y-4191000D01*
X11303000Y-4191000D01*
X11303000Y-2947003D01*
X11557000Y-2947003D01*
X11557000Y-4191000D01*
X11577000Y-4191000D01*
X11577000Y-4445000D01*
X11557000Y-4445000D01*
X11557000Y-5688997D01*
X11794742Y-5809046D01*
X12337576Y-5555966D01*
X12692376Y-5168826D01*
X12863327Y-5424673D01*
X13371073Y-5763938D01*
X13818818Y-5853000D01*
X14121182Y-5853000D01*
X14568927Y-5763938D01*
X15012871Y-5467304D01*
X15152191Y-5675809D01*
X15362235Y-5816157D01*
X15610000Y-5865440D01*
X17410000Y-5865440D01*
X17657765Y-5816157D01*
X17867809Y-5675809D01*
X18008157Y-5465765D01*
X18057440Y-5218000D01*
X18057440Y-4350000D01*
X24522560Y-4350000D01*
X24522560Y-8350000D01*
X24571843Y-8597765D01*
X24712191Y-8807809D01*
X24922235Y-8948157D01*
X25170000Y-8997440D01*
X28170000Y-8997440D01*
X28417765Y-8948157D01*
X28627809Y-8807809D01*
X28768157Y-8597765D01*
X28817440Y-8350000D01*
X28817440Y-7976618D01*
X29093152Y-8389249D01*
X29799365Y-8861126D01*
X30632400Y-9026827D01*
X31465436Y-8861126D01*
X32171649Y-8389249D01*
X32613600Y-7727823D01*
X33055552Y-8389249D01*
X33761765Y-8861126D01*
X34594800Y-9026827D01*
X35427836Y-8861126D01*
X36134049Y-8389249D01*
X36605926Y-7683035D01*
X36729800Y-7060278D01*
X36729800Y-5639721D01*
X36605926Y-5016964D01*
X36160275Y-4350000D01*
X38492560Y-4350000D01*
X38492560Y-8350000D01*
X38541843Y-8597765D01*
X38682191Y-8807809D01*
X38892235Y-8948157D01*
X39140000Y-8997440D01*
X42140000Y-8997440D01*
X42387765Y-8948157D01*
X42597809Y-8807809D01*
X42738157Y-8597765D01*
X42787440Y-8350000D01*
X42787440Y-7976618D01*
X43063152Y-8389249D01*
X43769365Y-8861126D01*
X44602400Y-9026827D01*
X45435436Y-8861126D01*
X45639162Y-8725000D01*
X48082560Y-8725000D01*
X48082560Y-10325000D01*
X48131843Y-10572765D01*
X48272191Y-10782809D01*
X48482235Y-10923157D01*
X48730000Y-10972440D01*
X50330000Y-10972440D01*
X50577765Y-10923157D01*
X50787809Y-10782809D01*
X50928157Y-10572765D01*
X50977440Y-10325000D01*
X50977440Y-8725000D01*
X50928157Y-8477235D01*
X50787809Y-8267191D01*
X50577765Y-8126843D01*
X50330000Y-8077560D01*
X48730000Y-8077560D01*
X48482235Y-8126843D01*
X48272191Y-8267191D01*
X48131843Y-8477235D01*
X48082560Y-8725000D01*
X45639162Y-8725000D01*
X46141649Y-8389249D01*
X46613526Y-7683035D01*
X46737400Y-7060278D01*
X46737400Y-5639721D01*
X46613526Y-5016964D01*
X46390205Y-4682740D01*
X53118964Y-4682740D01*
X53297760Y-5114417D01*
X53702424Y-5555966D01*
X54245258Y-5809046D01*
X54483000Y-5688997D01*
X54483000Y-4445000D01*
X53239622Y-4445000D01*
X53118964Y-4682740D01*
X46390205Y-4682740D01*
X46141649Y-4310751D01*
X45606626Y-3953260D01*
X53118964Y-3953260D01*
X53239622Y-4191000D01*
X54483000Y-4191000D01*
X54483000Y-2947003D01*
X54245258Y-2826954D01*
X53702424Y-3080034D01*
X53297760Y-3521583D01*
X53118964Y-3953260D01*
X45606626Y-3953260D01*
X45435435Y-3838874D01*
X44602400Y-3673173D01*
X43769364Y-3838874D01*
X43063151Y-4310751D01*
X42787440Y-4723382D01*
X42787440Y-4350000D01*
X42738157Y-4102235D01*
X42597809Y-3892191D01*
X42387765Y-3751843D01*
X42140000Y-3702560D01*
X39140000Y-3702560D01*
X38892235Y-3751843D01*
X38682191Y-3892191D01*
X38541843Y-4102235D01*
X38492560Y-4350000D01*
X36160275Y-4350000D01*
X36134049Y-4310751D01*
X35427835Y-3838874D01*
X34594800Y-3673173D01*
X33761764Y-3838874D01*
X33055551Y-4310751D01*
X32613600Y-4972177D01*
X32171649Y-4310751D01*
X31465435Y-3838874D01*
X30632400Y-3673173D01*
X29799364Y-3838874D01*
X29093151Y-4310751D01*
X28817440Y-4723382D01*
X28817440Y-4350000D01*
X28768157Y-4102235D01*
X28627809Y-3892191D01*
X28417765Y-3751843D01*
X28170000Y-3702560D01*
X25170000Y-3702560D01*
X24922235Y-3751843D01*
X24712191Y-3892191D01*
X24571843Y-4102235D01*
X24522560Y-4350000D01*
X18057440Y-4350000D01*
X18057440Y-3418000D01*
X18008157Y-3170235D01*
X17867809Y-2960191D01*
X17657765Y-2819843D01*
X17410000Y-2770560D01*
X15610000Y-2770560D01*
X15362235Y-2819843D01*
X15152191Y-2960191D01*
X15012871Y-3168696D01*
X14568927Y-2872062D01*
X14121182Y-2783000D01*
X13818818Y-2783000D01*
X13371073Y-2872062D01*
X12863327Y-3211327D01*
X12692376Y-3467174D01*
X12337576Y-3080034D01*
X11794742Y-2826954D01*
X11557000Y-2947003D01*
X11303000Y-2947003D01*
X11065258Y-2826954D01*
X10522424Y-3080034D01*
X10117760Y-3521583D01*
X9938964Y-3953260D01*
X7385000Y-3953260D01*
X7385000Y-3326682D01*
X6869664Y-2082552D01*
X5917448Y-1130336D01*
X4902668Y-710000D01*
X20795513Y-710000D01*
X20555423Y-870423D01*
M02*
