<?xml version="1.0" standalone="no"?>
 <!DOCTYPE svg PUBLIC "-//W3C//DTD SVG 1.1//EN" 
 "http://www.w3.org/Graphics/SVG/1.1/DTD/svg11.dtd"> 
<svg xmlns="http://www.w3.org/2000/svg" version="1.1" 
    width="29.7002cm" height="21.0007cm" viewBox="0 0 116930 82680 ">
<title>SVG Picture created as high-voltage_driver_V1.0-F.SilkS.svg date 2018/12/15 00:11:50 </title>
  <desc>Picture generated by PCBNEW </desc>
<g style="fill:#000000; fill-opacity:1;stroke:#000000; stroke-opacity:1;
stroke-linecap:round; stroke-linejoin:round; "
 transform="translate(0 0) scale(1 1)">
</g>
<g style="fill:#000000; fill-opacity:0.0; 
stroke:#000000; stroke-width:-0.000393701; stroke-opacity:1; 
stroke-linecap:round; stroke-linejoin:round;">
</g>
<g style="fill:#000000; fill-opacity:0.0; 
stroke:#000000; stroke-width:118.11; stroke-opacity:1; 
stroke-linecap:round; stroke-linejoin:round;">
<path d="M7932 11436
L8214 11239
" />
<path d="M7932 11099
L8523 11099
L8523 11324
L8495 11380
L8467 11408
L8410 11436
L8326 11436
L8270 11408
L8242 11380
L8214 11324
L8214 11099
" />
<path d="M7960 11914
L7932 11858
L7932 11745
L7960 11689
L8017 11661
L8242 11661
L8298 11689
L8326 11745
L8326 11858
L8298 11914
L8242 11942
L8185 11942
L8129 11661
" />
<path d="M8326 12139
L7932 12280
L8326 12420
" />
<path d="M7989 12645
L7960 12673
L7932 12645
L7960 12617
L7989 12645
L7932 12645
" />
<path d="M7932 13686
L7932 13348
" />
<path d="M7932 13517
L8523 13517
L8439 13461
L8382 13405
L8354 13348
" />
<path d="M7989 13939
L7960 13967
L7932 13939
L7960 13911
L7989 13939
L7932 13939
" />
<path d="M8523 14333
L8523 14389
L8495 14445
L8467 14473
L8410 14501
L8298 14529
L8157 14529
L8045 14501
L7989 14473
L7960 14445
L7932 14389
L7932 14333
L7960 14276
L7989 14248
L8045 14220
L8157 14192
L8298 14192
L8410 14220
L8467 14248
L8495 14276
L8523 14333
" />
<path d="M7707 15401
L7735 15373
L7820 15317
L7876 15289
L7960 15261
L8101 15232
L8214 15232
L8354 15261
L8439 15289
L8495 15317
L8579 15373
L8607 15401
" />
<path d="M8467 15598
L8495 15626
L8523 15682
L8523 15823
L8495 15879
L8467 15907
L8410 15935
L8354 15935
L8270 15907
L7932 15570
L7932 15935
" />
<path d="M8523 16301
L8523 16357
L8495 16414
L8467 16442
L8410 16470
L8298 16498
L8157 16498
L8045 16470
L7989 16442
L7960 16414
L7932 16357
L7932 16301
L7960 16245
L7989 16217
L8045 16189
L8157 16160
L8298 16160
L8410 16189
L8467 16217
L8495 16245
L8523 16301
" />
<path d="M7932 17060
L7932 16723
" />
<path d="M7932 16892
L8523 16892
L8439 16835
L8382 16779
L8354 16723
" />
<path d="M8270 17398
L8298 17342
L8326 17313
L8382 17285
L8410 17285
L8467 17313
L8495 17342
L8523 17398
L8523 17510
L8495 17567
L8467 17595
L8410 17623
L8382 17623
L8326 17595
L8298 17567
L8270 17510
L8270 17398
L8242 17342
L8214 17313
L8157 17285
L8045 17285
L7989 17313
L7960 17342
L7932 17398
L7932 17510
L7960 17567
L7989 17595
L8045 17623
L8157 17623
L8214 17595
L8242 17567
L8270 17510
" />
<path d="M8157 17876
L8157 18326
" />
<path d="M8523 18720
L8523 18776
L8495 18832
L8467 18860
L8410 18888
L8298 18916
L8157 18916
L8045 18888
L7989 18860
L7960 18832
L7932 18776
L7932 18720
L7960 18663
L7989 18635
L8045 18607
L8157 18579
L8298 18579
L8410 18607
L8467 18635
L8495 18663
L8523 18720
" />
<path d="M8523 19113
L8523 19507
L7932 19254
" />
<path d="M8157 19732
L8157 20182
" />
<path d="M8523 20576
L8523 20632
L8495 20688
L8467 20716
L8410 20744
L8298 20772
L8157 20772
L8045 20744
L7989 20716
L7960 20688
L7932 20632
L7932 20576
L7960 20519
L7989 20491
L8045 20463
L8157 20435
L8298 20435
L8410 20463
L8467 20491
L8495 20519
L8523 20576
" />
<path d="M7932 21335
L7932 20997
" />
<path d="M7932 21166
L8523 21166
L8439 21110
L8382 21054
L8354 20997
" />
<path d="M7707 21532
L7735 21560
L7820 21616
L7876 21644
L7960 21672
L8101 21700
L8214 21700
L8354 21672
L8439 21644
L8495 21616
L8579 21560
L8607 21532
" />
<path d="M8932 10353
L9523 10353
L9523 10578
L9495 10635
L9467 10663
L9410 10691
L9326 10691
L9270 10663
L9242 10635
L9214 10578
L9214 10353
" />
<path d="M8932 10944
L9326 10944
" />
<path d="M9523 10944
L9495 10916
L9467 10944
L9495 10972
L9523 10944
L9467 10944
" />
<path d="M9326 11225
L8932 11225
" />
<path d="M9270 11225
L9298 11253
L9326 11310
L9326 11394
L9298 11450
L9242 11478
L8932 11478
" />
<path d="M9242 11956
L9214 12041
L9185 12069
L9129 12097
L9045 12097
L8989 12069
L8960 12041
L8932 11984
L8932 11759
L9523 11759
L9523 11956
L9495 12013
L9467 12041
L9410 12069
L9354 12069
L9298 12041
L9270 12013
L9242 11956
L9242 11759
" />
<path d="M9326 12603
L8932 12603
" />
<path d="M9326 12350
L9017 12350
L8960 12378
L8932 12434
L8932 12519
L8960 12575
L8989 12603
" />
<path d="M8960 12856
L8932 12912
L8932 13025
L8960 13081
L9017 13109
L9045 13109
L9101 13081
L9129 13025
L9129 12941
L9157 12884
L9214 12856
L9242 12856
L9298 12884
L9326 12941
L9326 13025
L9298 13081
" />
<path d="M8932 13812
L9523 13812
" />
<path d="M9242 13812
L9242 14150
" />
<path d="M8932 14150
L9523 14150
" />
<path d="M8932 14431
L9326 14431
" />
<path d="M9523 14431
L9495 14403
L9467 14431
L9495 14459
L9523 14431
L9467 14431
" />
<path d="M9326 14965
L8848 14965
L8792 14937
L8764 14909
L8735 14853
L8735 14768
L8764 14712
" />
<path d="M8960 14965
L8932 14909
L8932 14797
L8960 14740
L8989 14712
L9045 14684
L9214 14684
L9270 14712
L9298 14740
L9326 14797
L9326 14909
L9298 14965
" />
<path d="M8932 15247
L9523 15247
" />
<path d="M8932 15500
L9242 15500
L9298 15471
L9326 15415
L9326 15331
L9298 15275
L9270 15247
" />
<path d="M9157 15781
L9157 16231
" />
<path d="M9326 16456
L8932 16596
L9326 16737
" />
<path d="M8932 17046
L8960 16990
L8989 16962
L9045 16934
L9214 16934
L9270 16962
L9298 16990
L9326 17046
L9326 17131
L9298 17187
L9270 17215
L9214 17243
L9045 17243
L8989 17215
L8960 17187
L8932 17131
L8932 17046
" />
<path d="M8932 17581
L8960 17524
L9017 17496
L9523 17496
" />
<path d="M9326 17721
L9326 17946
" />
<path d="M9523 17806
L9017 17806
L8960 17834
L8932 17890
L8932 17946
" />
<path d="M8932 18396
L9242 18396
L9298 18368
L9326 18312
L9326 18199
L9298 18143
" />
<path d="M8960 18396
L8932 18340
L8932 18199
L8960 18143
L9017 18115
L9073 18115
L9129 18143
L9157 18199
L9157 18340
L9185 18396
" />
<path d="M9326 18930
L8848 18930
L8792 18902
L8764 18874
L8735 18818
L8735 18734
L8764 18677
" />
<path d="M8960 18930
L8932 18874
L8932 18762
L8960 18705
L8989 18677
L9045 18649
L9214 18649
L9270 18677
L9298 18705
L9326 18762
L9326 18874
L9298 18930
" />
<path d="M8960 19437
L8932 19380
L8932 19268
L8960 19212
L9017 19184
L9242 19184
L9298 19212
L9326 19268
L9326 19380
L9298 19437
L9242 19465
L9185 19465
L9129 19184
" />
<path d="M8932 20168
L9523 20168
L9523 20308
L9495 20393
L9439 20449
L9382 20477
L9270 20505
L9185 20505
L9073 20477
L9017 20449
L8960 20393
L8932 20308
L8932 20168
" />
<path d="M8932 20758
L9326 20758
" />
<path d="M9214 20758
L9270 20786
L9298 20815
L9326 20871
L9326 20927
" />
<path d="M8932 21124
L9326 21124
" />
<path d="M9523 21124
L9495 21096
L9467 21124
L9495 21152
L9523 21124
L9467 21124
" />
<path d="M9326 21349
L8932 21489
L9326 21630
" />
<path d="M8960 22080
L8932 22024
L8932 21911
L8960 21855
L9017 21827
L9242 21827
L9298 21855
L9326 21911
L9326 22024
L9298 22080
L9242 22108
L9185 22108
L9129 21827
" />
<path d="M8932 22361
L9326 22361
" />
<path d="M9214 22361
L9270 22389
L9298 22417
L9326 22474
L9326 22530
" />
</g>
<g style="fill:#000000; fill-opacity:0.0; 
stroke:#000000; stroke-width:59.0551; stroke-opacity:1; 
stroke-linecap:round; stroke-linejoin:round;">
<path d="M36027 26185
L6500 26185
" />
<path d="M36027 6500
L36027 26185
" />
<path d="M6500 6500
L6500 26185
" />
<path d="M6500 6500
L36027 6500
" />
</g>
<g style="fill:#000000; fill-opacity:0.0; 
stroke:#000000; stroke-width:47.2441; stroke-opacity:1; 
stroke-linecap:round; stroke-linejoin:round;">
<path d="M23967 20461
L23967 21138
" />
<path d="M23967 21138
L25432 21138
" />
<path d="M25432 21138
L25432 20461
" />
<path d="M25432 20461
L23967 20461
" />
<path d="M23546 20800
L23967 20800
" />
<path d="M25853 20800
L25432 20800
" />
<path d="M34325.4 10591.6 A783.465 783.465 0.0 0 0 34263.6 11864.2 " />
<path d="M35236.4 11864.2 A783.465 783.465 0.0 0 0 35174.6 10591.6 " />
<path d="M34324.9 10840.1 A590.551 590.551 0.0 0 0 34324.8 11659.8 " />
<path d="M35175.2 11659.8 A590.551 590.551 0.0 0 0 35175.1 10840.1 " />
<path d="M34263 11864
L34324 11864
" />
<path d="M35175 11864
L35236 11864
" />
<path d="M21564 13196
L19222 13196
" />
<path d="M19222 13196
L19222 19140
" />
<path d="M19222 19140
L21564 19140
" />
<path d="M21564 19140
L21564 13196
" />
<path d="M21564 14495
L21269 14495
" />
<path d="M21269 14495
L21269 17841
" />
<path d="M21269 17841
L21564 17841
" />
<path d="M21564 17841
L21564 14495
" />
<path d="M21564 13196
L21269 13196
" />
<path d="M21269 13196
L21269 13904
" />
<path d="M21269 13904
L21564 13904
" />
<path d="M21564 13904
L21564 13196
" />
<path d="M21564 18432
L21269 18432
" />
<path d="M21269 18432
L21269 19140
" />
<path d="M21269 19140
L21564 19140
" />
<path d="M21564 19140
L21564 18432
" />
<path d="M20678 13196
L20678 13491
" />
<path d="M20678 13491
L19517 13491
" />
<path d="M19517 13491
L19517 16168
" />
<path d="M20678 19140
L20678 18845
" />
<path d="M20678 18845
L19517 18845
" />
<path d="M19517 18845
L19517 16168
" />
<path d="M21682 14062
L21682 13077
" />
<path d="M21682 13077
L20698 13077
" />
</g>
<g style="fill:#000000; fill-opacity:0.0; 
stroke:#000000; stroke-width:59.0551; stroke-opacity:1; 
stroke-linecap:round; stroke-linejoin:round;">
<path d="M31500 14250
L32250 14250
" />
<path d="M32250 14250
L32250 17750
" />
<path d="M32250 17750
L31500 17750
" />
<path d="M35500 13750
L35500 18375
" />
<path d="M35500 18375
L31500 18375
" />
<path d="M31500 18375
L31500 13750
" />
<path d="M31500 13750
L35500 13750
" />
<path d="M16750 11000
L16750 10250
" />
<path d="M16750 10250
L20250 10250
" />
<path d="M20250 10250
L20250 11000
" />
<path d="M16250 7000
L20875 7000
" />
<path d="M20875 7000
L20875 11000
" />
<path d="M20875 11000
L16250 11000
" />
<path d="M16250 11000
L16250 7000
" />
<path d="M22250 11000
L22250 10000
" />
<path d="M22250 10000
L24250 10000
" />
<path d="M24250 10000
L24250 11000
" />
<path d="M24750 11000
L21750 11000
" />
<path d="M21750 11000
L21750 7000
" />
<path d="M21750 7000
L24750 7000
" />
<path d="M24750 7000
L24750 11000
" />
<path d="M24250 21500
L24250 22250
" />
<path d="M24250 22250
L20750 22250
" />
<path d="M20750 22250
L20750 21500
" />
<path d="M24750 25500
L20125 25500
" />
<path d="M20125 25500
L20125 21500
" />
<path d="M20125 21500
L24750 21500
" />
<path d="M24750 21500
L24750 25500
" />
<path d="M18750 21500
L18750 22500
" />
<path d="M18750 22500
L16750 22500
" />
<path d="M16750 22500
L16750 21500
" />
<path d="M16250 21500
L19250 21500
" />
<path d="M19250 21500
L19250 25500
" />
<path d="M19250 25500
L16250 25500
" />
<path d="M16250 25500
L16250 21500
" />
</g>
<g style="fill:#000000; fill-opacity:0.0; 
stroke:#000000; stroke-width:47.2441; stroke-opacity:1; 
stroke-linecap:round; stroke-linejoin:round;">
<path d="M14015 9652
L9984 9652
" />
<path d="M14015 15908
L9984 15908
" />
<path d="M14015 15908
L14015 9652
" />
<path d="M9984 15908
L9984 9652
" />
<path d="M13000 9652
L13000 8613
" />
<path d="M12000 9652
L12000 8619
" />
<path d="M11000 9652
L11000 8619
" />
<path d="M31015 9652
L26984 9652
" />
<path d="M31015 15908
L26984 15908
" />
<path d="M31015 15908
L31015 9652
" />
<path d="M26984 15908
L26984 9652
" />
<path d="M30000 9652
L30000 8613
" />
<path d="M29000 9652
L29000 8619
" />
<path d="M28000 9652
L28000 8619
" />
<path d="M26984 23047
L31015 23047
" />
<path d="M26984 16791
L31015 16791
" />
<path d="M26984 16791
L26984 23047
" />
<path d="M31015 16791
L31015 23047
" />
<path d="M28000 23047
L28000 24086
" />
<path d="M29000 23047
L29000 24080
" />
<path d="M30000 23047
L30000 24080
" />
<path d="M9984 23047
L14015 23047
" />
<path d="M9984 16791
L14015 16791
" />
<path d="M9984 16791
L9984 23047
" />
<path d="M14015 16791
L14015 23047
" />
<path d="M11000 23047
L11000 24086
" />
<path d="M12000 23047
L12000 24080
" />
<path d="M13000 23047
L13000 24080
" />
<path d="M17032 15538
L17032 14861
" />
<path d="M17032 14861
L15567 14861
" />
<path d="M15567 14861
L15567 15538
" />
<path d="M15567 15538
L17032 15538
" />
<path d="M17453 15200
L17032 15200
" />
<path d="M15146 15200
L15567 15200
" />
<path d="M23967 14861
L23967 15538
" />
<path d="M23967 15538
L25432 15538
" />
<path d="M25432 15538
L25432 14861
" />
<path d="M25432 14861
L23967 14861
" />
<path d="M23546 15200
L23967 15200
" />
<path d="M25853 15200
L25432 15200
" />
<path d="M23967 17061
L23967 17738
" />
<path d="M23967 17738
L25432 17738
" />
<path d="M25432 17738
L25432 17061
" />
<path d="M25432 17061
L23967 17061
" />
<path d="M23546 17400
L23967 17400
" />
<path d="M25853 17400
L25432 17400
" />
<path d="M17032 17738
L17032 17061
" />
<path d="M17032 17061
L15567 17061
" />
<path d="M15567 17061
L15567 17738
" />
<path d="M15567 17738
L17032 17738
" />
<path d="M17453 17400
L17032 17400
" />
<path d="M15146 17400
L15567 17400
" />
<path d="M33588 10517
L32911 10517
" />
<path d="M32911 10517
L32911 11982
" />
<path d="M32911 11982
L33588 11982
" />
<path d="M33588 11982
L33588 10517
" />
<path d="M33250 10096
L33250 10517
" />
<path d="M33250 12403
L33250 11982
" />
<path d="M17032 12138
L17032 11461
" />
<path d="M17032 11461
L15567 11461
" />
<path d="M15567 11461
L15567 12138
" />
<path d="M15567 12138
L17032 12138
" />
<path d="M17453 11800
L17032 11800
" />
<path d="M15146 11800
L15567 11800
" />
<path d="M23967 11461
L23967 12138
" />
<path d="M23967 12138
L25432 12138
" />
<path d="M25432 12138
L25432 11461
" />
<path d="M25432 11461
L23967 11461
" />
<path d="M23546 11800
L23967 11800
" />
<path d="M25853 11800
L25432 11800
" />
<path d="M17032 21138
L17032 20461
" />
<path d="M17032 20461
L15567 20461
" />
<path d="M15567 20461
L15567 21138
" />
<path d="M15567 21138
L17032 21138
" />
<path d="M17453 20800
L17032 20800
" />
<path d="M15146 20800
L15567 20800
" />
<path d="M16693.7 14523.6 A393.701 393.701 0.0 0 0 15906.3 14523.6 " />
<path d="M16693 14523
L17343 14523
" />
<path d="M17343 14523
L17343 12476
" />
<path d="M17343 12476
L15256 12476
" />
<path d="M15256 12476
L15256 14523
" />
<path d="M15256 14523
L15906 14523
" />
<path d="M24306.3 12476.4 A393.701 393.701 0.0 0 0 25093.7 12476.4 " />
<path d="M24306 12476
L23656 12476
" />
<path d="M23656 12476
L23656 14523
" />
<path d="M23656 14523
L25743 14523
" />
<path d="M25743 14523
L25743 12476
" />
<path d="M25743 12476
L25093 12476
" />
<path d="M24306.3 18076.4 A393.701 393.701 0.0 0 0 25093.7 18076.4 " />
<path d="M24306 18076
L23656 18076
" />
<path d="M23656 18076
L23656 20123
" />
<path d="M23656 20123
L25743 20123
" />
<path d="M25743 20123
L25743 18076
" />
<path d="M25743 18076
L25093 18076
" />
<path d="M16693.7 20123.6 A393.701 393.701 0.0 0 0 15906.3 20123.6 " />
<path d="M16693 20123
L17343 20123
" />
<path d="M17343 20123
L17343 18076
" />
<path d="M17343 18076
L15256 18076
" />
<path d="M15256 18076
L15256 20123
" />
<path d="M15256 20123
L15906 20123
" />
<path d="M14582 9561
L15417 9561
" />
<path d="M15417 9561
L15417 7938
" />
<path d="M15417 7938
L14582 7938
" />
<path d="M14582 7938
L14582 9561
" />
<path d="M15000 9864
L15000 9561
" />
<path d="M15000 7635
L15000 7938
" />
<path d="M14582 9301
L15417 9301
" />
<path d="M25582 9561
L26417 9561
" />
<path d="M26417 9561
L26417 7938
" />
<path d="M26417 7938
L25582 7938
" />
<path d="M25582 7938
L25582 9561
" />
<path d="M26000 9864
L26000 9561
" />
<path d="M26000 7635
L26000 7938
" />
<path d="M25582 9301
L26417 9301
" />
<path d="M26417 23188
L25582 23188
" />
<path d="M25582 23188
L25582 24811
" />
<path d="M25582 24811
L26417 24811
" />
<path d="M26417 24811
L26417 23188
" />
<path d="M26000 22885
L26000 23188
" />
<path d="M26000 25114
L26000 24811
" />
<path d="M26417 23448
L25582 23448
" />
<path d="M15417 23188
L14582 23188
" />
<path d="M14582 23188
L14582 24811
" />
<path d="M14582 24811
L15417 24811
" />
<path d="M15417 24811
L15417 23188
" />
<path d="M15000 22885
L15000 23188
" />
<path d="M15000 25114
L15000 24811
" />
<path d="M15417 23448
L14582 23448
" />
</g>
<g style="fill:#000000; fill-opacity:1.0; 
stroke:#000000; stroke-width:3.93701; stroke-opacity:1; 
stroke-linecap:round; stroke-linejoin:round;">
<polyline style="fill-rule:evenodd;"
points="31979,19349
31957,19393
31917,19431
31902,19442
31882,19454
31861,19461
31833,19466
31792,19467
31738,19468
31664,19466
31609,19459
31567,19446
31536,19426
31509,19397
31508,19395
31492,19366
31484,19331
31482,19287
31482,19215
31413,19215
31374,19214
31351,19210
31337,19200
31326,19179
31323,19174
31312,19151
31306,19134
31305,19121
31313,19111
31332,19105
31364,19102
31412,19101
31477,19101
31563,19102
31589,19102
31677,19104
31735,19105
31735,19215
31686,19216
31654,19218
31632,19225
31616,19236
31608,19243
31585,19274
31583,19301
31602,19329
31603,19330
31618,19341
31638,19348
31669,19352
31716,19353
31727,19353
31792,19350
31837,19342
31865,19326
31878,19303
31879,19289
31873,19257
31854,19235
31818,19221
31764,19216
31735,19215
31735,19105
31745,19105
31797,19106
31834,19108
31861,19112
31880,19116
31894,19122
31906,19129
31911,19133
31954,19176
31979,19230
31986,19293
31979,19349
" /> 
<polyline style="fill-rule:evenodd;"
points="31973,20233
31952,20270
31930,20295
31908,20314
31881,20327
31845,20335
31796,20340
31731,20341
31683,20341
31510,20341
31488,20293
31466,20244
31656,20238
31727,20236
31779,20233
31814,20230
31837,20226
31852,20220
31861,20212
31863,20210
31878,20172
31872,20134
31856,20112
31845,20102
31830,20096
31808,20092
31774,20090
31724,20089
31672,20089
31607,20089
31561,20087
31530,20084
31510,20076
31497,20062
31487,20042
31477,20014
31465,19984
31669,19987
31743,19989
31797,19990
31836,19993
31863,19997
31883,20002
31898,20009
31912,20019
31955,20063
31981,20116
31987,20175
31973,20233
" /> 
<polyline style="fill-rule:evenodd;"
points="31977,18906
31949,18960
31904,19000
31874,19014
31830,19025
31775,19031
31714,19031
31655,19027
31603,19018
31567,19005
31560,19001
31513,18953
31484,18897
31476,18835
31489,18773
31497,18755
31520,18722
31552,18692
31556,18689
31575,18678
31596,18671
31623,18666
31661,18664
31717,18663
31729,18663
31733,18663
31733,18778
31681,18779
31646,18782
31624,18787
31608,18796
31603,18801
31583,18829
31584,18855
31601,18882
31619,18899
31646,18908
31688,18913
31693,18914
31769,18915
31825,18905
31862,18885
31878,18855
31879,18844
31874,18816
31859,18797
31829,18785
31782,18779
31733,18778
31733,18663
31789,18664
31830,18666
31859,18669
31880,18676
31898,18687
31902,18689
31949,18728
31976,18771
31987,18823
31987,18840
31977,18906
" /> 
<polyline style="fill-rule:evenodd;"
points="31970,19799
31940,19844
31896,19879
31840,19900
31798,19904
31781,19904
31768,19900
31756,19889
31743,19867
31726,19832
31702,19779
31702,19778
31680,19729
31660,19689
31645,19662
31636,19652
31636,19652
31618,19661
31597,19682
31583,19706
31580,19718
31590,19752
31615,19780
31643,19794
31663,19808
31686,19834
31706,19865
31717,19893
31718,19898
31708,19905
31683,19905
31649,19901
31613,19892
31581,19879
31580,19879
31528,19842
31493,19795
31476,19740
31478,19684
31501,19631
31502,19628
31541,19586
31591,19558
31656,19543
31675,19541
31762,19537
31803,19541
31803,19652
31777,19653
31770,19661
31775,19681
31788,19711
31805,19746
31805,19747
31821,19776
31831,19788
31842,19785
31856,19773
31876,19742
31878,19708
31863,19678
31834,19658
31803,19652
31803,19541
31832,19545
31887,19564
31926,19591
31965,19639
31984,19693
31985,19747
31970,19799
" /> 
<polyline style="fill-rule:evenodd;"
points="32033,20755
31986,20759
31959,20762
31947,20768
31947,20776
31948,20778
31958,20812
31958,20856
31947,20901
31933,20929
31911,20958
31886,20979
31854,20993
31811,21002
31754,21007
31679,21008
31664,21008
31502,21008
31489,20972
31481,20946
31477,20932
31477,20932
31487,20930
31517,20929
31562,20928
31618,20928
31653,20928
31720,20928
31768,20927
31801,20925
31823,20921
31838,20915
31849,20906
31854,20901
31875,20864
31877,20824
31859,20787
31852,20780
31840,20770
31826,20763
31805,20759
31773,20757
31727,20755
31664,20755
31502,20755
31489,20719
31481,20693
31477,20679
31477,20679
31488,20678
31519,20677
31567,20676
31629,20675
31702,20675
31784,20675
31787,20675
32098,20675
32114,20712
32130,20750
32033,20755
" /> 
<polyline style="fill-rule:evenodd;"
points="31954,21281
31938,21326
31937,21327
31917,21354
31893,21375
31862,21389
31819,21399
31762,21405
31686,21408
31676,21408
31513,21413
31495,21378
31482,21352
31477,21337
31477,21336
31487,21334
31516,21332
31558,21330
31592,21330
31647,21330
31682,21327
31699,21319
31700,21300
31687,21267
31664,21218
31645,21182
31628,21163
31610,21158
31609,21158
31578,21167
31561,21193
31559,21234
31559,21264
31551,21279
31530,21289
31504,21295
31490,21287
31488,21284
31479,21255
31478,21215
31483,21174
31494,21145
31528,21105
31576,21082
31613,21077
31646,21081
31674,21093
31698,21118
31722,21158
31750,21217
31751,21221
31776,21274
31796,21307
31814,21321
31833,21318
31854,21299
31859,21294
31878,21256
31877,21218
31858,21184
31824,21162
31817,21160
31785,21140
31769,21114
31753,21077
31794,21077
31852,21088
31906,21122
31924,21139
31947,21179
31957,21229
31954,21281
" /> 
<polyline style="fill-rule:evenodd;"
points="31955,21669
31936,21721
31902,21764
31878,21780
31834,21798
31802,21798
31781,21779
31777,21772
31766,21742
31769,21726
31788,21721
31798,21721
31837,21711
31864,21686
31877,21652
31874,21613
31857,21581
31847,21571
31835,21563
31817,21558
31789,21555
31748,21552
31688,21551
31669,21550
31604,21549
31558,21547
31528,21544
31509,21540
31499,21534
31492,21524
31489,21518
31480,21493
31477,21478
31487,21473
31520,21470
31574,21469
31651,21469
31663,21470
31734,21471
31785,21473
31821,21476
31847,21481
31865,21487
31881,21496
31888,21500
31917,21527
31940,21557
31942,21560
31958,21613
31955,21669
" /> 
<polyline style="fill-rule:evenodd;"
points="31864,22192
31778,22192
31712,22191
31662,22190
31627,22188
31601,22185
31582,22180
31568,22174
31560,22169
31515,22130
31487,22080
31477,22026
31486,21971
31503,21938
31531,21904
31566,21880
31612,21866
31673,21860
31718,21859
31721,21859
31721,21939
31670,21940
31636,21942
31613,21947
31597,21956
31585,21967
31562,22004
31560,22044
31579,22082
31582,22085
31596,22097
31612,22105
31637,22110
31674,22111
31716,22112
31769,22111
31804,22109
31827,22103
31843,22094
31852,22087
31874,22052
31877,22012
31860,21973
31854,21966
31840,21953
31823,21945
31799,21941
31760,21939
31721,21939
31721,21859
31790,21862
31844,21871
31885,21889
31917,21916
31933,21938
31951,21977
31959,22023
31957,22065
31948,22089
31945,22098
31955,22104
31980,22108
32018,22112
32061,22115
32086,22120
32101,22129
32111,22145
32115,22155
32131,22192
31864,22192
" /> 
<polyline style="fill-rule:evenodd;"
points="31948,22659
31918,22661
31872,22662
31814,22663
31753,22663
31547,22663
31511,22627
31488,22602
31479,22580
31480,22550
31481,22538
31486,22501
31488,22470
31488,22462
31487,22437
31483,22401
31481,22386
31479,22352
31485,22329
31503,22306
31511,22297
31547,22261
31933,22261
31946,22290
31956,22315
31959,22330
31948,22334
31918,22338
31871,22341
31811,22343
31761,22344
31563,22347
31559,22375
31562,22400
31570,22412
31587,22415
31622,22418
31671,22420
31730,22422
31760,22422
31934,22422
31947,22458
31955,22484
31959,22498
31959,22498
31948,22499
31918,22501
31873,22503
31815,22504
31761,22505
31563,22508
31563,22577
31744,22580
31924,22583
31942,22617
31954,22642
31959,22657
31959,22657
31948,22659
" /> 
<polyline style="fill-rule:evenodd;"
points="31950,22948
31935,22981
31917,23007
31897,23026
31870,23039
31834,23048
31785,23052
31718,23054
31674,23054
31503,23054
31490,23025
31480,23002
31477,22990
31487,22988
31516,22986
31558,22985
31591,22985
31640,22984
31678,22982
31701,22978
31706,22975
31701,22954
31688,22922
31671,22885
31652,22850
31635,22822
31623,22810
31623,22810
31601,22811
31580,22821
31564,22838
31558,22863
31559,22885
31559,22916
31552,22932
31533,22941
31529,22943
31502,22947
31486,22936
31478,22906
31477,22875
31487,22818
31503,22789
31539,22752
31583,22733
31630,22731
31673,22748
31701,22772
31716,22796
31735,22835
31755,22880
31758,22887
31780,22936
31799,22965
31818,22974
31839,22965
31856,22951
31876,22916
31878,22878
31862,22843
31830,22818
31822,22815
31792,22796
31770,22768
31752,22732
31804,22732
31835,22734
31860,22743
31887,22763
31907,22782
31936,22812
31952,22834
31958,22859
31959,22887
31950,22948
" /> 
<polyline style="fill-rule:evenodd;"
points="31948,23350
31942,23364
31916,23397
31879,23425
31839,23442
31819,23445
31791,23435
31777,23415
31768,23392
31766,23382
31778,23377
31804,23367
31815,23363
31856,23339
31876,23304
31875,23259
31874,23256
31863,23232
31841,23215
31805,23203
31754,23195
31683,23192
31645,23192
31586,23192
31546,23191
31520,23188
31505,23183
31496,23175
31490,23163
31490,23163
31480,23140
31477,23128
31487,23127
31517,23125
31563,23124
31619,23123
31661,23123
31741,23124
31802,23126
31848,23132
31880,23141
31905,23156
31924,23176
31937,23195
31954,23243
31958,23298
31948,23350
" /> 
<polyline style="fill-rule:evenodd;"
points="31942,23747
31912,23792
31885,23814
31837,23832
31799,23833
31748,23830
31696,23712
31670,23655
31649,23617
31630,23598
31613,23595
31593,23605
31580,23617
31559,23652
31558,23690
31574,23724
31606,23750
31618,23754
31653,23776
31668,23801
31681,23836
31632,23836
31599,23833
31570,23821
31538,23796
31534,23792
31505,23764
31489,23740
31482,23711
31480,23686
31479,23641
31487,23610
31498,23590
31522,23559
31548,23538
31580,23524
31625,23517
31685,23514
31716,23514
31752,23515
31752,23584
31733,23585
31729,23587
31734,23600
31745,23629
31762,23667
31765,23675
31790,23723
31811,23749
31832,23755
31852,23741
31861,23730
31879,23688
31876,23649
31854,23617
31815,23594
31784,23587
31752,23584
31752,23515
31787,23515
31840,23521
31879,23532
31907,23549
31929,23575
31937,23586
31956,23637
31957,23693
31942,23747
" /> 
<polyline style="fill-rule:evenodd;"
points="35683,21332
35683,21394
35682,21439
35680,21470
35677,21489
35673,21500
35667,21505
35659,21508
35658,21508
35638,21512
35601,21519
35548,21529
35486,21541
35416,21554
35414,21554
35346,21567
35286,21579
35237,21590
35204,21598
35189,21603
35189,21603
35181,21618
35169,21647
35155,21686
35155,21686
35137,21735
35113,21792
35090,21847
35089,21849
35049,21937
35182,22133
35223,22193
35259,22247
35289,22293
35311,22326
35322,22345
35323,22346
35319,22360
35301,22385
35269,22423
35221,22474
35170,22526
35120,22577
35074,22622
35036,22659
35007,22686
34992,22699
34991,22699
34980,22701
34962,22695
34936,22682
34897,22659
34845,22625
34778,22580
34719,22539
34666,22503
34622,22474
34590,22453
34574,22442
34573,22441
34557,22443
34527,22453
34488,22469
34475,22475
34419,22501
34356,22528
34301,22550
34261,22566
34230,22579
34213,22586
34212,22587
34210,22601
34204,22632
34196,22678
34186,22734
34174,22796
34162,22858
34150,22918
34140,22971
34132,23013
34126,23039
34125,23045
34121,23052
34113,23057
34097,23061
34070,23063
34030,23065
33974,23065
33898,23066
33867,23066
33616,23066
33604,23005
33598,22972
33588,22922
33577,22861
33565,22796
33562,22778
33550,22718
33539,22666
33529,22626
33521,22603
33518,22599
33502,22589
33469,22575
33428,22560
33419,22557
33364,22537
33301,22512
33245,22487
33245,22487
33157,22446
32763,22714
32591,22542
32540,22490
32495,22443
32458,22403
32432,22372
32420,22355
32419,22352
32425,22337
32443,22307
32469,22264
32502,22213
32540,22157
32578,22100
32611,22050
32637,22009
32654,21980
32660,21968
32655,21952
32642,21923
32623,21885
32620,21881
32595,21831
32583,21796
32583,21775
32594,21764
32594,21763
32608,21758
32640,21744
32689,21724
32751,21699
32825,21668
32907,21634
32987,21601
33075,21565
33156,21532
33228,21503
33289,21478
33337,21460
33367,21448
33378,21445
33392,21454
33412,21477
33435,21508
33508,21595
33592,21664
33684,21713
33783,21740
33888,21747
33936,21742
34037,21718
34125,21675
34201,21618
34264,21549
34312,21469
34345,21383
34362,21292
34361,21198
34343,21106
34307,21017
34250,20933
34219,20898
34137,20831
34048,20785
33953,20758
33857,20751
33760,20764
33667,20795
33578,20846
33498,20915
33435,20991
33411,21023
33391,21046
33378,21054
33365,21050
33333,21038
33284,21019
33222,20994
33149,20964
33067,20931
32987,20898
32899,20861
32817,20827
32745,20797
32684,20772
32636,20753
32606,20740
32594,20735
32583,20724
32583,20703
32595,20669
32620,20618
32620,20618
32640,20580
32654,20549
32660,20532
32660,20531
32654,20518
32637,20490
32611,20448
32577,20398
32540,20342
32502,20285
32468,20234
32442,20191
32425,20161
32419,20147
32427,20134
32449,20107
32482,20070
32525,20024
32575,19973
32591,19957
32763,19785
32955,19916
33014,19955
33067,19990
33111,20018
33143,20038
33159,20046
33160,20046
33176,20042
33207,20030
33248,20012
33276,20000
33329,19977
33383,19955
33428,19938
33442,19933
33479,19920
33507,19907
33518,19900
33525,19885
33534,19851
33545,19804
33557,19746
33562,19721
33574,19656
33585,19593
33595,19540
33603,19501
33604,19494
33616,19433
33867,19433
33950,19434
34013,19434
34058,19435
34089,19437
34108,19441
34119,19445
34124,19451
34125,19454
34128,19468
34135,19501
34144,19548
34155,19604
34167,19666
34179,19729
34190,19789
34200,19841
34207,19882
34211,19906
34212,19912
34222,19917
34248,19928
34286,19943
34301,19949
34359,19972
34422,20000
34475,20024
34516,20042
34550,20054
34570,20058
34573,20057
34586,20049
34615,20030
34657,20001
34708,19967
34766,19927
34778,19919
34846,19874
34898,19840
34936,19817
34962,19804
34980,19798
34991,19800
34991,19800
35005,19811
35032,19836
35070,19872
35115,19917
35165,19967
35170,19973
35231,20036
35276,20084
35306,20120
35321,20143
35323,20153
35314,20167
35295,20198
35267,20241
35231,20293
35192,20352
35182,20366
35049,20562
35089,20650
35112,20703
35136,20761
35154,20811
35155,20813
35169,20851
35181,20881
35189,20896
35189,20896
35202,20900
35234,20908
35281,20919
35340,20931
35408,20943
35414,20945
35483,20957
35546,20969
35599,20979
35637,20987
35657,20991
35658,20991
35666,20993
35672,20998
35677,21008
35680,21027
35682,21056
35683,21099
35683,21159
35683,21239
35683,21250
35683,21332
" /> 
</g>
<g style="fill:#000000; fill-opacity:0.0; 
stroke:#000000; stroke-width:3.93701; stroke-opacity:1; 
stroke-linecap:round; stroke-linejoin:round;">
</g>
<g style="fill:#000000; fill-opacity:0.0; 
stroke:#000000; stroke-width:59.0551; stroke-opacity:1; 
stroke-linecap:round; stroke-linejoin:round;">
<path d="M22334 20978
L22203 20790
" />
<path d="M22109 20978
L22109 20584
L22259 20584
L22296 20603
L22315 20621
L22334 20659
L22334 20715
L22315 20753
L22296 20771
L22259 20790
L22109 20790
" />
<path d="M22559 20753
L22521 20734
L22503 20715
L22484 20678
L22484 20659
L22503 20621
L22521 20603
L22559 20584
L22634 20584
L22671 20603
L22690 20621
L22709 20659
L22709 20678
L22690 20715
L22671 20734
L22634 20753
L22559 20753
L22521 20771
L22503 20790
L22484 20828
L22484 20903
L22503 20940
L22521 20959
L22559 20978
L22634 20978
L22671 20959
L22690 20940
L22709 20903
L22709 20828
L22690 20790
L22671 20771
L22634 20753
" />
<path d="M34978 12890
L34584 12890
L34584 12796
L34603 12740
L34640 12703
L34678 12684
L34753 12665
L34809 12665
L34884 12684
L34921 12703
L34959 12740
L34978 12796
L34978 12890
" />
<path d="M34978 12290
L34978 12515
" />
<path d="M34978 12403
L34584 12403
L34640 12440
L34678 12478
L34696 12515
" />
<path d="M22034 16381
L22315 16381
L22371 16399
L22409 16437
L22428 16493
L22428 16531
" />
<path d="M22428 15987
L22428 16212
" />
<path d="M22428 16100
L22034 16100
L22090 16137
L22128 16175
L22146 16212
" />
<path d="M35034 19131
L35315 19131
L35371 19149
L35409 19187
L35428 19243
L35428 19281
" />
<path d="M35071 18962
L35053 18943
L35034 18906
L35034 18812
L35053 18775
L35071 18756
L35109 18737
L35146 18737
L35203 18756
L35428 18981
L35428 18737
" />
<path d="M15468 10784
L15468 11065
L15450 11121
L15412 11159
L15356 11178
L15318 11178
" />
<path d="M15618 10784
L15862 10784
L15731 10934
L15787 10934
L15824 10953
L15843 10971
L15862 11009
L15862 11103
L15843 11140
L15824 11159
L15787 11178
L15674 11178
L15637 11159
L15618 11140
" />
<path d="M25268 10784
L25268 11065
L25250 11121
L25212 11159
L25156 11178
L25118 11178
" />
<path d="M25624 10915
L25624 11178
" />
<path d="M25531 10765
L25437 11046
L25681 11046
" />
<path d="M25268 21384
L25268 21665
L25250 21721
L25212 21759
L25156 21778
L25118 21778
" />
<path d="M25643 21384
L25456 21384
L25437 21571
L25456 21553
L25493 21534
L25587 21534
L25624 21553
L25643 21571
L25662 21609
L25662 21703
L25643 21740
L25624 21759
L25587 21778
L25493 21778
L25456 21759
L25437 21740
" />
<path d="M15468 21384
L15468 21665
L15450 21721
L15412 21759
L15356 21778
L15318 21778
" />
<path d="M15824 21384
L15749 21384
L15712 21403
L15693 21421
L15656 21478
L15637 21553
L15637 21703
L15656 21740
L15674 21759
L15712 21778
L15787 21778
L15824 21759
L15843 21740
L15862 21703
L15862 21609
L15843 21571
L15824 21553
L15787 21534
L15712 21534
L15674 21553
L15656 21571
L15637 21609
" />
<path d="M10362 9515
L10325 9496
L10287 9459
L10231 9403
L10193 9384
L10156 9384
" />
<path d="M10175 9478
L10137 9459
L10100 9421
L10081 9346
L10081 9215
L10100 9140
L10137 9103
L10175 9084
L10250 9084
L10287 9103
L10325 9140
L10343 9215
L10343 9346
L10325 9421
L10287 9459
L10250 9478
L10175 9478
" />
<path d="M10718 9478
L10493 9478
" />
<path d="M10606 9478
L10606 9084
L10568 9140
L10531 9178
L10493 9196
" />
<path d="M30562 9565
L30525 9546
L30487 9509
L30431 9453
L30393 9434
L30356 9434
" />
<path d="M30375 9528
L30337 9509
L30300 9471
L30281 9396
L30281 9265
L30300 9190
L30337 9153
L30375 9134
L30450 9134
L30487 9153
L30525 9190
L30543 9265
L30543 9396
L30525 9471
L30487 9509
L30450 9528
L30375 9528
" />
<path d="M30693 9171
L30712 9153
L30749 9134
L30843 9134
L30881 9153
L30899 9171
L30918 9209
L30918 9246
L30899 9303
L30674 9528
L30918 9528
" />
<path d="M30562 23615
L30525 23596
L30487 23559
L30431 23503
L30393 23484
L30356 23484
" />
<path d="M30375 23578
L30337 23559
L30300 23521
L30281 23446
L30281 23315
L30300 23240
L30337 23203
L30375 23184
L30450 23184
L30487 23203
L30525 23240
L30543 23315
L30543 23446
L30525 23521
L30487 23559
L30450 23578
L30375 23578
" />
<path d="M30674 23184
L30918 23184
L30787 23334
L30843 23334
L30881 23353
L30899 23371
L30918 23409
L30918 23503
L30899 23540
L30881 23559
L30843 23578
L30731 23578
L30693 23559
L30674 23540
" />
<path d="M10362 23615
L10325 23596
L10287 23559
L10231 23503
L10193 23484
L10156 23484
" />
<path d="M10175 23578
L10137 23559
L10100 23521
L10081 23446
L10081 23315
L10100 23240
L10137 23203
L10175 23184
L10250 23184
L10287 23203
L10325 23240
L10343 23315
L10343 23446
L10325 23521
L10287 23559
L10250 23578
L10175 23578
" />
<path d="M10681 23315
L10681 23578
" />
<path d="M10587 23165
L10493 23446
L10737 23446
" />
<path d="M18534 15378
L18403 15190
" />
<path d="M18309 15378
L18309 14984
L18459 14984
L18496 15003
L18515 15021
L18534 15059
L18534 15115
L18515 15153
L18496 15171
L18459 15190
L18309 15190
" />
<path d="M18909 15378
L18684 15378
" />
<path d="M18796 15378
L18796 14984
L18759 15040
L18721 15078
L18684 15096
" />
<path d="M22334 15378
L22203 15190
" />
<path d="M22109 15378
L22109 14984
L22259 14984
L22296 15003
L22315 15021
L22334 15059
L22334 15115
L22315 15153
L22296 15171
L22259 15190
L22109 15190
" />
<path d="M22484 15021
L22503 15003
L22540 14984
L22634 14984
L22671 15003
L22690 15021
L22709 15059
L22709 15096
L22690 15153
L22465 15378
L22709 15378
" />
<path d="M22334 17578
L22203 17390
" />
<path d="M22109 17578
L22109 17184
L22259 17184
L22296 17203
L22315 17221
L22334 17259
L22334 17315
L22315 17353
L22296 17371
L22259 17390
L22109 17390
" />
<path d="M22465 17184
L22709 17184
L22578 17334
L22634 17334
L22671 17353
L22690 17371
L22709 17409
L22709 17503
L22690 17540
L22671 17559
L22634 17578
L22521 17578
L22484 17559
L22465 17540
" />
<path d="M18534 17578
L18403 17390
" />
<path d="M18309 17578
L18309 17184
L18459 17184
L18496 17203
L18515 17221
L18534 17259
L18534 17315
L18515 17353
L18496 17371
L18459 17390
L18309 17390
" />
<path d="M18871 17315
L18871 17578
" />
<path d="M18778 17165
L18684 17446
L18928 17446
" />
<path d="M32678 11315
L32490 11446
" />
<path d="M32678 11540
L32284 11540
L32284 11390
L32303 11353
L32321 11334
L32359 11315
L32415 11315
L32453 11334
L32471 11353
L32490 11390
L32490 11540
" />
<path d="M32284 10959
L32284 11146
L32471 11165
L32453 11146
L32434 11109
L32434 11015
L32453 10978
L32471 10959
L32509 10940
L32603 10940
L32640 10959
L32659 10978
L32678 11015
L32678 11109
L32659 11146
L32640 11165
" />
<path d="M18534 11978
L18403 11790
" />
<path d="M18309 11978
L18309 11584
L18459 11584
L18496 11603
L18515 11621
L18534 11659
L18534 11715
L18515 11753
L18496 11771
L18459 11790
L18309 11790
" />
<path d="M18871 11584
L18796 11584
L18759 11603
L18740 11621
L18703 11678
L18684 11753
L18684 11903
L18703 11940
L18721 11959
L18759 11978
L18834 11978
L18871 11959
L18890 11940
L18909 11903
L18909 11809
L18890 11771
L18871 11753
L18834 11734
L18759 11734
L18721 11753
L18703 11771
L18684 11809
" />
<path d="M22334 11978
L22203 11790
" />
<path d="M22109 11978
L22109 11584
L22259 11584
L22296 11603
L22315 11621
L22334 11659
L22334 11715
L22315 11753
L22296 11771
L22259 11790
L22109 11790
" />
<path d="M22465 11584
L22728 11584
L22559 11978
" />
<path d="M18534 20978
L18403 20790
" />
<path d="M18309 20978
L18309 20584
L18459 20584
L18496 20603
L18515 20621
L18534 20659
L18534 20715
L18515 20753
L18496 20771
L18459 20790
L18309 20790
" />
<path d="M18721 20978
L18796 20978
L18834 20959
L18853 20940
L18890 20884
L18909 20809
L18909 20659
L18890 20621
L18871 20603
L18834 20584
L18759 20584
L18721 20603
L18703 20621
L18684 20659
L18684 20753
L18703 20790
L18721 20809
L18759 20828
L18834 20828
L18871 20809
L18890 20790
L18909 20753
" />
<path d="M18300 13384
L18300 13703
L18318 13740
L18337 13759
L18375 13778
L18450 13778
L18487 13759
L18506 13740
L18525 13703
L18525 13384
" />
<path d="M18918 13778
L18693 13778
" />
<path d="M18806 13778
L18806 13384
L18768 13440
L18731 13478
L18693 13496
" />
<path d="M22100 13384
L22100 13703
L22118 13740
L22137 13759
L22175 13778
L22250 13778
L22287 13759
L22306 13740
L22325 13703
L22325 13384
" />
<path d="M22493 13421
L22512 13403
L22549 13384
L22643 13384
L22681 13403
L22699 13421
L22718 13459
L22718 13496
L22699 13553
L22474 13778
L22718 13778
" />
<path d="M22100 18984
L22100 19303
L22118 19340
L22137 19359
L22175 19378
L22250 19378
L22287 19359
L22306 19340
L22325 19303
L22325 18984
" />
<path d="M22474 18984
L22718 18984
L22587 19134
L22643 19134
L22681 19153
L22699 19171
L22718 19209
L22718 19303
L22699 19340
L22681 19359
L22643 19378
L22531 19378
L22493 19359
L22474 19340
" />
<path d="M18300 18984
L18300 19303
L18318 19340
L18337 19359
L18375 19378
L18450 19378
L18487 19359
L18506 19340
L18525 19303
L18525 18984
" />
<path d="M18881 19115
L18881 19378
" />
<path d="M18787 18965
L18693 19246
L18937 19246
" />
<path d="M14378 8890
L13984 8890
L13984 8796
L14003 8740
L14040 8703
L14078 8684
L14153 8665
L14209 8665
L14284 8684
L14321 8703
L14359 8740
L14378 8796
L14378 8890
" />
<path d="M14021 8515
L14003 8496
L13984 8459
L13984 8365
L14003 8328
L14021 8309
L14059 8290
L14096 8290
L14153 8309
L14378 8534
L14378 8290
" />
<path d="M26978 8890
L26584 8890
L26584 8796
L26603 8740
L26640 8703
L26678 8684
L26753 8665
L26809 8665
L26884 8684
L26921 8703
L26959 8740
L26978 8796
L26978 8890
" />
<path d="M26584 8534
L26584 8290
L26734 8421
L26734 8365
L26753 8328
L26771 8309
L26809 8290
L26903 8290
L26940 8309
L26959 8328
L26978 8365
L26978 8478
L26959 8515
L26940 8534
" />
<path d="M26978 24490
L26584 24490
L26584 24396
L26603 24340
L26640 24303
L26678 24284
L26753 24265
L26809 24265
L26884 24284
L26921 24303
L26959 24340
L26978 24396
L26978 24490
" />
<path d="M26715 23928
L26978 23928
" />
<path d="M26565 24021
L26846 24115
L26846 23871
" />
<path d="M14378 24490
L13984 24490
L13984 24396
L14003 24340
L14040 24303
L14078 24284
L14153 24265
L14209 24265
L14284 24284
L14321 24303
L14359 24340
L14378 24396
L14378 24490
" />
<path d="M13984 23909
L13984 24096
L14171 24115
L14153 24096
L14134 24059
L14134 23965
L14153 23928
L14171 23909
L14209 23890
L14303 23890
L14340 23909
L14359 23928
L14378 23965
L14378 24059
L14359 24096
L14340 24115
" />
</g> 
</svg>
