<?xml version="1.0" standalone="no"?>
 <!DOCTYPE svg PUBLIC "-//W3C//DTD SVG 1.1//EN" 
 "http://www.w3.org/Graphics/SVG/1.1/DTD/svg11.dtd"> 
<svg xmlns="http://www.w3.org/2000/svg" version="1.1" 
    width="29.7002cm" height="21.0007cm" viewBox="0 0 116930 82680 ">
<title>SVG Picture created as high-voltage_driver_V1.0-B.Cu.svg date 2018/12/15 00:11:50 </title>
  <desc>Picture generated by PCBNEW </desc>
<g style="fill:#000000; fill-opacity:1;stroke:#000000; stroke-opacity:1;
stroke-linecap:round; stroke-linejoin:round; "
 transform="translate(0 0) scale(1 1)">
</g>
<g style="fill:#000000; fill-opacity:0.0; 
stroke:#000000; stroke-width:-0.000393701; stroke-opacity:1; 
stroke-linecap:round; stroke-linejoin:round;">
</g>
<g style="fill:#000000; fill-opacity:0.0; 
stroke:#000000; stroke-width:59.0551; stroke-opacity:1; 
stroke-linecap:round; stroke-linejoin:round;">
<path d="M36027 26185
L6500 26185
" />
<path d="M36027 6500
L36027 26185
" />
<path d="M6500 6500
L6500 26185
" />
<path d="M6500 6500
L36027 6500
" />
</g>
<g style="fill:#000000; fill-opacity:1.0; 
stroke:#000000; stroke-width:0; stroke-opacity:1; 
stroke-linecap:round; stroke-linejoin:round;">
<circle cx="23200" cy="20800" r="275.591" /> 
</g>
<g style="fill:#000000; fill-opacity:1.0; 
stroke:#000000; stroke-width:39.3701; stroke-opacity:1; 
stroke-linecap:round; stroke-linejoin:round;">
</g>
<g style="fill:#000000; fill-opacity:1.0; 
stroke:#000000; stroke-width:551.181; stroke-opacity:1; 
stroke-linecap:round; stroke-linejoin:round;">
</g>
<g style="fill:#000000; fill-opacity:0.0; 
stroke:#000000; stroke-width:551.181; stroke-opacity:1; 
stroke-linecap:round; stroke-linejoin:round;">
<path d="M26200 20800
L26200 20800
" />
</g>
<g style="fill:#000000; fill-opacity:0.0; 
stroke:#000000; stroke-width:0; stroke-opacity:1; 
stroke-linecap:round; stroke-linejoin:round;">
</g>
<g style="fill:#000000; fill-opacity:1.0; 
stroke:#000000; stroke-width:0; stroke-opacity:1; 
stroke-linecap:round; stroke-linejoin:round;">
<polyline style="fill-rule:evenodd;"
points="35104,12104
34395,12104
34395,11395
35104,11395
35104,12104
" /> 
<circle cx="34750" cy="10750" r="354.331" /> 
</g>
<g style="fill:#000000; fill-opacity:1.0; 
stroke:#000000; stroke-width:39.3701; stroke-opacity:1; 
stroke-linecap:round; stroke-linejoin:round;">
</g>
<g style="fill:#000000; fill-opacity:1.0; 
stroke:#000000; stroke-width:0; stroke-opacity:1; 
stroke-linecap:round; stroke-linejoin:round;">
<polyline style="fill-rule:evenodd;"
points="20255,13855
20944,13855
20944,14544
20255,14544
20255,13855
" /> 
<circle cx="20600" cy="15184.3" r="344.488" /> 
</g>
<g style="fill:#000000; fill-opacity:1.0; 
stroke:#000000; stroke-width:39.3701; stroke-opacity:1; 
stroke-linecap:round; stroke-linejoin:round;">
</g>
<g style="fill:#000000; fill-opacity:1.0; 
stroke:#000000; stroke-width:0; stroke-opacity:1; 
stroke-linecap:round; stroke-linejoin:round;">
<circle cx="20600" cy="16168.5" r="344.488" /> 
</g>
<g style="fill:#000000; fill-opacity:1.0; 
stroke:#000000; stroke-width:39.3701; stroke-opacity:1; 
stroke-linecap:round; stroke-linejoin:round;">
</g>
<g style="fill:#000000; fill-opacity:1.0; 
stroke:#000000; stroke-width:0; stroke-opacity:1; 
stroke-linecap:round; stroke-linejoin:round;">
<circle cx="20600" cy="17152.8" r="344.488" /> 
</g>
<g style="fill:#000000; fill-opacity:1.0; 
stroke:#000000; stroke-width:39.3701; stroke-opacity:1; 
stroke-linecap:round; stroke-linejoin:round;">
</g>
<g style="fill:#000000; fill-opacity:1.0; 
stroke:#000000; stroke-width:0; stroke-opacity:1; 
stroke-linecap:round; stroke-linejoin:round;">
<circle cx="20600" cy="18137" r="344.488" /> 
</g>
<g style="fill:#000000; fill-opacity:1.0; 
stroke:#000000; stroke-width:39.3701; stroke-opacity:1; 
stroke-linecap:round; stroke-linejoin:round;">
</g>
<g style="fill:#000000; fill-opacity:1.0; 
stroke:#000000; stroke-width:0; stroke-opacity:1; 
stroke-linecap:round; stroke-linejoin:round;">
<polyline style="fill-rule:evenodd;"
points="32712,13909
34287,13909
34287,15090
32712,15090
32712,13909
" /> 
</g>
<g style="fill:#000000; fill-opacity:1.0; 
stroke:#000000; stroke-width:1181.1; stroke-opacity:1; 
stroke-linecap:round; stroke-linejoin:round;">
</g>
<g style="fill:#000000; fill-opacity:0.0; 
stroke:#000000; stroke-width:1181.1; stroke-opacity:1; 
stroke-linecap:round; stroke-linejoin:round;">
<path d="M33696 16060
L33303 16060
" />
<path d="M33696 17620
L33303 17620
" />
</g>
<g style="fill:#000000; fill-opacity:0.0; 
stroke:#000000; stroke-width:0; stroke-opacity:1; 
stroke-linecap:round; stroke-linejoin:round;">
</g>
<g style="fill:#000000; fill-opacity:1.0; 
stroke:#000000; stroke-width:0; stroke-opacity:1; 
stroke-linecap:round; stroke-linejoin:round;">
<polyline style="fill-rule:evenodd;"
points="16409,9787
16409,8212
17590,8212
17590,9787
16409,9787
" /> 
</g>
<g style="fill:#000000; fill-opacity:1.0; 
stroke:#000000; stroke-width:1181.1; stroke-opacity:1; 
stroke-linecap:round; stroke-linejoin:round;">
</g>
<g style="fill:#000000; fill-opacity:0.0; 
stroke:#000000; stroke-width:1181.1; stroke-opacity:1; 
stroke-linecap:round; stroke-linejoin:round;">
<path d="M18560 8803
L18560 9196
" />
<path d="M20120 8803
L20120 9196
" />
</g>
<g style="fill:#000000; fill-opacity:0.0; 
stroke:#000000; stroke-width:0; stroke-opacity:1; 
stroke-linecap:round; stroke-linejoin:round;">
</g>
<g style="fill:#000000; fill-opacity:1.0; 
stroke:#000000; stroke-width:0; stroke-opacity:1; 
stroke-linecap:round; stroke-linejoin:round;">
<polyline style="fill-rule:evenodd;"
points="21909,9787
21909,8212
23090,8212
23090,9787
21909,9787
" /> 
</g>
<g style="fill:#000000; fill-opacity:1.0; 
stroke:#000000; stroke-width:1181.1; stroke-opacity:1; 
stroke-linecap:round; stroke-linejoin:round;">
</g>
<g style="fill:#000000; fill-opacity:0.0; 
stroke:#000000; stroke-width:1181.1; stroke-opacity:1; 
stroke-linecap:round; stroke-linejoin:round;">
<path d="M24060 8803
L24060 9196
" />
</g>
<g style="fill:#000000; fill-opacity:0.0; 
stroke:#000000; stroke-width:0; stroke-opacity:1; 
stroke-linecap:round; stroke-linejoin:round;">
</g>
<g style="fill:#000000; fill-opacity:1.0; 
stroke:#000000; stroke-width:0; stroke-opacity:1; 
stroke-linecap:round; stroke-linejoin:round;">
<polyline style="fill-rule:evenodd;"
points="24590,22712
24590,24287
23409,24287
23409,22712
24590,22712
" /> 
</g>
<g style="fill:#000000; fill-opacity:1.0; 
stroke:#000000; stroke-width:1181.1; stroke-opacity:1; 
stroke-linecap:round; stroke-linejoin:round;">
</g>
<g style="fill:#000000; fill-opacity:0.0; 
stroke:#000000; stroke-width:1181.1; stroke-opacity:1; 
stroke-linecap:round; stroke-linejoin:round;">
<path d="M22440 23696
L22440 23303
" />
<path d="M20880 23696
L20880 23303
" />
</g>
<g style="fill:#000000; fill-opacity:0.0; 
stroke:#000000; stroke-width:0; stroke-opacity:1; 
stroke-linecap:round; stroke-linejoin:round;">
</g>
<g style="fill:#000000; fill-opacity:1.0; 
stroke:#000000; stroke-width:0; stroke-opacity:1; 
stroke-linecap:round; stroke-linejoin:round;">
<polyline style="fill-rule:evenodd;"
points="19090,22712
19090,24287
17909,24287
17909,22712
19090,22712
" /> 
</g>
<g style="fill:#000000; fill-opacity:1.0; 
stroke:#000000; stroke-width:1181.1; stroke-opacity:1; 
stroke-linecap:round; stroke-linejoin:round;">
</g>
<g style="fill:#000000; fill-opacity:0.0; 
stroke:#000000; stroke-width:1181.1; stroke-opacity:1; 
stroke-linecap:round; stroke-linejoin:round;">
<path d="M16940 23696
L16940 23303
" />
</g>
<g style="fill:#000000; fill-opacity:0.0; 
stroke:#000000; stroke-width:0; stroke-opacity:1; 
stroke-linecap:round; stroke-linejoin:round;">
</g>
<g style="fill:#000000; fill-opacity:1.0; 
stroke:#000000; stroke-width:0; stroke-opacity:1; 
stroke-linecap:round; stroke-linejoin:round;">
<polyline style="fill-rule:evenodd;"
points="13354,7845
13354,8554
12645,8554
12645,7845
13354,7845
" /> 
</g>
<g style="fill:#000000; fill-opacity:1.0; 
stroke:#000000; stroke-width:708.661; stroke-opacity:1; 
stroke-linecap:round; stroke-linejoin:round;">
</g>
<g style="fill:#000000; fill-opacity:0.0; 
stroke:#000000; stroke-width:708.661; stroke-opacity:1; 
stroke-linecap:round; stroke-linejoin:round;">
<path d="M12000 8200
L12000 8200
" />
<path d="M11000 8200
L11000 8200
" />
</g>
<g style="fill:#000000; fill-opacity:0.0; 
stroke:#000000; stroke-width:0; stroke-opacity:1; 
stroke-linecap:round; stroke-linejoin:round;">
</g>
<g style="fill:#000000; fill-opacity:1.0; 
stroke:#000000; stroke-width:0; stroke-opacity:1; 
stroke-linecap:round; stroke-linejoin:round;">
<polyline style="fill-rule:evenodd;"
points="30354,7845
30354,8554
29645,8554
29645,7845
30354,7845
" /> 
</g>
<g style="fill:#000000; fill-opacity:1.0; 
stroke:#000000; stroke-width:708.661; stroke-opacity:1; 
stroke-linecap:round; stroke-linejoin:round;">
</g>
<g style="fill:#000000; fill-opacity:0.0; 
stroke:#000000; stroke-width:708.661; stroke-opacity:1; 
stroke-linecap:round; stroke-linejoin:round;">
<path d="M29000 8200
L29000 8200
" />
<path d="M28000 8200
L28000 8200
" />
</g>
<g style="fill:#000000; fill-opacity:0.0; 
stroke:#000000; stroke-width:0; stroke-opacity:1; 
stroke-linecap:round; stroke-linejoin:round;">
</g>
<g style="fill:#000000; fill-opacity:1.0; 
stroke:#000000; stroke-width:0; stroke-opacity:1; 
stroke-linecap:round; stroke-linejoin:round;">
<polyline style="fill-rule:evenodd;"
points="27645,24854
27645,24145
28354,24145
28354,24854
27645,24854
" /> 
</g>
<g style="fill:#000000; fill-opacity:1.0; 
stroke:#000000; stroke-width:708.661; stroke-opacity:1; 
stroke-linecap:round; stroke-linejoin:round;">
</g>
<g style="fill:#000000; fill-opacity:0.0; 
stroke:#000000; stroke-width:708.661; stroke-opacity:1; 
stroke-linecap:round; stroke-linejoin:round;">
<path d="M29000 24500
L29000 24500
" />
<path d="M30000 24500
L30000 24500
" />
</g>
<g style="fill:#000000; fill-opacity:0.0; 
stroke:#000000; stroke-width:0; stroke-opacity:1; 
stroke-linecap:round; stroke-linejoin:round;">
</g>
<g style="fill:#000000; fill-opacity:1.0; 
stroke:#000000; stroke-width:0; stroke-opacity:1; 
stroke-linecap:round; stroke-linejoin:round;">
<polyline style="fill-rule:evenodd;"
points="10645,24854
10645,24145
11354,24145
11354,24854
10645,24854
" /> 
</g>
<g style="fill:#000000; fill-opacity:1.0; 
stroke:#000000; stroke-width:708.661; stroke-opacity:1; 
stroke-linecap:round; stroke-linejoin:round;">
</g>
<g style="fill:#000000; fill-opacity:0.0; 
stroke:#000000; stroke-width:708.661; stroke-opacity:1; 
stroke-linecap:round; stroke-linejoin:round;">
<path d="M12000 24500
L12000 24500
" />
<path d="M13000 24500
L13000 24500
" />
</g>
<g style="fill:#000000; fill-opacity:1.0; 
stroke:#000000; stroke-width:0; stroke-opacity:1; 
stroke-linecap:round; stroke-linejoin:round;">
<circle cx="17800" cy="15200" r="275.591" /> 
</g>
<g style="fill:#000000; fill-opacity:1.0; 
stroke:#000000; stroke-width:39.3701; stroke-opacity:1; 
stroke-linecap:round; stroke-linejoin:round;">
</g>
<g style="fill:#000000; fill-opacity:1.0; 
stroke:#000000; stroke-width:551.181; stroke-opacity:1; 
stroke-linecap:round; stroke-linejoin:round;">
</g>
<g style="fill:#000000; fill-opacity:0.0; 
stroke:#000000; stroke-width:551.181; stroke-opacity:1; 
stroke-linecap:round; stroke-linejoin:round;">
<path d="M14800 15200
L14800 15200
" />
</g>
<g style="fill:#000000; fill-opacity:1.0; 
stroke:#000000; stroke-width:0; stroke-opacity:1; 
stroke-linecap:round; stroke-linejoin:round;">
<circle cx="23200" cy="15200" r="275.591" /> 
</g>
<g style="fill:#000000; fill-opacity:1.0; 
stroke:#000000; stroke-width:39.3701; stroke-opacity:1; 
stroke-linecap:round; stroke-linejoin:round;">
</g>
<g style="fill:#000000; fill-opacity:1.0; 
stroke:#000000; stroke-width:551.181; stroke-opacity:1; 
stroke-linecap:round; stroke-linejoin:round;">
</g>
<g style="fill:#000000; fill-opacity:0.0; 
stroke:#000000; stroke-width:551.181; stroke-opacity:1; 
stroke-linecap:round; stroke-linejoin:round;">
<path d="M26200 15200
L26200 15200
" />
</g>
<g style="fill:#000000; fill-opacity:1.0; 
stroke:#000000; stroke-width:0; stroke-opacity:1; 
stroke-linecap:round; stroke-linejoin:round;">
<circle cx="23200" cy="17400" r="275.591" /> 
</g>
<g style="fill:#000000; fill-opacity:1.0; 
stroke:#000000; stroke-width:39.3701; stroke-opacity:1; 
stroke-linecap:round; stroke-linejoin:round;">
</g>
<g style="fill:#000000; fill-opacity:1.0; 
stroke:#000000; stroke-width:551.181; stroke-opacity:1; 
stroke-linecap:round; stroke-linejoin:round;">
</g>
<g style="fill:#000000; fill-opacity:0.0; 
stroke:#000000; stroke-width:551.181; stroke-opacity:1; 
stroke-linecap:round; stroke-linejoin:round;">
<path d="M26200 17400
L26200 17400
" />
</g>
<g style="fill:#000000; fill-opacity:1.0; 
stroke:#000000; stroke-width:0; stroke-opacity:1; 
stroke-linecap:round; stroke-linejoin:round;">
<circle cx="17800" cy="17400" r="275.591" /> 
</g>
<g style="fill:#000000; fill-opacity:1.0; 
stroke:#000000; stroke-width:39.3701; stroke-opacity:1; 
stroke-linecap:round; stroke-linejoin:round;">
</g>
<g style="fill:#000000; fill-opacity:1.0; 
stroke:#000000; stroke-width:551.181; stroke-opacity:1; 
stroke-linecap:round; stroke-linejoin:round;">
</g>
<g style="fill:#000000; fill-opacity:0.0; 
stroke:#000000; stroke-width:551.181; stroke-opacity:1; 
stroke-linecap:round; stroke-linejoin:round;">
<path d="M14800 17400
L14800 17400
" />
</g>
<g style="fill:#000000; fill-opacity:1.0; 
stroke:#000000; stroke-width:0; stroke-opacity:1; 
stroke-linecap:round; stroke-linejoin:round;">
<circle cx="33250" cy="9750" r="275.591" /> 
</g>
<g style="fill:#000000; fill-opacity:1.0; 
stroke:#000000; stroke-width:39.3701; stroke-opacity:1; 
stroke-linecap:round; stroke-linejoin:round;">
</g>
<g style="fill:#000000; fill-opacity:1.0; 
stroke:#000000; stroke-width:551.181; stroke-opacity:1; 
stroke-linecap:round; stroke-linejoin:round;">
</g>
<g style="fill:#000000; fill-opacity:0.0; 
stroke:#000000; stroke-width:551.181; stroke-opacity:1; 
stroke-linecap:round; stroke-linejoin:round;">
<path d="M33250 12750
L33250 12750
" />
</g>
<g style="fill:#000000; fill-opacity:1.0; 
stroke:#000000; stroke-width:0; stroke-opacity:1; 
stroke-linecap:round; stroke-linejoin:round;">
<circle cx="17800" cy="11800" r="275.591" /> 
</g>
<g style="fill:#000000; fill-opacity:1.0; 
stroke:#000000; stroke-width:39.3701; stroke-opacity:1; 
stroke-linecap:round; stroke-linejoin:round;">
</g>
<g style="fill:#000000; fill-opacity:1.0; 
stroke:#000000; stroke-width:551.181; stroke-opacity:1; 
stroke-linecap:round; stroke-linejoin:round;">
</g>
<g style="fill:#000000; fill-opacity:0.0; 
stroke:#000000; stroke-width:551.181; stroke-opacity:1; 
stroke-linecap:round; stroke-linejoin:round;">
<path d="M14800 11800
L14800 11800
" />
</g>
<g style="fill:#000000; fill-opacity:1.0; 
stroke:#000000; stroke-width:0; stroke-opacity:1; 
stroke-linecap:round; stroke-linejoin:round;">
<circle cx="23200" cy="11800" r="275.591" /> 
</g>
<g style="fill:#000000; fill-opacity:1.0; 
stroke:#000000; stroke-width:39.3701; stroke-opacity:1; 
stroke-linecap:round; stroke-linejoin:round;">
</g>
<g style="fill:#000000; fill-opacity:1.0; 
stroke:#000000; stroke-width:551.181; stroke-opacity:1; 
stroke-linecap:round; stroke-linejoin:round;">
</g>
<g style="fill:#000000; fill-opacity:0.0; 
stroke:#000000; stroke-width:551.181; stroke-opacity:1; 
stroke-linecap:round; stroke-linejoin:round;">
<path d="M26200 11800
L26200 11800
" />
</g>
<g style="fill:#000000; fill-opacity:1.0; 
stroke:#000000; stroke-width:0; stroke-opacity:1; 
stroke-linecap:round; stroke-linejoin:round;">
<circle cx="17800" cy="20800" r="275.591" /> 
</g>
<g style="fill:#000000; fill-opacity:1.0; 
stroke:#000000; stroke-width:39.3701; stroke-opacity:1; 
stroke-linecap:round; stroke-linejoin:round;">
</g>
<g style="fill:#000000; fill-opacity:1.0; 
stroke:#000000; stroke-width:551.181; stroke-opacity:1; 
stroke-linecap:round; stroke-linejoin:round;">
</g>
<g style="fill:#000000; fill-opacity:0.0; 
stroke:#000000; stroke-width:551.181; stroke-opacity:1; 
stroke-linecap:round; stroke-linejoin:round;">
<path d="M14800 20800
L14800 20800
" />
</g>
<g style="fill:#000000; fill-opacity:0.0; 
stroke:#000000; stroke-width:0; stroke-opacity:1; 
stroke-linecap:round; stroke-linejoin:round;">
</g>
<g style="fill:#000000; fill-opacity:1.0; 
stroke:#000000; stroke-width:0; stroke-opacity:1; 
stroke-linecap:round; stroke-linejoin:round;">
<polyline style="fill-rule:evenodd;"
points="18114,13685
18114,14314
17485,14314
17485,13685
18114,13685
" /> 
</g>
<g style="fill:#000000; fill-opacity:1.0; 
stroke:#000000; stroke-width:629.921; stroke-opacity:1; 
stroke-linecap:round; stroke-linejoin:round;">
</g>
<g style="fill:#000000; fill-opacity:0.0; 
stroke:#000000; stroke-width:629.921; stroke-opacity:1; 
stroke-linecap:round; stroke-linejoin:round;">
<path d="M14800 13000
L14800 13000
" />
<path d="M17800 13000
L17800 13000
" />
<path d="M14800 14000
L14800 14000
" />
</g>
<g style="fill:#000000; fill-opacity:0.0; 
stroke:#000000; stroke-width:0; stroke-opacity:1; 
stroke-linecap:round; stroke-linejoin:round;">
</g>
<g style="fill:#000000; fill-opacity:1.0; 
stroke:#000000; stroke-width:0; stroke-opacity:1; 
stroke-linecap:round; stroke-linejoin:round;">
<polyline style="fill-rule:evenodd;"
points="22885,13314
22885,12685
23514,12685
23514,13314
22885,13314
" /> 
</g>
<g style="fill:#000000; fill-opacity:1.0; 
stroke:#000000; stroke-width:629.921; stroke-opacity:1; 
stroke-linecap:round; stroke-linejoin:round;">
</g>
<g style="fill:#000000; fill-opacity:0.0; 
stroke:#000000; stroke-width:629.921; stroke-opacity:1; 
stroke-linecap:round; stroke-linejoin:round;">
<path d="M26200 14000
L26200 14000
" />
<path d="M23200 14000
L23200 14000
" />
<path d="M26200 13000
L26200 13000
" />
</g>
<g style="fill:#000000; fill-opacity:0.0; 
stroke:#000000; stroke-width:0; stroke-opacity:1; 
stroke-linecap:round; stroke-linejoin:round;">
</g>
<g style="fill:#000000; fill-opacity:1.0; 
stroke:#000000; stroke-width:0; stroke-opacity:1; 
stroke-linecap:round; stroke-linejoin:round;">
<polyline style="fill-rule:evenodd;"
points="22885,18914
22885,18285
23514,18285
23514,18914
22885,18914
" /> 
</g>
<g style="fill:#000000; fill-opacity:1.0; 
stroke:#000000; stroke-width:629.921; stroke-opacity:1; 
stroke-linecap:round; stroke-linejoin:round;">
</g>
<g style="fill:#000000; fill-opacity:0.0; 
stroke:#000000; stroke-width:629.921; stroke-opacity:1; 
stroke-linecap:round; stroke-linejoin:round;">
<path d="M26200 19600
L26200 19600
" />
<path d="M23200 19600
L23200 19600
" />
<path d="M26200 18600
L26200 18600
" />
</g>
<g style="fill:#000000; fill-opacity:0.0; 
stroke:#000000; stroke-width:0; stroke-opacity:1; 
stroke-linecap:round; stroke-linejoin:round;">
</g>
<g style="fill:#000000; fill-opacity:1.0; 
stroke:#000000; stroke-width:0; stroke-opacity:1; 
stroke-linecap:round; stroke-linejoin:round;">
<polyline style="fill-rule:evenodd;"
points="18114,19285
18114,19914
17485,19914
17485,19285
18114,19285
" /> 
</g>
<g style="fill:#000000; fill-opacity:1.0; 
stroke:#000000; stroke-width:629.921; stroke-opacity:1; 
stroke-linecap:round; stroke-linejoin:round;">
</g>
<g style="fill:#000000; fill-opacity:0.0; 
stroke:#000000; stroke-width:629.921; stroke-opacity:1; 
stroke-linecap:round; stroke-linejoin:round;">
<path d="M14800 18600
L14800 18600
" />
<path d="M17800 18600
L17800 18600
" />
<path d="M14800 19600
L14800 19600
" />
</g>
<g style="fill:#000000; fill-opacity:1.0; 
stroke:#000000; stroke-width:0; stroke-opacity:1; 
stroke-linecap:round; stroke-linejoin:round;">
<circle cx="8074.8" cy="8074.8" r="1082.68" /> 
</g>
<g style="fill:#000000; fill-opacity:1.0; 
stroke:#000000; stroke-width:39.3701; stroke-opacity:1; 
stroke-linecap:round; stroke-linejoin:round;">
</g>
<g style="fill:#000000; fill-opacity:1.0; 
stroke:#000000; stroke-width:0; stroke-opacity:1; 
stroke-linecap:round; stroke-linejoin:round;">
<circle cx="34452.8" cy="8074.8" r="1082.68" /> 
</g>
<g style="fill:#000000; fill-opacity:1.0; 
stroke:#000000; stroke-width:39.3701; stroke-opacity:1; 
stroke-linecap:round; stroke-linejoin:round;">
</g>
<g style="fill:#000000; fill-opacity:1.0; 
stroke:#000000; stroke-width:0; stroke-opacity:1; 
stroke-linecap:round; stroke-linejoin:round;">
<circle cx="8074.8" cy="24610.2" r="1082.68" /> 
</g>
<g style="fill:#000000; fill-opacity:1.0; 
stroke:#000000; stroke-width:39.3701; stroke-opacity:1; 
stroke-linecap:round; stroke-linejoin:round;">
</g>
<g style="fill:#000000; fill-opacity:1.0; 
stroke:#000000; stroke-width:0; stroke-opacity:1; 
stroke-linecap:round; stroke-linejoin:round;">
<circle cx="34452.8" cy="24610.2" r="1082.68" /> 
</g>
<g style="fill:#000000; fill-opacity:1.0; 
stroke:#000000; stroke-width:39.3701; stroke-opacity:1; 
stroke-linecap:round; stroke-linejoin:round;">
</g>
<g style="fill:#000000; fill-opacity:1.0; 
stroke:#000000; stroke-width:0; stroke-opacity:1; 
stroke-linecap:round; stroke-linejoin:round;">
<polyline style="fill-rule:evenodd;"
points="15314,10564
14685,10564
14685,9935
15314,9935
15314,10564
" /> 
</g>
<g style="fill:#000000; fill-opacity:1.0; 
stroke:#000000; stroke-width:629.921; stroke-opacity:1; 
stroke-linecap:round; stroke-linejoin:round;">
</g>
<g style="fill:#000000; fill-opacity:0.0; 
stroke:#000000; stroke-width:629.921; stroke-opacity:1; 
stroke-linecap:round; stroke-linejoin:round;">
<path d="M15000 7250
L15000 7250
" />
</g>
<g style="fill:#000000; fill-opacity:0.0; 
stroke:#000000; stroke-width:0; stroke-opacity:1; 
stroke-linecap:round; stroke-linejoin:round;">
</g>
<g style="fill:#000000; fill-opacity:1.0; 
stroke:#000000; stroke-width:0; stroke-opacity:1; 
stroke-linecap:round; stroke-linejoin:round;">
<polyline style="fill-rule:evenodd;"
points="26314,10564
25685,10564
25685,9935
26314,9935
26314,10564
" /> 
</g>
<g style="fill:#000000; fill-opacity:1.0; 
stroke:#000000; stroke-width:629.921; stroke-opacity:1; 
stroke-linecap:round; stroke-linejoin:round;">
</g>
<g style="fill:#000000; fill-opacity:0.0; 
stroke:#000000; stroke-width:629.921; stroke-opacity:1; 
stroke-linecap:round; stroke-linejoin:round;">
<path d="M26000 7250
L26000 7250
" />
</g>
<g style="fill:#000000; fill-opacity:0.0; 
stroke:#000000; stroke-width:0; stroke-opacity:1; 
stroke-linecap:round; stroke-linejoin:round;">
</g>
<g style="fill:#000000; fill-opacity:1.0; 
stroke:#000000; stroke-width:0; stroke-opacity:1; 
stroke-linecap:round; stroke-linejoin:round;">
<polyline style="fill-rule:evenodd;"
points="25685,22185
26314,22185
26314,22814
25685,22814
25685,22185
" /> 
</g>
<g style="fill:#000000; fill-opacity:1.0; 
stroke:#000000; stroke-width:629.921; stroke-opacity:1; 
stroke-linecap:round; stroke-linejoin:round;">
</g>
<g style="fill:#000000; fill-opacity:0.0; 
stroke:#000000; stroke-width:629.921; stroke-opacity:1; 
stroke-linecap:round; stroke-linejoin:round;">
<path d="M26000 25500
L26000 25500
" />
</g>
<g style="fill:#000000; fill-opacity:0.0; 
stroke:#000000; stroke-width:0; stroke-opacity:1; 
stroke-linecap:round; stroke-linejoin:round;">
</g>
<g style="fill:#000000; fill-opacity:1.0; 
stroke:#000000; stroke-width:0; stroke-opacity:1; 
stroke-linecap:round; stroke-linejoin:round;">
<polyline style="fill-rule:evenodd;"
points="14685,22185
15314,22185
15314,22814
14685,22814
14685,22185
" /> 
</g>
<g style="fill:#000000; fill-opacity:1.0; 
stroke:#000000; stroke-width:629.921; stroke-opacity:1; 
stroke-linecap:round; stroke-linejoin:round;">
</g>
<g style="fill:#000000; fill-opacity:0.0; 
stroke:#000000; stroke-width:629.921; stroke-opacity:1; 
stroke-linecap:round; stroke-linejoin:round;">
<path d="M15000 25500
L15000 25500
" />
</g>
<g style="fill:#000000; fill-opacity:0.0; 
stroke:#000000; stroke-width:196.85; stroke-opacity:1; 
stroke-linecap:round; stroke-linejoin:round;">
<path d="M17800 18600
L17400 18600
" />
<path d="M17400 13000
L17800 13000
" />
<path d="M17000 13400
L17400 13000
" />
<path d="M17000 18200
L17000 13400
" />
<path d="M17400 18600
L17000 18200
" />
<path d="M23200 19600
L23600 19600
" />
<path d="M23600 14000
L23200 14000
" />
<path d="M24000 14400
L23600 14000
" />
<path d="M24000 19200
L24000 14400
" />
<path d="M23600 19600
L24000 19200
" />
<path d="M20600 14200
L19800 14200
" />
<path d="M18600 13000
L17800 13000
" />
<path d="M19800 14200
L18600 13000
" />
<path d="M20600 14200
L23000 14200
" />
<path d="M23000 14200
L23200 14000
" />
<path d="M25600 18800
L25600 18400
" />
<path d="M25600 18400
L25800 18600
" />
<path d="M25600 18800
L25000 19400
" />
<path d="M16000 15200
L14800 14000
" />
<path d="M16000 19600
L16000 15200
" />
<path d="M25800 18600
L25600 18800
" />
<path d="M16000 19600
L14800 19600
" />
<path d="M16600 20200
L16000 19600
" />
<path d="M24600 20200
L16600 20200
" />
<path d="M25000 19800
L24600 20200
" />
<path d="M25000 19400
L25000 19800
" />
<path d="M25600 16000
L25000 16600
" />
<path d="M25000 16600
L25000 17800
" />
<path d="M25000 17800
L25600 18400
" />
<path d="M25800 18600
L26200 18600
" />
<path d="M33500 14500
L30700 14500
" />
<path d="M25800 13000
L26200 13000
" />
<path d="M25000 13800
L25800 13000
" />
<path d="M25000 15400
L25000 13800
" />
<path d="M25600 16000
L25000 15400
" />
<path d="M26600 16000
L25600 16000
" />
<path d="M27400 15200
L26600 16000
" />
<path d="M27400 14400
L27400 15200
" />
<path d="M28200 13600
L27400 14400
" />
<path d="M29800 13600
L28200 13600
" />
<path d="M30700 14500
L29800 13600
" />
<path d="M33250 12750
L33250 14250
" />
<path d="M33250 14250
L33500 14500
" />
<path d="M27400 11800
L30000 9200
" />
<path d="M30000 9200
L30000 8200
" />
<path d="M26200 14000
L26400 14000
" />
<path d="M26400 14000
L27400 13000
" />
<path d="M27400 13000
L27400 11800
" />
<path d="M26200 11800
L27400 11800
" />
<path d="M26200 20800
L26800 20800
" />
<path d="M28000 22000
L28000 24500
" />
<path d="M26800 20800
L28000 22000
" />
<path d="M26200 19600
L26200 20800
" />
</g>
<g style="fill:#000000; fill-opacity:1.0; 
stroke:#000000; stroke-width:100; stroke-opacity:1; 
stroke-linecap:round; stroke-linejoin:round;">
<polyline style="fill-rule:evenodd;"
points="14592,6842
14467,7029
14423,7250
14467,7470
14592,7657
14779,7782
14944,7814
15055,7814
15220,7782
15407,7657
15532,7470
15576,7250
15532,7029
15407,6842
15312,6779
25687,6779
25592,6842
25467,7029
25423,7250
25467,7470
25592,7657
25779,7782
25944,7814
26055,7814
26220,7782
26407,7657
26532,7470
26576,7250
26532,7029
26407,6842
26312,6779
34097,6779
33697,6945
33322,7319
33120,7809
33120,8339
33322,8829
33697,9204
34187,9407
34717,9407
35207,9204
35582,8829
35748,8430
35748,24254
35582,23855
35207,23480
34717,23277
34187,23277
33697,23480
33322,23855
33120,24345
33120,24875
33322,25365
33697,25740
34097,25905
26408,25905
26532,25720
26576,25500
26532,25279
26407,25092
26220,24967
26055,24935
25944,24935
25779,24967
25592,25092
25467,25279
25423,25500
25467,25720
25591,25905
15408,25905
15532,25720
15576,25500
15532,25279
15407,25092
15220,24967
15055,24935
14944,24935
14779,24967
14592,25092
14467,25279
14423,25500
14467,25720
14591,25905
8430,25905
8829,25740
9204,25365
9407,24875
9407,24345
9324,24145
10390,24145
10390,24854
10410,24951
10465,25034
10548,25089
10645,25109
11354,25109
11451,25089
11534,25034
11589,24952
11764,25069
11940,25104
12059,25104
12235,25069
12435,24935
12503,24834
12642,24987
12856,25087
12950,25039
12950,24550
13050,24550
13050,25039
13143,25087
13357,24987
13516,24813
13587,24643
13539,24550
13050,24550
12950,24550
12942,24550
12942,24450
12950,24450
12950,23960
13050,23960
13050,24450
13539,24450
13587,24356
13516,24186
13357,24012
13143,23912
13050,23960
12950,23960
12856,23912
12642,24012
12503,24165
12435,24064
12235,23930
12059,23895
11940,23895
11764,23930
11589,24047
11534,23965
11451,23910
11354,23890
10645,23890
10548,23910
10465,23965
10410,24048
10390,24145
9324,24145
9204,23855
8829,23480
8339,23277
7809,23277
7319,23480
6945,23855
6779,24254
6779,23220
16099,23220
16099,23779
16148,24024
16333,24302
16612,24488
16940,24553
17267,24488
17546,24302
17654,24140
17654,24287
17673,24384
17729,24467
17811,24522
17909,24542
19090,24542
19188,24522
19270,24467
19326,24384
19345,24287
19345,23220
20039,23220
20039,23779
20088,24024
20273,24302
20552,24488
20880,24553
21207,24488
21486,24302
21660,24042
21833,24302
22112,24488
22440,24553
22767,24488
23046,24302
23154,24140
23154,24287
23173,24384
23229,24467
23311,24522
23409,24542
24590,24542
24688,24522
24770,24467
24826,24384
24845,24287
24845,22712
24826,22615
24770,22532
24688,22477
24590,22457
23409,22457
23311,22477
23229,22532
23173,22615
23154,22712
23154,22859
23046,22697
22767,22511
22440,22446
22112,22511
21833,22697
21660,22957
21486,22697
21207,22511
20880,22446
20552,22511
20273,22697
20088,22975
20039,23220
19345,23220
19345,22712
19326,22615
19270,22532
19188,22477
19090,22457
17909,22457
17811,22477
17729,22532
17673,22615
17654,22712
17654,22859
17546,22697
17267,22511
16940,22446
16612,22511
16333,22697
16148,22975
16099,23220
6779,23220
6779,22185
14430,22185
14430,22814
14449,22912
14504,22995
14587,23050
14685,23069
15314,23069
15412,23050
15495,22995
15550,22912
15569,22814
15569,22185
25430,22185
25430,22814
25449,22912
25504,22995
25587,23050
25685,23069
26314,23069
26412,23050
26495,22995
26550,22912
26569,22814
26569,22185
26550,22087
26495,22004
26412,21949
26314,21930
25685,21930
25587,21949
25504,22004
25449,22087
25430,22185
15569,22185
15550,22087
15495,22004
15412,21949
15314,21930
14685,21930
14587,21949
14504,22004
14449,22087
14430,22185
6779,22185
6779,20800
14264,20800
14304,21005
14421,21178
14594,21295
14748,21325
14851,21325
15005,21295
15178,21178
15186,21168
17502,21168
17526,21261
17724,21330
17932,21319
18073,21261
18097,21168
22902,21168
22926,21261
23124,21330
23332,21319
23473,21261
23497,21168
23200,20870
22902,21168
18097,21168
17800,20870
17502,21168
15186,21168
15295,21005
15335,20800
15295,20594
15178,20421
15005,20304
14851,20274
14748,20274
14594,20304
14421,20421
14304,20594
14264,20800
6779,20800
6779,17940
11042,17940
11115,18307
11323,18617
11633,18825
11907,18879
12092,18879
12366,18825
12676,18617
12884,18307
12957,17940
12884,17574
12676,17263
12366,17056
12092,17001
11907,17001
11633,17056
11323,17263
11115,17574
11042,17940
6779,17940
6779,16850
13950,16850
13950,20200
13953,20219
13964,20235
13980,20246
14000,20250
15979,20250
16164,20435
16180,20446
16200,20450
16347,20450
16348,20451
16377,20470
16377,20470
16421,20499
16464,20528
16565,20548
16565,20548
16599,20555
16634,20548
17331,20548
17269,20724
17280,20932
17338,21073
17431,21097
17729,20800
17723,20794
17794,20723
17800,20729
17805,20723
17876,20794
17870,20800
18168,21097
18261,21073
18330,20875
18319,20667
18269,20548
22731,20548
22669,20724
22680,20932
22738,21073
22831,21097
23129,20800
23123,20794
23194,20723
23200,20729
23205,20723
23276,20794
23270,20800
23568,21097
23661,21073
23730,20875
23719,20667
23669,20548
24565,20548
24600,20555
24634,20548
24634,20548
24735,20528
24851,20451
24852,20450
25000,20450
25019,20446
25035,20435
25220,20250
25851,20250
25851,20400
25821,20421
25704,20594
25664,20800
25704,21005
25821,21178
25994,21295
26148,21325
26251,21325
26405,21295
26578,21178
26599,21148
26655,21148
27651,22144
27651,23890
27645,23890
27548,23910
27465,23965
27410,24048
27390,24145
27390,24854
27410,24951
27465,25034
27548,25089
27645,25109
28354,25109
28451,25089
28534,25034
28589,24952
28764,25069
28940,25104
29059,25104
29235,25069
29435,24935
29503,24834
29642,24987
29856,25087
29950,25039
29950,24550
30050,24550
30050,25039
30143,25087
30357,24987
30516,24813
30587,24643
30539,24550
30050,24550
29950,24550
29942,24550
29942,24450
29950,24450
29950,23960
30050,23960
30050,24450
30539,24450
30587,24356
30516,24186
30357,24012
30143,23912
30050,23960
29950,23960
29856,23912
29642,24012
29503,24165
29435,24064
29235,23930
29059,23895
28940,23895
28764,23930
28589,24047
28534,23965
28451,23910
28354,23890
28348,23890
28348,22034
28355,22000
28348,21965
28348,21965
28328,21864
28251,21748
28222,21729
27070,20577
27051,20548
26935,20471
26834,20451
26834,20451
26800,20444
26765,20451
26599,20451
26578,20421
26548,20400
26548,20250
27000,20250
27019,20246
27035,20235
27046,20219
27050,20200
27050,17940
28042,17940
28115,18307
28323,18617
28633,18825
28907,18879
29092,18879
29366,18825
29676,18617
29884,18307
29957,17940
29893,17620
32446,17620
32511,17947
32697,18226
32975,18411
33220,18460
33779,18460
34024,18411
34302,18226
34488,17947
34553,17620
34488,17292
34302,17013
34024,16828
34024,16828
34064,16817
34326,16619
34492,16335
34517,16240
34473,16110
33550,16110
33550,16117
33450,16117
33450,16110
32526,16110
32482,16240
32507,16335
32673,16619
32935,16817
32975,16828
32975,16828
32697,17013
32511,17292
32446,17620
29893,17620
29884,17574
29676,17263
29366,17056
29092,17001
28907,17001
28633,17056
28323,17263
28115,17574
28042,17940
27050,17940
27050,16042
27622,15470
27651,15451
27685,15400
27728,15335
27730,15326
27748,15234
27748,15234
27755,15200
27748,15165
27748,14544
28344,13948
28523,13948
28323,14082
28115,14392
28042,14759
28115,15125
28323,15436
28633,15643
28907,15698
29092,15698
29366,15643
29676,15436
29884,15125
29957,14759
29884,14392
29676,14082
29476,13948
29655,13948
30429,14722
30448,14751
30477,14770
30477,14770
30491,14779
30564,14828
30665,14848
30665,14848
30699,14855
30734,14848
32457,14848
32457,15090
32477,15188
32532,15270
32615,15326
32712,15345
32878,15345
32673,15500
32507,15784
32482,15879
32526,16010
33450,16010
33450,16002
33550,16002
33550,16010
34473,16010
34517,15879
34492,15784
34326,15500
34121,15345
34287,15345
34384,15326
34467,15270
34522,15188
34542,15090
34542,13909
34522,13811
34467,13729
34384,13673
34287,13654
33598,13654
33598,13149
33628,13128
33745,12955
33785,12750
33745,12544
33628,12371
33455,12254
33301,12224
33198,12224
33044,12254
32871,12371
32754,12544
32714,12750
32754,12955
32871,13128
32901,13149
32901,13654
32712,13654
32615,13673
32532,13729
32477,13811
32457,13909
32457,14151
30844,14151
30070,13377
30051,13348
29935,13271
29834,13251
29834,13251
29800,13244
29765,13251
28234,13251
28200,13244
28165,13251
28165,13251
28064,13271
27977,13329
27977,13329
27948,13348
27929,13377
27177,14129
27148,14148
27071,14264
27051,14365
27051,14365
27050,14373
27050,13842
27622,13270
27651,13251
27670,13222
27728,13135
27728,13135
27748,13034
27748,13034
27755,13000
27748,12965
27748,11944
27830,11862
34145,11862
34145,12154
34183,12245
34254,12316
34345,12354
34637,12354
34700,12291
34700,11800
34800,11800
34800,12291
34862,12354
35154,12354
35245,12316
35316,12245
35354,12154
35354,11862
35291,11800
34800,11800
34700,11800
34208,11800
34145,11862
27830,11862
29062,10629
34145,10629
34145,10870
34237,11092
34307,11161
34254,11183
34183,11254
34145,11345
34145,11637
34208,11700
34700,11700
34700,11692
34800,11692
34800,11700
35291,11700
35354,11637
35354,11345
35316,11254
35245,11183
35192,11161
35262,11092
35354,10870
35354,10629
35262,10407
35092,10237
34870,10145
34629,10145
34407,10237
34237,10407
34145,10629
29062,10629
30047,9645
32724,9645
32724,9854
32804,10047
32952,10195
33145,10275
33354,10275
33547,10195
33695,10047
33775,9854
33775,9645
33695,9452
33547,9304
33354,9224
33145,9224
32952,9304
32804,9452
32724,9645
30047,9645
30222,9470
30251,9451
30328,9335
30348,9234
30348,9234
30355,9200
30348,9165
30348,8809
30354,8809
30451,8789
30534,8734
30589,8651
30609,8554
30609,7845
30589,7748
30534,7665
30451,7610
30354,7590
29645,7590
29548,7610
29465,7665
29410,7747
29235,7630
29059,7595
28940,7595
28764,7630
28564,7764
28496,7865
28357,7712
28143,7612
28050,7660
28050,8150
28057,8150
28057,8250
28050,8250
28050,8739
28143,8787
28357,8687
28496,8534
28564,8635
28764,8769
28940,8804
29059,8804
29235,8769
29410,8652
29465,8734
29548,8789
29645,8809
29651,8809
29651,9055
27255,11451
26599,11451
26578,11421
26405,11304
26251,11274
26148,11274
25994,11304
25821,11421
25704,11594
25664,11800
25704,12005
25801,12150
23606,12150
23613,12142
23568,12097
23661,12073
23730,11875
23719,11667
23661,11526
23568,11502
23270,11800
23276,11805
23205,11876
23200,11870
23194,11876
23123,11805
23129,11800
22831,11502
22738,11526
22669,11724
22680,11932
22738,12073
22831,12097
22786,12142
22793,12150
18206,12150
18213,12142
18168,12097
18261,12073
18330,11875
18319,11667
18261,11526
18168,11502
17870,11800
17876,11805
17805,11876
17800,11870
17794,11876
17723,11805
17729,11800
17431,11502
17338,11526
17269,11724
17280,11932
17338,12073
17431,12097
17386,12142
17393,12150
15198,12150
15295,12005
15335,11800
15295,11594
15186,11431
17502,11431
17800,11729
18097,11431
22902,11431
23200,11729
23497,11431
23473,11338
23275,11269
23067,11280
22926,11338
22902,11431
18097,11431
18073,11338
17875,11269
17667,11280
17526,11338
17502,11431
15186,11431
15178,11421
15005,11304
14851,11274
14748,11274
14594,11304
14421,11421
14304,11594
14264,11800
14304,12005
14401,12150
14000,12150
13980,12153
13964,12164
13953,12180
13950,12200
13950,15950
6779,15950
6779,14759
11042,14759
11115,15125
11323,15436
11633,15643
11907,15698
12092,15698
12366,15643
12676,15436
12884,15125
12957,14759
12884,14392
12676,14082
12366,13874
12092,13820
11907,13820
11633,13874
11323,14082
11115,14392
11042,14759
6779,14759
6779,9935
14430,9935
14430,10564
14449,10662
14504,10745
14587,10800
14685,10819
15314,10819
15412,10800
15495,10745
15550,10662
15569,10564
15569,9935
15550,9837
15495,9754
15412,9699
15314,9680
14685,9680
14587,9699
14504,9754
14449,9837
14430,9935
6779,9935
6779,8430
6945,8829
7319,9204
7809,9407
8339,9407
8829,9204
9204,8829
9405,8343
10412,8343
10483,8513
10642,8687
10856,8787
10950,8739
10950,8250
10460,8250
10412,8343
9405,8343
9407,8339
9407,8056
10412,8056
10460,8150
10950,8150
10950,7660
11050,7660
11050,8150
11057,8150
11057,8250
11050,8250
11050,8739
11143,8787
11357,8687
11496,8534
11564,8635
11764,8769
11940,8804
12059,8804
12235,8769
12410,8652
12465,8734
12548,8789
12645,8809
13354,8809
13451,8789
13534,8734
13589,8651
13609,8554
13609,8212
16154,8212
16154,9787
16173,9884
16229,9967
16311,10022
16409,10042
17590,10042
17688,10022
17770,9967
17826,9884
17845,9787
17845,9640
17953,9802
18232,9988
18560,10053
18887,9988
19166,9802
19340,9542
19513,9802
19792,9988
20120,10053
20447,9988
20726,9802
20911,9524
20960,9279
20960,8720
20911,8475
20736,8212
21654,8212
21654,9787
21673,9884
21729,9967
21811,10022
21909,10042
23090,10042
23188,10022
23270,9967
23326,9884
23345,9787
23345,9640
23453,9802
23732,9988
24060,10053
24387,9988
24468,9935
25430,9935
25430,10564
25449,10662
25504,10745
25587,10800
25685,10819
26314,10819
26412,10800
26495,10745
26550,10662
26569,10564
26569,9935
26550,9837
26495,9754
26412,9699
26314,9680
25685,9680
25587,9699
25504,9754
25449,9837
25430,9935
24468,9935
24666,9802
24851,9524
24900,9279
24900,8720
24851,8475
24763,8343
27412,8343
27483,8513
27642,8687
27856,8787
27950,8739
27950,8250
27460,8250
27412,8343
24763,8343
24666,8197
24455,8056
27412,8056
27460,8150
27950,8150
27950,7660
27856,7612
27642,7712
27483,7886
27412,8056
24455,8056
24387,8011
24060,7946
23732,8011
23453,8197
23345,8359
23345,8212
23326,8115
23270,8032
23188,7977
23090,7957
21909,7957
21811,7977
21729,8032
21673,8115
21654,8212
20736,8212
20726,8197
20447,8011
20120,7946
19792,8011
19513,8197
19340,8457
19166,8197
18887,8011
18560,7946
18232,8011
17953,8197
17845,8359
17845,8212
17826,8115
17770,8032
17688,7977
17590,7957
16409,7957
16311,7977
16229,8032
16173,8115
16154,8212
13609,8212
13609,7845
13589,7748
13534,7665
13451,7610
13354,7590
12645,7590
12548,7610
12465,7665
12410,7747
12235,7630
12059,7595
11940,7595
11764,7630
11564,7764
11496,7865
11357,7712
11143,7612
11050,7660
10950,7660
10856,7612
10642,7712
10483,7886
10412,8056
9407,8056
9407,7809
9204,7319
8829,6945
8430,6779
14687,6779
14592,6842
" /> 
</g> 
</svg>
