<?xml version="1.0" standalone="no"?>
 <!DOCTYPE svg PUBLIC "-//W3C//DTD SVG 1.1//EN" 
 "http://www.w3.org/Graphics/SVG/1.1/DTD/svg11.dtd"> 
<svg xmlns="http://www.w3.org/2000/svg" version="1.1" 
    width="29.7002cm" height="21.0007cm" viewBox="0 0 116930 82680 ">
<title>SVG Picture created as high-voltage_driver_V1.0-F.Cu.svg date 2018/12/15 00:11:50 </title>
  <desc>Picture generated by PCBNEW </desc>
<g style="fill:#000000; fill-opacity:1;stroke:#000000; stroke-opacity:1;
stroke-linecap:round; stroke-linejoin:round; "
 transform="translate(0 0) scale(1 1)">
</g>
<g style="fill:#000000; fill-opacity:0.0; 
stroke:#000000; stroke-width:-0.000393701; stroke-opacity:1; 
stroke-linecap:round; stroke-linejoin:round;">
</g>
<g style="fill:#000000; fill-opacity:0.0; 
stroke:#000000; stroke-width:59.0551; stroke-opacity:1; 
stroke-linecap:round; stroke-linejoin:round;">
<path d="M36027 26185
L6500 26185
" />
<path d="M36027 6500
L36027 26185
" />
<path d="M6500 6500
L6500 26185
" />
<path d="M6500 6500
L36027 6500
" />
</g>
<g style="fill:#000000; fill-opacity:1.0; 
stroke:#000000; stroke-width:0; stroke-opacity:1; 
stroke-linecap:round; stroke-linejoin:round;">
<circle cx="23200" cy="20800" r="275.591" /> 
</g>
<g style="fill:#000000; fill-opacity:1.0; 
stroke:#000000; stroke-width:39.3701; stroke-opacity:1; 
stroke-linecap:round; stroke-linejoin:round;">
</g>
<g style="fill:#000000; fill-opacity:1.0; 
stroke:#000000; stroke-width:551.181; stroke-opacity:1; 
stroke-linecap:round; stroke-linejoin:round;">
</g>
<g style="fill:#000000; fill-opacity:0.0; 
stroke:#000000; stroke-width:551.181; stroke-opacity:1; 
stroke-linecap:round; stroke-linejoin:round;">
<path d="M26200 20800
L26200 20800
" />
</g>
<g style="fill:#000000; fill-opacity:0.0; 
stroke:#000000; stroke-width:0; stroke-opacity:1; 
stroke-linecap:round; stroke-linejoin:round;">
</g>
<g style="fill:#000000; fill-opacity:1.0; 
stroke:#000000; stroke-width:0; stroke-opacity:1; 
stroke-linecap:round; stroke-linejoin:round;">
<polyline style="fill-rule:evenodd;"
points="35104,12104
34395,12104
34395,11395
35104,11395
35104,12104
" /> 
<circle cx="34750" cy="10750" r="354.331" /> 
</g>
<g style="fill:#000000; fill-opacity:1.0; 
stroke:#000000; stroke-width:39.3701; stroke-opacity:1; 
stroke-linecap:round; stroke-linejoin:round;">
</g>
<g style="fill:#000000; fill-opacity:1.0; 
stroke:#000000; stroke-width:0; stroke-opacity:1; 
stroke-linecap:round; stroke-linejoin:round;">
<polyline style="fill-rule:evenodd;"
points="20255,13855
20944,13855
20944,14544
20255,14544
20255,13855
" /> 
<circle cx="20600" cy="15184.3" r="344.488" /> 
</g>
<g style="fill:#000000; fill-opacity:1.0; 
stroke:#000000; stroke-width:39.3701; stroke-opacity:1; 
stroke-linecap:round; stroke-linejoin:round;">
</g>
<g style="fill:#000000; fill-opacity:1.0; 
stroke:#000000; stroke-width:0; stroke-opacity:1; 
stroke-linecap:round; stroke-linejoin:round;">
<circle cx="20600" cy="16168.5" r="344.488" /> 
</g>
<g style="fill:#000000; fill-opacity:1.0; 
stroke:#000000; stroke-width:39.3701; stroke-opacity:1; 
stroke-linecap:round; stroke-linejoin:round;">
</g>
<g style="fill:#000000; fill-opacity:1.0; 
stroke:#000000; stroke-width:0; stroke-opacity:1; 
stroke-linecap:round; stroke-linejoin:round;">
<circle cx="20600" cy="17152.8" r="344.488" /> 
</g>
<g style="fill:#000000; fill-opacity:1.0; 
stroke:#000000; stroke-width:39.3701; stroke-opacity:1; 
stroke-linecap:round; stroke-linejoin:round;">
</g>
<g style="fill:#000000; fill-opacity:1.0; 
stroke:#000000; stroke-width:0; stroke-opacity:1; 
stroke-linecap:round; stroke-linejoin:round;">
<circle cx="20600" cy="18137" r="344.488" /> 
</g>
<g style="fill:#000000; fill-opacity:1.0; 
stroke:#000000; stroke-width:39.3701; stroke-opacity:1; 
stroke-linecap:round; stroke-linejoin:round;">
</g>
<g style="fill:#000000; fill-opacity:1.0; 
stroke:#000000; stroke-width:0; stroke-opacity:1; 
stroke-linecap:round; stroke-linejoin:round;">
<polyline style="fill-rule:evenodd;"
points="32712,13909
34287,13909
34287,15090
32712,15090
32712,13909
" /> 
</g>
<g style="fill:#000000; fill-opacity:1.0; 
stroke:#000000; stroke-width:1181.1; stroke-opacity:1; 
stroke-linecap:round; stroke-linejoin:round;">
</g>
<g style="fill:#000000; fill-opacity:0.0; 
stroke:#000000; stroke-width:1181.1; stroke-opacity:1; 
stroke-linecap:round; stroke-linejoin:round;">
<path d="M33696 16060
L33303 16060
" />
<path d="M33696 17620
L33303 17620
" />
</g>
<g style="fill:#000000; fill-opacity:0.0; 
stroke:#000000; stroke-width:0; stroke-opacity:1; 
stroke-linecap:round; stroke-linejoin:round;">
</g>
<g style="fill:#000000; fill-opacity:1.0; 
stroke:#000000; stroke-width:0; stroke-opacity:1; 
stroke-linecap:round; stroke-linejoin:round;">
<polyline style="fill-rule:evenodd;"
points="16409,9787
16409,8212
17590,8212
17590,9787
16409,9787
" /> 
</g>
<g style="fill:#000000; fill-opacity:1.0; 
stroke:#000000; stroke-width:1181.1; stroke-opacity:1; 
stroke-linecap:round; stroke-linejoin:round;">
</g>
<g style="fill:#000000; fill-opacity:0.0; 
stroke:#000000; stroke-width:1181.1; stroke-opacity:1; 
stroke-linecap:round; stroke-linejoin:round;">
<path d="M18560 8803
L18560 9196
" />
<path d="M20120 8803
L20120 9196
" />
</g>
<g style="fill:#000000; fill-opacity:0.0; 
stroke:#000000; stroke-width:0; stroke-opacity:1; 
stroke-linecap:round; stroke-linejoin:round;">
</g>
<g style="fill:#000000; fill-opacity:1.0; 
stroke:#000000; stroke-width:0; stroke-opacity:1; 
stroke-linecap:round; stroke-linejoin:round;">
<polyline style="fill-rule:evenodd;"
points="21909,9787
21909,8212
23090,8212
23090,9787
21909,9787
" /> 
</g>
<g style="fill:#000000; fill-opacity:1.0; 
stroke:#000000; stroke-width:1181.1; stroke-opacity:1; 
stroke-linecap:round; stroke-linejoin:round;">
</g>
<g style="fill:#000000; fill-opacity:0.0; 
stroke:#000000; stroke-width:1181.1; stroke-opacity:1; 
stroke-linecap:round; stroke-linejoin:round;">
<path d="M24060 8803
L24060 9196
" />
</g>
<g style="fill:#000000; fill-opacity:0.0; 
stroke:#000000; stroke-width:0; stroke-opacity:1; 
stroke-linecap:round; stroke-linejoin:round;">
</g>
<g style="fill:#000000; fill-opacity:1.0; 
stroke:#000000; stroke-width:0; stroke-opacity:1; 
stroke-linecap:round; stroke-linejoin:round;">
<polyline style="fill-rule:evenodd;"
points="24590,22712
24590,24287
23409,24287
23409,22712
24590,22712
" /> 
</g>
<g style="fill:#000000; fill-opacity:1.0; 
stroke:#000000; stroke-width:1181.1; stroke-opacity:1; 
stroke-linecap:round; stroke-linejoin:round;">
</g>
<g style="fill:#000000; fill-opacity:0.0; 
stroke:#000000; stroke-width:1181.1; stroke-opacity:1; 
stroke-linecap:round; stroke-linejoin:round;">
<path d="M22440 23696
L22440 23303
" />
<path d="M20880 23696
L20880 23303
" />
</g>
<g style="fill:#000000; fill-opacity:0.0; 
stroke:#000000; stroke-width:0; stroke-opacity:1; 
stroke-linecap:round; stroke-linejoin:round;">
</g>
<g style="fill:#000000; fill-opacity:1.0; 
stroke:#000000; stroke-width:0; stroke-opacity:1; 
stroke-linecap:round; stroke-linejoin:round;">
<polyline style="fill-rule:evenodd;"
points="19090,22712
19090,24287
17909,24287
17909,22712
19090,22712
" /> 
</g>
<g style="fill:#000000; fill-opacity:1.0; 
stroke:#000000; stroke-width:1181.1; stroke-opacity:1; 
stroke-linecap:round; stroke-linejoin:round;">
</g>
<g style="fill:#000000; fill-opacity:0.0; 
stroke:#000000; stroke-width:1181.1; stroke-opacity:1; 
stroke-linecap:round; stroke-linejoin:round;">
<path d="M16940 23696
L16940 23303
" />
</g>
<g style="fill:#000000; fill-opacity:0.0; 
stroke:#000000; stroke-width:0; stroke-opacity:1; 
stroke-linecap:round; stroke-linejoin:round;">
</g>
<g style="fill:#000000; fill-opacity:1.0; 
stroke:#000000; stroke-width:0; stroke-opacity:1; 
stroke-linecap:round; stroke-linejoin:round;">
<polyline style="fill-rule:evenodd;"
points="13354,7845
13354,8554
12645,8554
12645,7845
13354,7845
" /> 
</g>
<g style="fill:#000000; fill-opacity:1.0; 
stroke:#000000; stroke-width:708.661; stroke-opacity:1; 
stroke-linecap:round; stroke-linejoin:round;">
</g>
<g style="fill:#000000; fill-opacity:0.0; 
stroke:#000000; stroke-width:708.661; stroke-opacity:1; 
stroke-linecap:round; stroke-linejoin:round;">
<path d="M12000 8200
L12000 8200
" />
<path d="M11000 8200
L11000 8200
" />
</g>
<g style="fill:#000000; fill-opacity:0.0; 
stroke:#000000; stroke-width:0; stroke-opacity:1; 
stroke-linecap:round; stroke-linejoin:round;">
</g>
<g style="fill:#000000; fill-opacity:1.0; 
stroke:#000000; stroke-width:0; stroke-opacity:1; 
stroke-linecap:round; stroke-linejoin:round;">
<polyline style="fill-rule:evenodd;"
points="30354,7845
30354,8554
29645,8554
29645,7845
30354,7845
" /> 
</g>
<g style="fill:#000000; fill-opacity:1.0; 
stroke:#000000; stroke-width:708.661; stroke-opacity:1; 
stroke-linecap:round; stroke-linejoin:round;">
</g>
<g style="fill:#000000; fill-opacity:0.0; 
stroke:#000000; stroke-width:708.661; stroke-opacity:1; 
stroke-linecap:round; stroke-linejoin:round;">
<path d="M29000 8200
L29000 8200
" />
<path d="M28000 8200
L28000 8200
" />
</g>
<g style="fill:#000000; fill-opacity:0.0; 
stroke:#000000; stroke-width:0; stroke-opacity:1; 
stroke-linecap:round; stroke-linejoin:round;">
</g>
<g style="fill:#000000; fill-opacity:1.0; 
stroke:#000000; stroke-width:0; stroke-opacity:1; 
stroke-linecap:round; stroke-linejoin:round;">
<polyline style="fill-rule:evenodd;"
points="27645,24854
27645,24145
28354,24145
28354,24854
27645,24854
" /> 
</g>
<g style="fill:#000000; fill-opacity:1.0; 
stroke:#000000; stroke-width:708.661; stroke-opacity:1; 
stroke-linecap:round; stroke-linejoin:round;">
</g>
<g style="fill:#000000; fill-opacity:0.0; 
stroke:#000000; stroke-width:708.661; stroke-opacity:1; 
stroke-linecap:round; stroke-linejoin:round;">
<path d="M29000 24500
L29000 24500
" />
<path d="M30000 24500
L30000 24500
" />
</g>
<g style="fill:#000000; fill-opacity:0.0; 
stroke:#000000; stroke-width:0; stroke-opacity:1; 
stroke-linecap:round; stroke-linejoin:round;">
</g>
<g style="fill:#000000; fill-opacity:1.0; 
stroke:#000000; stroke-width:0; stroke-opacity:1; 
stroke-linecap:round; stroke-linejoin:round;">
<polyline style="fill-rule:evenodd;"
points="10645,24854
10645,24145
11354,24145
11354,24854
10645,24854
" /> 
</g>
<g style="fill:#000000; fill-opacity:1.0; 
stroke:#000000; stroke-width:708.661; stroke-opacity:1; 
stroke-linecap:round; stroke-linejoin:round;">
</g>
<g style="fill:#000000; fill-opacity:0.0; 
stroke:#000000; stroke-width:708.661; stroke-opacity:1; 
stroke-linecap:round; stroke-linejoin:round;">
<path d="M12000 24500
L12000 24500
" />
<path d="M13000 24500
L13000 24500
" />
</g>
<g style="fill:#000000; fill-opacity:1.0; 
stroke:#000000; stroke-width:0; stroke-opacity:1; 
stroke-linecap:round; stroke-linejoin:round;">
<circle cx="17800" cy="15200" r="275.591" /> 
</g>
<g style="fill:#000000; fill-opacity:1.0; 
stroke:#000000; stroke-width:39.3701; stroke-opacity:1; 
stroke-linecap:round; stroke-linejoin:round;">
</g>
<g style="fill:#000000; fill-opacity:1.0; 
stroke:#000000; stroke-width:551.181; stroke-opacity:1; 
stroke-linecap:round; stroke-linejoin:round;">
</g>
<g style="fill:#000000; fill-opacity:0.0; 
stroke:#000000; stroke-width:551.181; stroke-opacity:1; 
stroke-linecap:round; stroke-linejoin:round;">
<path d="M14800 15200
L14800 15200
" />
</g>
<g style="fill:#000000; fill-opacity:1.0; 
stroke:#000000; stroke-width:0; stroke-opacity:1; 
stroke-linecap:round; stroke-linejoin:round;">
<circle cx="23200" cy="15200" r="275.591" /> 
</g>
<g style="fill:#000000; fill-opacity:1.0; 
stroke:#000000; stroke-width:39.3701; stroke-opacity:1; 
stroke-linecap:round; stroke-linejoin:round;">
</g>
<g style="fill:#000000; fill-opacity:1.0; 
stroke:#000000; stroke-width:551.181; stroke-opacity:1; 
stroke-linecap:round; stroke-linejoin:round;">
</g>
<g style="fill:#000000; fill-opacity:0.0; 
stroke:#000000; stroke-width:551.181; stroke-opacity:1; 
stroke-linecap:round; stroke-linejoin:round;">
<path d="M26200 15200
L26200 15200
" />
</g>
<g style="fill:#000000; fill-opacity:1.0; 
stroke:#000000; stroke-width:0; stroke-opacity:1; 
stroke-linecap:round; stroke-linejoin:round;">
<circle cx="23200" cy="17400" r="275.591" /> 
</g>
<g style="fill:#000000; fill-opacity:1.0; 
stroke:#000000; stroke-width:39.3701; stroke-opacity:1; 
stroke-linecap:round; stroke-linejoin:round;">
</g>
<g style="fill:#000000; fill-opacity:1.0; 
stroke:#000000; stroke-width:551.181; stroke-opacity:1; 
stroke-linecap:round; stroke-linejoin:round;">
</g>
<g style="fill:#000000; fill-opacity:0.0; 
stroke:#000000; stroke-width:551.181; stroke-opacity:1; 
stroke-linecap:round; stroke-linejoin:round;">
<path d="M26200 17400
L26200 17400
" />
</g>
<g style="fill:#000000; fill-opacity:1.0; 
stroke:#000000; stroke-width:0; stroke-opacity:1; 
stroke-linecap:round; stroke-linejoin:round;">
<circle cx="17800" cy="17400" r="275.591" /> 
</g>
<g style="fill:#000000; fill-opacity:1.0; 
stroke:#000000; stroke-width:39.3701; stroke-opacity:1; 
stroke-linecap:round; stroke-linejoin:round;">
</g>
<g style="fill:#000000; fill-opacity:1.0; 
stroke:#000000; stroke-width:551.181; stroke-opacity:1; 
stroke-linecap:round; stroke-linejoin:round;">
</g>
<g style="fill:#000000; fill-opacity:0.0; 
stroke:#000000; stroke-width:551.181; stroke-opacity:1; 
stroke-linecap:round; stroke-linejoin:round;">
<path d="M14800 17400
L14800 17400
" />
</g>
<g style="fill:#000000; fill-opacity:1.0; 
stroke:#000000; stroke-width:0; stroke-opacity:1; 
stroke-linecap:round; stroke-linejoin:round;">
<circle cx="33250" cy="9750" r="275.591" /> 
</g>
<g style="fill:#000000; fill-opacity:1.0; 
stroke:#000000; stroke-width:39.3701; stroke-opacity:1; 
stroke-linecap:round; stroke-linejoin:round;">
</g>
<g style="fill:#000000; fill-opacity:1.0; 
stroke:#000000; stroke-width:551.181; stroke-opacity:1; 
stroke-linecap:round; stroke-linejoin:round;">
</g>
<g style="fill:#000000; fill-opacity:0.0; 
stroke:#000000; stroke-width:551.181; stroke-opacity:1; 
stroke-linecap:round; stroke-linejoin:round;">
<path d="M33250 12750
L33250 12750
" />
</g>
<g style="fill:#000000; fill-opacity:1.0; 
stroke:#000000; stroke-width:0; stroke-opacity:1; 
stroke-linecap:round; stroke-linejoin:round;">
<circle cx="17800" cy="11800" r="275.591" /> 
</g>
<g style="fill:#000000; fill-opacity:1.0; 
stroke:#000000; stroke-width:39.3701; stroke-opacity:1; 
stroke-linecap:round; stroke-linejoin:round;">
</g>
<g style="fill:#000000; fill-opacity:1.0; 
stroke:#000000; stroke-width:551.181; stroke-opacity:1; 
stroke-linecap:round; stroke-linejoin:round;">
</g>
<g style="fill:#000000; fill-opacity:0.0; 
stroke:#000000; stroke-width:551.181; stroke-opacity:1; 
stroke-linecap:round; stroke-linejoin:round;">
<path d="M14800 11800
L14800 11800
" />
</g>
<g style="fill:#000000; fill-opacity:1.0; 
stroke:#000000; stroke-width:0; stroke-opacity:1; 
stroke-linecap:round; stroke-linejoin:round;">
<circle cx="23200" cy="11800" r="275.591" /> 
</g>
<g style="fill:#000000; fill-opacity:1.0; 
stroke:#000000; stroke-width:39.3701; stroke-opacity:1; 
stroke-linecap:round; stroke-linejoin:round;">
</g>
<g style="fill:#000000; fill-opacity:1.0; 
stroke:#000000; stroke-width:551.181; stroke-opacity:1; 
stroke-linecap:round; stroke-linejoin:round;">
</g>
<g style="fill:#000000; fill-opacity:0.0; 
stroke:#000000; stroke-width:551.181; stroke-opacity:1; 
stroke-linecap:round; stroke-linejoin:round;">
<path d="M26200 11800
L26200 11800
" />
</g>
<g style="fill:#000000; fill-opacity:1.0; 
stroke:#000000; stroke-width:0; stroke-opacity:1; 
stroke-linecap:round; stroke-linejoin:round;">
<circle cx="17800" cy="20800" r="275.591" /> 
</g>
<g style="fill:#000000; fill-opacity:1.0; 
stroke:#000000; stroke-width:39.3701; stroke-opacity:1; 
stroke-linecap:round; stroke-linejoin:round;">
</g>
<g style="fill:#000000; fill-opacity:1.0; 
stroke:#000000; stroke-width:551.181; stroke-opacity:1; 
stroke-linecap:round; stroke-linejoin:round;">
</g>
<g style="fill:#000000; fill-opacity:0.0; 
stroke:#000000; stroke-width:551.181; stroke-opacity:1; 
stroke-linecap:round; stroke-linejoin:round;">
<path d="M14800 20800
L14800 20800
" />
</g>
<g style="fill:#000000; fill-opacity:0.0; 
stroke:#000000; stroke-width:0; stroke-opacity:1; 
stroke-linecap:round; stroke-linejoin:round;">
</g>
<g style="fill:#000000; fill-opacity:1.0; 
stroke:#000000; stroke-width:0; stroke-opacity:1; 
stroke-linecap:round; stroke-linejoin:round;">
<polyline style="fill-rule:evenodd;"
points="18114,13685
18114,14314
17485,14314
17485,13685
18114,13685
" /> 
</g>
<g style="fill:#000000; fill-opacity:1.0; 
stroke:#000000; stroke-width:629.921; stroke-opacity:1; 
stroke-linecap:round; stroke-linejoin:round;">
</g>
<g style="fill:#000000; fill-opacity:0.0; 
stroke:#000000; stroke-width:629.921; stroke-opacity:1; 
stroke-linecap:round; stroke-linejoin:round;">
<path d="M14800 13000
L14800 13000
" />
<path d="M17800 13000
L17800 13000
" />
<path d="M14800 14000
L14800 14000
" />
</g>
<g style="fill:#000000; fill-opacity:0.0; 
stroke:#000000; stroke-width:0; stroke-opacity:1; 
stroke-linecap:round; stroke-linejoin:round;">
</g>
<g style="fill:#000000; fill-opacity:1.0; 
stroke:#000000; stroke-width:0; stroke-opacity:1; 
stroke-linecap:round; stroke-linejoin:round;">
<polyline style="fill-rule:evenodd;"
points="22885,13314
22885,12685
23514,12685
23514,13314
22885,13314
" /> 
</g>
<g style="fill:#000000; fill-opacity:1.0; 
stroke:#000000; stroke-width:629.921; stroke-opacity:1; 
stroke-linecap:round; stroke-linejoin:round;">
</g>
<g style="fill:#000000; fill-opacity:0.0; 
stroke:#000000; stroke-width:629.921; stroke-opacity:1; 
stroke-linecap:round; stroke-linejoin:round;">
<path d="M26200 14000
L26200 14000
" />
<path d="M23200 14000
L23200 14000
" />
<path d="M26200 13000
L26200 13000
" />
</g>
<g style="fill:#000000; fill-opacity:0.0; 
stroke:#000000; stroke-width:0; stroke-opacity:1; 
stroke-linecap:round; stroke-linejoin:round;">
</g>
<g style="fill:#000000; fill-opacity:1.0; 
stroke:#000000; stroke-width:0; stroke-opacity:1; 
stroke-linecap:round; stroke-linejoin:round;">
<polyline style="fill-rule:evenodd;"
points="22885,18914
22885,18285
23514,18285
23514,18914
22885,18914
" /> 
</g>
<g style="fill:#000000; fill-opacity:1.0; 
stroke:#000000; stroke-width:629.921; stroke-opacity:1; 
stroke-linecap:round; stroke-linejoin:round;">
</g>
<g style="fill:#000000; fill-opacity:0.0; 
stroke:#000000; stroke-width:629.921; stroke-opacity:1; 
stroke-linecap:round; stroke-linejoin:round;">
<path d="M26200 19600
L26200 19600
" />
<path d="M23200 19600
L23200 19600
" />
<path d="M26200 18600
L26200 18600
" />
</g>
<g style="fill:#000000; fill-opacity:0.0; 
stroke:#000000; stroke-width:0; stroke-opacity:1; 
stroke-linecap:round; stroke-linejoin:round;">
</g>
<g style="fill:#000000; fill-opacity:1.0; 
stroke:#000000; stroke-width:0; stroke-opacity:1; 
stroke-linecap:round; stroke-linejoin:round;">
<polyline style="fill-rule:evenodd;"
points="18114,19285
18114,19914
17485,19914
17485,19285
18114,19285
" /> 
</g>
<g style="fill:#000000; fill-opacity:1.0; 
stroke:#000000; stroke-width:629.921; stroke-opacity:1; 
stroke-linecap:round; stroke-linejoin:round;">
</g>
<g style="fill:#000000; fill-opacity:0.0; 
stroke:#000000; stroke-width:629.921; stroke-opacity:1; 
stroke-linecap:round; stroke-linejoin:round;">
<path d="M14800 18600
L14800 18600
" />
<path d="M17800 18600
L17800 18600
" />
<path d="M14800 19600
L14800 19600
" />
</g>
<g style="fill:#000000; fill-opacity:1.0; 
stroke:#000000; stroke-width:0; stroke-opacity:1; 
stroke-linecap:round; stroke-linejoin:round;">
<circle cx="8074.8" cy="8074.8" r="1082.68" /> 
</g>
<g style="fill:#000000; fill-opacity:1.0; 
stroke:#000000; stroke-width:39.3701; stroke-opacity:1; 
stroke-linecap:round; stroke-linejoin:round;">
</g>
<g style="fill:#000000; fill-opacity:1.0; 
stroke:#000000; stroke-width:0; stroke-opacity:1; 
stroke-linecap:round; stroke-linejoin:round;">
<circle cx="34452.8" cy="8074.8" r="1082.68" /> 
</g>
<g style="fill:#000000; fill-opacity:1.0; 
stroke:#000000; stroke-width:39.3701; stroke-opacity:1; 
stroke-linecap:round; stroke-linejoin:round;">
</g>
<g style="fill:#000000; fill-opacity:1.0; 
stroke:#000000; stroke-width:0; stroke-opacity:1; 
stroke-linecap:round; stroke-linejoin:round;">
<circle cx="8074.8" cy="24610.2" r="1082.68" /> 
</g>
<g style="fill:#000000; fill-opacity:1.0; 
stroke:#000000; stroke-width:39.3701; stroke-opacity:1; 
stroke-linecap:round; stroke-linejoin:round;">
</g>
<g style="fill:#000000; fill-opacity:1.0; 
stroke:#000000; stroke-width:0; stroke-opacity:1; 
stroke-linecap:round; stroke-linejoin:round;">
<circle cx="34452.8" cy="24610.2" r="1082.68" /> 
</g>
<g style="fill:#000000; fill-opacity:1.0; 
stroke:#000000; stroke-width:39.3701; stroke-opacity:1; 
stroke-linecap:round; stroke-linejoin:round;">
</g>
<g style="fill:#000000; fill-opacity:1.0; 
stroke:#000000; stroke-width:0; stroke-opacity:1; 
stroke-linecap:round; stroke-linejoin:round;">
<polyline style="fill-rule:evenodd;"
points="15314,10564
14685,10564
14685,9935
15314,9935
15314,10564
" /> 
</g>
<g style="fill:#000000; fill-opacity:1.0; 
stroke:#000000; stroke-width:629.921; stroke-opacity:1; 
stroke-linecap:round; stroke-linejoin:round;">
</g>
<g style="fill:#000000; fill-opacity:0.0; 
stroke:#000000; stroke-width:629.921; stroke-opacity:1; 
stroke-linecap:round; stroke-linejoin:round;">
<path d="M15000 7250
L15000 7250
" />
</g>
<g style="fill:#000000; fill-opacity:0.0; 
stroke:#000000; stroke-width:0; stroke-opacity:1; 
stroke-linecap:round; stroke-linejoin:round;">
</g>
<g style="fill:#000000; fill-opacity:1.0; 
stroke:#000000; stroke-width:0; stroke-opacity:1; 
stroke-linecap:round; stroke-linejoin:round;">
<polyline style="fill-rule:evenodd;"
points="26314,10564
25685,10564
25685,9935
26314,9935
26314,10564
" /> 
</g>
<g style="fill:#000000; fill-opacity:1.0; 
stroke:#000000; stroke-width:629.921; stroke-opacity:1; 
stroke-linecap:round; stroke-linejoin:round;">
</g>
<g style="fill:#000000; fill-opacity:0.0; 
stroke:#000000; stroke-width:629.921; stroke-opacity:1; 
stroke-linecap:round; stroke-linejoin:round;">
<path d="M26000 7250
L26000 7250
" />
</g>
<g style="fill:#000000; fill-opacity:0.0; 
stroke:#000000; stroke-width:0; stroke-opacity:1; 
stroke-linecap:round; stroke-linejoin:round;">
</g>
<g style="fill:#000000; fill-opacity:1.0; 
stroke:#000000; stroke-width:0; stroke-opacity:1; 
stroke-linecap:round; stroke-linejoin:round;">
<polyline style="fill-rule:evenodd;"
points="25685,22185
26314,22185
26314,22814
25685,22814
25685,22185
" /> 
</g>
<g style="fill:#000000; fill-opacity:1.0; 
stroke:#000000; stroke-width:629.921; stroke-opacity:1; 
stroke-linecap:round; stroke-linejoin:round;">
</g>
<g style="fill:#000000; fill-opacity:0.0; 
stroke:#000000; stroke-width:629.921; stroke-opacity:1; 
stroke-linecap:round; stroke-linejoin:round;">
<path d="M26000 25500
L26000 25500
" />
</g>
<g style="fill:#000000; fill-opacity:0.0; 
stroke:#000000; stroke-width:0; stroke-opacity:1; 
stroke-linecap:round; stroke-linejoin:round;">
</g>
<g style="fill:#000000; fill-opacity:1.0; 
stroke:#000000; stroke-width:0; stroke-opacity:1; 
stroke-linecap:round; stroke-linejoin:round;">
<polyline style="fill-rule:evenodd;"
points="14685,22185
15314,22185
15314,22814
14685,22814
14685,22185
" /> 
</g>
<g style="fill:#000000; fill-opacity:1.0; 
stroke:#000000; stroke-width:629.921; stroke-opacity:1; 
stroke-linecap:round; stroke-linejoin:round;">
</g>
<g style="fill:#000000; fill-opacity:0.0; 
stroke:#000000; stroke-width:629.921; stroke-opacity:1; 
stroke-linecap:round; stroke-linejoin:round;">
<path d="M15000 25500
L15000 25500
" />
</g>
<g style="fill:#000000; fill-opacity:0.0; 
stroke:#000000; stroke-width:196.85; stroke-opacity:1; 
stroke-linecap:round; stroke-linejoin:round;">
<path d="M33250 9750
L34000 9750
" />
<path d="M34750 10250
L34750 10750
" />
<path d="M34250 9750
L34750 10250
" />
<path d="M34000 9750
L34250 9750
" />
</g>
<g style="fill:#000000; fill-opacity:0.0; 
stroke:#000000; stroke-width:787.402; stroke-opacity:1; 
stroke-linecap:round; stroke-linejoin:round;">
<path d="M15000 7250
L12150 7250
" />
<path d="M12000 7400
L12000 8200
" />
<path d="M12150 7250
L12000 7400
" />
<path d="M15000 7250
L18250 7250
" />
<path d="M18560 7560
L18560 9000
" />
<path d="M18250 7250
L18560 7560
" />
<path d="M26000 7250
L28850 7250
" />
<path d="M29000 7400
L29000 8200
" />
<path d="M28850 7250
L29000 7400
" />
<path d="M24500 7250
L20500 7250
" />
<path d="M20120 7630
L20120 9000
" />
<path d="M20500 7250
L20120 7630
" />
<path d="M24060 9000
L24060 7440
" />
<path d="M24250 7250
L24500 7250
" />
<path d="M24500 7250
L26000 7250
" />
<path d="M24060 7440
L24250 7250
" />
<path d="M26000 25500
L28700 25500
" />
<path d="M29000 25200
L29000 24500
" />
<path d="M28700 25500
L29000 25200
" />
<path d="M22440 23500
L22440 25190
" />
<path d="M22750 25500
L26000 25500
" />
<path d="M22440 25190
L22750 25500
" />
<path d="M22500 23560
L22440 23500
" />
<path d="M15000 25500
L12300 25500
" />
<path d="M12000 25200
L12000 24500
" />
<path d="M12300 25500
L12000 25200
" />
<path d="M20880 23500
L20880 25120
" />
<path d="M20500 25500
L16500 25500
" />
<path d="M20880 25120
L20500 25500
" />
<path d="M15000 25500
L16500 25500
" />
<path d="M16940 25060
L16940 23500
" />
<path d="M16500 25500
L16940 25060
" />
</g>
<g style="fill:#000000; fill-opacity:0.0; 
stroke:#000000; stroke-width:196.85; stroke-opacity:1; 
stroke-linecap:round; stroke-linejoin:round;">
<path d="M14800 15200
L16600 15200
" />
<path d="M19015 15184
L20600 15184
" />
<path d="M18200 16000
L19015 15184
" />
<path d="M17400 16000
L18200 16000
" />
<path d="M16600 15200
L17400 16000
" />
<path d="M26200 15200
L24400 15200
" />
<path d="M20968 15800
L20600 16168
" />
<path d="M23800 15800
L20968 15800
" />
<path d="M24400 15200
L23800 15800
" />
<path d="M26200 17400
L24600 17400
" />
<path d="M22247 17152
L20600 17152
" />
<path d="M22800 16600
L22247 17152
" />
<path d="M23800 16600
L22800 16600
" />
<path d="M24600 17400
L23800 16600
" />
<path d="M14800 17400
L16600 17400
" />
<path d="M19737 18137
L20600 18137
" />
<path d="M18200 16600
L19737 18137
" />
<path d="M17400 16600
L18200 16600
" />
<path d="M16600 17400
L17400 16600
" />
<path d="M17800 15200
L17800 14000
" />
<path d="M22400 13400
L22400 14800
" />
<path d="M22800 13000
L22400 13400
" />
<path d="M23200 13000
L22800 13000
" />
<path d="M22800 15200
L23200 15200
" />
<path d="M22400 14800
L22800 15200
" />
<path d="M23200 17400
L23200 18600
" />
<path d="M17800 19600
L18200 19600
" />
<path d="M18200 17400
L17800 17400
" />
<path d="M18600 17800
L18200 17400
" />
<path d="M18600 19200
L18600 17800
" />
<path d="M18200 19600
L18600 19200
" />
<path d="M14800 11800
L14200 11800
" />
<path d="M13000 10600
L13000 8200
" />
<path d="M14200 11800
L13000 10600
" />
<path d="M14800 13000
L14800 11800
" />
<path d="M13800 20800
L11000 23600
" />
<path d="M11000 23600
L11000 24500
" />
<path d="M14800 18600
L14600 18600
" />
<path d="M14600 18600
L13800 19400
" />
<path d="M13800 19400
L13800 20800
" />
<path d="M14800 20800
L13800 20800
" />
</g>
<g style="fill:#000000; fill-opacity:1.0; 
stroke:#000000; stroke-width:100; stroke-opacity:1; 
stroke-linecap:round; stroke-linejoin:round;">
<polyline style="fill-rule:evenodd;"
points="33697,6945
33322,7319
33120,7809
33120,8339
33322,8829
33697,9204
34173,9401
33644,9401
33547,9304
33354,9224
33145,9224
32952,9304
32804,9452
32724,9645
32724,9854
32804,10047
32952,10195
33145,10275
33354,10275
33547,10195
33644,10098
34105,10098
34326,10319
34237,10407
34145,10629
34145,10870
34237,11092
34304,11158
34298,11160
34215,11215
34160,11298
34140,11395
34140,12104
34160,12201
34215,12284
34298,12339
34395,12359
35104,12359
35201,12339
35284,12284
35339,12201
35359,12104
35359,11395
35339,11298
35284,11215
35201,11160
35195,11158
35262,11092
35354,10870
35354,10629
35262,10407
35105,10250
35105,10249
35098,10215
35098,10215
35078,10114
35037,10053
35020,10027
35020,10027
35001,9998
34972,9979
34520,9527
34501,9498
34385,9421
34314,9407
34717,9407
35207,9204
35582,8829
35748,8430
35748,24254
35582,23855
35207,23480
34717,23277
34187,23277
33697,23480
33322,23855
33120,24345
33120,24875
33322,25365
33697,25740
34097,25905
29204,25905
29410,25699
29464,25664
29593,25470
29606,25451
29656,25200
29643,25136
29643,24988
29764,25069
29940,25104
30059,25104
30235,25069
30435,24935
30569,24735
30616,24500
30569,24264
30435,24064
30235,23930
30059,23895
29940,23895
29764,23930
29564,24064
29523,24125
29464,24035
29251,23893
29000,23843
28748,23893
28567,24014
28534,23965
28451,23910
28354,23890
27645,23890
27548,23910
27465,23965
27410,24048
27390,24145
27390,24854
27391,24856
23083,24856
23083,24246
23159,24133
23159,24337
23197,24429
23267,24499
23359,24537
23887,24537
23950,24474
23950,23550
24050,23550
24050,24474
24112,24537
24640,24537
24732,24499
24802,24429
24840,24337
24840,23612
24778,23550
24050,23550
23950,23550
23942,23550
23942,23450
23950,23450
23950,22525
24050,22525
24050,23450
24778,23450
24840,23387
24840,22662
24819,22612
25435,22612
25435,22864
25473,22956
25543,23026
25635,23064
25887,23064
25950,23002
25950,22550
26050,22550
26050,23002
26112,23064
26364,23064
26456,23026
26526,22956
26564,22864
26564,22612
26502,22550
26050,22550
25950,22550
25497,22550
25435,22612
24819,22612
24802,22570
24732,22500
24640,22462
24112,22462
24050,22525
23950,22525
23887,22462
23359,22462
23267,22500
23197,22570
23159,22662
23159,22866
23046,22697
22767,22511
22440,22446
22112,22511
21833,22697
21660,22957
21486,22697
21207,22511
20880,22446
20552,22511
20273,22697
20088,22975
20039,23220
20039,23779
20088,24024
20236,24246
20236,24853
20233,24856
17583,24856
17583,24246
17659,24133
17659,24337
17697,24429
17767,24499
17859,24537
18387,24537
18450,24474
18450,23550
18550,23550
18550,24474
18612,24537
19140,24537
19232,24499
19302,24429
19340,24337
19340,23612
19278,23550
18550,23550
18450,23550
18442,23550
18442,23450
18450,23450
18450,22525
18550,22525
18550,23450
19278,23450
19340,23387
19340,22662
19302,22570
19232,22500
19140,22462
18612,22462
18550,22525
18450,22525
18387,22462
17859,22462
17767,22500
17697,22570
17659,22662
17659,22866
17546,22697
17267,22511
16940,22446
16612,22511
16333,22697
16148,22975
16099,23220
16099,23779
16148,24024
16296,24246
16296,24793
16233,24856
13488,24856
13569,24735
13616,24500
13569,24264
13435,24064
13235,23930
13059,23895
12940,23895
12764,23930
12564,24064
12523,24125
12464,24035
12251,23893
12000,23843
11748,23893
11567,24014
11534,23965
11451,23910
11354,23890
11348,23890
11348,23744
12480,22612
14435,22612
14435,22864
14473,22956
14543,23026
14635,23064
14887,23064
14950,23002
14950,22550
15050,22550
15050,23002
15112,23064
15364,23064
15456,23026
15526,22956
15564,22864
15564,22612
15502,22550
15050,22550
14950,22550
14497,22550
14435,22612
12480,22612
12957,22135
14435,22135
14435,22387
14497,22450
14950,22450
14950,21997
15050,21997
15050,22450
15502,22450
15564,22387
15564,22135
25435,22135
25435,22387
25497,22450
25950,22450
25950,21997
26050,21997
26050,22450
26502,22450
26564,22387
26564,22135
26526,22043
26456,21973
26364,21935
26112,21935
26050,21997
25950,21997
25887,21935
25635,21935
25543,21973
25473,22043
25435,22135
15564,22135
15526,22043
15456,21973
15364,21935
15112,21935
15050,21997
14950,21997
14887,21935
14635,21935
14543,21973
14473,22043
14435,22135
12957,22135
13944,21148
14400,21148
14421,21178
14594,21295
14748,21325
14851,21325
15005,21295
15178,21178
15295,21005
15335,20800
15295,20594
15178,20421
15005,20304
14851,20274
14748,20274
14594,20304
14421,20421
14400,20451
14148,20451
14148,20250
15979,20250
16164,20435
16180,20446
16200,20450
17406,20450
17354,20502
17274,20695
17274,20904
17354,21097
17502,21245
17695,21325
17904,21325
18097,21245
18245,21097
18325,20904
18325,20695
18245,20502
18193,20450
22806,20450
22754,20502
22674,20695
22674,20904
22754,21097
22902,21245
23095,21325
23304,21325
23497,21245
23645,21097
23725,20904
23725,20800
25664,20800
25704,21005
25821,21178
25994,21295
26148,21325
26251,21325
26405,21295
26578,21178
26695,21005
26735,20800
26695,20594
26578,20421
26405,20304
26251,20274
26148,20274
25994,20304
25821,20421
25704,20594
25664,20800
23725,20800
23725,20695
23645,20502
23593,20450
25000,20450
25019,20446
25035,20435
25220,20250
27000,20250
27019,20246
27035,20235
27046,20219
27050,20200
27050,17940
28042,17940
28115,18307
28323,18617
28633,18825
28907,18879
29092,18879
29366,18825
29676,18617
29884,18307
29957,17940
29929,17800
32482,17800
32507,17895
32673,18179
32935,18377
33253,18460
33450,18460
33450,17670
33550,17670
33550,18460
33746,18460
34064,18377
34326,18179
34492,17895
34517,17800
34473,17670
33550,17670
33450,17670
32526,17670
32482,17800
29929,17800
29884,17574
29676,17263
29366,17056
29092,17001
28907,17001
28633,17056
28323,17263
28115,17574
28042,17940
27050,17940
27050,16060
32446,16060
32511,16387
32697,16666
32975,16851
32975,16851
32935,16862
32673,17060
32507,17344
32482,17439
32526,17570
33450,17570
33450,17562
33550,17562
33550,17570
34473,17570
34517,17439
34492,17344
34326,17060
34064,16862
34024,16851
34024,16851
34302,16666
34488,16387
34553,16060
34488,15732
34302,15453
34140,15345
34287,15345
34384,15326
34467,15270
34522,15188
34542,15090
34542,13909
34522,13811
34467,13729
34384,13673
34287,13654
32712,13654
32615,13673
32532,13729
32477,13811
32457,13909
32457,15090
32477,15188
32532,15270
32615,15326
32712,15345
32859,15345
32697,15453
32511,15732
32446,16060
27050,16060
27050,14759
28042,14759
28115,15125
28323,15436
28633,15643
28907,15698
29092,15698
29366,15643
29676,15436
29884,15125
29957,14759
29884,14392
29676,14082
29366,13874
29092,13820
28907,13820
28633,13874
28323,14082
28115,14392
28042,14759
27050,14759
27050,12750
32714,12750
32754,12955
32871,13128
33044,13245
33198,13275
33301,13275
33455,13245
33628,13128
33745,12955
33785,12750
33745,12544
33628,12371
33455,12254
33301,12224
33198,12224
33044,12254
32871,12371
32754,12544
32714,12750
27050,12750
27050,12200
27046,12180
27035,12164
27019,12153
27000,12150
26598,12150
26695,12005
26735,11800
26695,11594
26578,11421
26405,11304
26251,11274
26148,11274
25994,11304
25821,11421
25704,11594
25664,11800
25704,12005
25801,12150
23593,12150
23645,12097
23725,11904
23725,11695
23645,11502
23497,11354
23304,11274
23095,11274
22902,11354
22754,11502
22674,11695
22674,11904
22754,12097
22806,12150
18193,12150
18245,12097
18325,11904
18325,11695
18245,11502
18097,11354
17904,11274
17695,11274
17502,11354
17354,11502
17274,11695
17274,11904
17354,12097
17406,12150
15198,12150
15295,12005
15335,11800
15295,11594
15178,11421
15005,11304
14851,11274
14748,11274
14594,11304
14421,11421
14400,11451
14344,11451
13348,10455
13348,10362
14435,10362
14435,10614
14473,10706
14543,10776
14635,10814
14887,10814
14950,10752
14950,10300
15050,10300
15050,10752
15112,10814
15364,10814
15456,10776
15526,10706
15564,10614
15564,10362
25435,10362
25435,10614
25473,10706
25543,10776
25635,10814
25887,10814
25950,10752
25950,10300
26050,10300
26050,10752
26112,10814
26364,10814
26456,10776
26526,10706
26564,10614
26564,10362
26502,10300
26050,10300
25950,10300
25497,10300
25435,10362
15564,10362
15502,10300
15050,10300
14950,10300
14497,10300
14435,10362
13348,10362
13348,9885
14435,9885
14435,10137
14497,10200
14950,10200
14950,9747
15050,9747
15050,10200
15502,10200
15564,10137
15564,9885
15526,9793
15456,9723
15364,9685
15112,9685
15050,9747
14950,9747
14887,9685
14635,9685
14543,9723
14473,9793
14435,9885
13348,9885
13348,9112
16159,9112
16159,9837
16197,9929
16267,9999
16359,10037
16887,10037
16950,9974
16950,9050
16221,9050
16159,9112
13348,9112
13348,8809
13354,8809
13451,8789
13534,8734
13589,8651
13609,8554
13609,8162
16159,8162
16159,8887
16221,8950
16950,8950
16950,8025
16887,7962
16359,7962
16267,8000
16197,8070
16159,8162
13609,8162
13609,7893
17916,7893
17916,8253
17840,8366
17840,8162
17802,8070
17732,8000
17640,7962
17112,7962
17050,8025
17050,8950
17057,8950
17057,9050
17050,9050
17050,9974
17112,10037
17640,10037
17732,9999
17802,9929
17840,9837
17840,9633
17953,9802
18232,9988
18560,10053
18887,9988
19166,9802
19340,9542
19513,9802
19792,9988
20120,10053
20447,9988
20726,9802
20911,9524
20960,9279
20960,9112
21659,9112
21659,9837
21697,9929
21767,9999
21859,10037
22387,10037
22450,9974
22450,9050
21721,9050
21659,9112
20960,9112
20960,8720
20911,8475
20763,8253
20763,8162
21659,8162
21659,8887
21721,8950
22450,8950
22450,8025
22387,7962
21859,7962
21767,8000
21697,8070
21659,8162
20763,8162
20763,7896
20766,7893
23416,7893
23416,8253
23340,8366
23340,8162
23302,8070
23232,8000
23140,7962
22612,7962
22550,8025
22550,8950
22557,8950
22557,9050
22550,9050
22550,9974
22612,10037
23140,10037
23232,9999
23302,9929
23340,9837
23340,9633
23453,9802
23732,9988
24060,10053
24387,9988
24542,9885
25435,9885
25435,10137
25497,10200
25950,10200
25950,9747
26050,9747
26050,10200
26502,10200
26564,10137
26564,9885
26526,9793
26456,9723
26364,9685
26112,9685
26050,9747
25950,9747
25887,9685
25635,9685
25543,9723
25473,9793
25435,9885
24542,9885
24666,9802
24851,9524
24900,9279
24900,8720
24851,8475
24703,8253
24703,7893
27477,7893
27430,7964
27383,8200
27430,8435
27564,8635
27764,8769
27940,8804
28059,8804
28235,8769
28435,8635
28476,8574
28535,8664
28748,8806
29000,8856
29251,8806
29432,8685
29465,8734
29548,8789
29645,8809
30354,8809
30451,8789
30534,8734
30589,8651
30609,8554
30609,7845
30589,7748
30534,7665
30451,7610
30354,7590
29645,7590
29643,7591
29643,7463
29656,7399
29643,7336
29643,7336
29606,7148
29464,6935
29410,6900
29349,6839
29314,6785
29304,6779
34097,6779
33697,6945
" /> 
</g> 
</svg>
